solid OpenSCAD_Model
  facet normal -1 0 0
    outer loop
      vertex -40 -53 0
      vertex -40 53 2
      vertex -40 53 0
    endloop
  endfacet
  facet normal -1 -0 0
    outer loop
      vertex -40 53 2
      vertex -40 -53 0
      vertex -40 -53 2
    endloop
  endfacet
  facet normal -0 0 1
    outer loop
      vertex -39 13.5 2
      vertex -37 -13 2
      vertex -37 13.5 2
    endloop
  endfacet
  facet normal 0 0 1
    outer loop
      vertex -37 -13 2
      vertex -39 13.5 2
      vertex -39 -13 2
    endloop
  endfacet
  facet normal 0 0 1
    outer loop
      vertex -20.5 -45 2
      vertex -21.625 -46.9845 2
      vertex -20.75 -48.5 2
    endloop
  endfacet
  facet normal 0 0 1
    outer loop
      vertex -20.5 -45 2
      vertex -23.375 -46.9845 2
      vertex -21.625 -46.9845 2
    endloop
  endfacet
  facet normal 0 0 1
    outer loop
      vertex -23.375 -46.9845 2
      vertex -24.5 -45 2
      vertex -24.25 -48.5 2
    endloop
  endfacet
  facet normal -0 0 1
    outer loop
      vertex -24.5 -45 2
      vertex -23.375 -46.9845 2
      vertex -20.5 -45 2
    endloop
  endfacet
  facet normal 0 0 1
    outer loop
      vertex -6 -38 2
      vertex -14 -39 2
      vertex -6 -39 2
    endloop
  endfacet
  facet normal 0 0 1
    outer loop
      vertex -14 -39 2
      vertex -18 -42.5 2
      vertex -14 -52 2
    endloop
  endfacet
  facet normal 0 0 1
    outer loop
      vertex -14 -39 2
      vertex -18.7322 -40.7322 2
      vertex -18 -42.5 2
    endloop
  endfacet
  facet normal 0 0 1
    outer loop
      vertex -14 -39 2
      vertex -20.5 -40 2
      vertex -18.7322 -40.7322 2
    endloop
  endfacet
  facet normal 0 0 1
    outer loop
      vertex -14 -39 2
      vertex -24.5 -40 2
      vertex -20.5 -40 2
    endloop
  endfacet
  facet normal 0 0 1
    outer loop
      vertex -31 -39 2
      vertex -14 -39 2
      vertex -6 -38 2
    endloop
  endfacet
  facet normal 0 0 1
    outer loop
      vertex -26.2678 -40.7322 2
      vertex -31 -39 2
      vertex -27 -42.5 2
    endloop
  endfacet
  facet normal 0 0 1
    outer loop
      vertex -24.5 -40 2
      vertex -31 -39 2
      vertex -26.2678 -40.7322 2
    endloop
  endfacet
  facet normal 0 0 1
    outer loop
      vertex -14 -39 2
      vertex -31 -39 2
      vertex -24.5 -40 2
    endloop
  endfacet
  facet normal -0 0 1
    outer loop
      vertex -39 -38 2
      vertex -31 -39 2
      vertex -6 -38 2
    endloop
  endfacet
  facet normal 0 0 1
    outer loop
      vertex -31 -39 2
      vertex -39 -38 2
      vertex -39 -39 2
    endloop
  endfacet
  facet normal 0 0 1
    outer loop
      vertex -8.5 -32 2
      vertex -6 -26 2
      vertex -8 -26 2
    endloop
  endfacet
  facet normal 0 0 1
    outer loop
      vertex -8 -16 2
      vertex -8.5 -32 2
      vertex -8 -26 2
    endloop
  endfacet
  facet normal 0 0 1
    outer loop
      vertex -6 -26 2
      vertex -8.5 -32 2
      vertex -6 -33 2
    endloop
  endfacet
  facet normal -0 0 1
    outer loop
      vertex -36.5 -32 2
      vertex -6 -33 2
      vertex -8.5 -32 2
    endloop
  endfacet
  facet normal 0 0 1
    outer loop
      vertex -37 -13 2
      vertex -36.5 21.5 2
      vertex -37 13.5 2
    endloop
  endfacet
  facet normal 0 0 1
    outer loop
      vertex -36.5 21.5 2
      vertex -37 -13 2
      vertex -36.5 -32 2
    endloop
  endfacet
  facet normal -0 0 1
    outer loop
      vertex -37 -23 2
      vertex -36.5 -32 2
      vertex -37 -13 2
    endloop
  endfacet
  facet normal -0 0 1
    outer loop
      vertex -39 -23 2
      vertex -36.5 -32 2
      vertex -37 -23 2
    endloop
  endfacet
  facet normal 0 0 1
    outer loop
      vertex -36.5 -32 2
      vertex -39 -33 2
      vertex -6 -33 2
    endloop
  endfacet
  facet normal 0 0 1
    outer loop
      vertex -39 -33 2
      vertex -36.5 -32 2
      vertex -39 -23 2
    endloop
  endfacet
  facet normal -0 0 1
    outer loop
      vertex -8 13.5 2
      vertex -6 -16 2
      vertex -6 13.5 2
    endloop
  endfacet
  facet normal 0 0 1
    outer loop
      vertex -6 -16 2
      vertex -8 13.5 2
      vertex -8 -16 2
    endloop
  endfacet
  facet normal -0 0 1
    outer loop
      vertex -9 29 2
      vertex -6 23.5 2
      vertex -6 30 2
    endloop
  endfacet
  facet normal -0 0 1
    outer loop
      vertex -8.5 21.5 2
      vertex -8 13.5 2
      vertex -8 23.5 2
    endloop
  endfacet
  facet normal 0 0 1
    outer loop
      vertex -8 13.5 2
      vertex -8.5 21.5 2
      vertex -8 -16 2
    endloop
  endfacet
  facet normal 0 0 1
    outer loop
      vertex -8.5 -32 2
      vertex -8 -16 2
      vertex -8.5 21.5 2
    endloop
  endfacet
  facet normal 0 0 1
    outer loop
      vertex -9 22.5 2
      vertex -8 23.5 2
      vertex -9 29 2
    endloop
  endfacet
  facet normal 0 0 1
    outer loop
      vertex -6 23.5 2
      vertex -9 29 2
      vertex -8 23.5 2
    endloop
  endfacet
  facet normal -0 0 1
    outer loop
      vertex -19 29.5 2
      vertex -9 29 2
      vertex -6 30 2
    endloop
  endfacet
  facet normal 0 0 1
    outer loop
      vertex -19 22.5 2
      vertex -18 29 2
      vertex -19 29.5 2
    endloop
  endfacet
  facet normal 0 0 1
    outer loop
      vertex -9 29 2
      vertex -19 29.5 2
      vertex -18 29 2
    endloop
  endfacet
  facet normal 0 0 1
    outer loop
      vertex -6 30 2
      vertex -26 29.5 2
      vertex -19 29.5 2
    endloop
  endfacet
  facet normal 0 0 1
    outer loop
      vertex -26 29.5 2
      vertex -27 29 2
      vertex -26 22.5 2
    endloop
  endfacet
  facet normal 0 0 1
    outer loop
      vertex -26 29.5 2
      vertex -36 29 2
      vertex -27 29 2
    endloop
  endfacet
  facet normal -0 0 1
    outer loop
      vertex -37 23.5 2
      vertex -36 22.5 2
      vertex -36 29 2
    endloop
  endfacet
  facet normal 0 0 1
    outer loop
      vertex -37 13.5 2
      vertex -36.5 21.5 2
      vertex -37 23.5 2
    endloop
  endfacet
  facet normal 0 0 1
    outer loop
      vertex -36 22.5 2
      vertex -37 23.5 2
      vertex -36.5 21.5 2
    endloop
  endfacet
  facet normal -0 0 1
    outer loop
      vertex -39 30 2
      vertex -26 29.5 2
      vertex -6 30 2
    endloop
  endfacet
  facet normal 0 0 1
    outer loop
      vertex -39 30 2
      vertex -36 29 2
      vertex -26 29.5 2
    endloop
  endfacet
  facet normal 0 0 1
    outer loop
      vertex -39 23.5 2
      vertex -36 29 2
      vertex -39 30 2
    endloop
  endfacet
  facet normal 0 0 1
    outer loop
      vertex -36 29 2
      vertex -39 23.5 2
      vertex -37 23.5 2
    endloop
  endfacet
  facet normal -0 0 1
    outer loop
      vertex -14 39 2
      vertex -6 38 2
      vertex -6 39 2
    endloop
  endfacet
  facet normal -0 0 1
    outer loop
      vertex -18.7322 40.7322 2
      vertex -14 39 2
      vertex -18 42.5 2
    endloop
  endfacet
  facet normal -0 0 1
    outer loop
      vertex -20.5 40 2
      vertex -14 39 2
      vertex -18.7322 40.7322 2
    endloop
  endfacet
  facet normal -0 0 1
    outer loop
      vertex -24.5 40 2
      vertex -14 39 2
      vertex -20.5 40 2
    endloop
  endfacet
  facet normal 0 0 1
    outer loop
      vertex -31 39 2
      vertex -14 39 2
      vertex -24.5 40 2
    endloop
  endfacet
  facet normal 0 0 1
    outer loop
      vertex -31 39 2
      vertex -27 42.5 2
      vertex -31 52 2
    endloop
  endfacet
  facet normal 0 0 1
    outer loop
      vertex -27 42.5 2
      vertex -31 39 2
      vertex -26.2678 40.7322 2
    endloop
  endfacet
  facet normal 0 0 1
    outer loop
      vertex -31 39 2
      vertex -24.5 40 2
      vertex -26.2678 40.7322 2
    endloop
  endfacet
  facet normal 0 0 1
    outer loop
      vertex -14 39 2
      vertex -31 39 2
      vertex -6 38 2
    endloop
  endfacet
  facet normal 0 0 1
    outer loop
      vertex -39 38 2
      vertex -31 39 2
      vertex -39 39 2
    endloop
  endfacet
  facet normal 0 0 1
    outer loop
      vertex -31 39 2
      vertex -39 38 2
      vertex -6 38 2
    endloop
  endfacet
  facet normal 0 0 1
    outer loop
      vertex -6 39 2
      vertex -5 53 2
      vertex -6 52 2
    endloop
  endfacet
  facet normal 0 0 1
    outer loop
      vertex -5 53 2
      vertex -14 52 2
      vertex -6 52 2
    endloop
  endfacet
  facet normal 0 0 1
    outer loop
      vertex -14 52 2
      vertex -18 42.5 2
      vertex -14 39 2
    endloop
  endfacet
  facet normal 0 0 1
    outer loop
      vertex -14 52 2
      vertex -18.7322 44.2678 2
      vertex -18 42.5 2
    endloop
  endfacet
  facet normal -0 0 1
    outer loop
      vertex -20.75 48.5 2
      vertex -18.7322 44.2678 2
      vertex -14 52 2
    endloop
  endfacet
  facet normal 0 0 1
    outer loop
      vertex -18.7322 44.2678 2
      vertex -20.75 48.5 2
      vertex -20.5 45 2
    endloop
  endfacet
  facet normal 0 0 1
    outer loop
      vertex -14 52 2
      vertex -21.625 50.0155 2
      vertex -20.75 48.5 2
    endloop
  endfacet
  facet normal 0 0 1
    outer loop
      vertex -14 52 2
      vertex -23.375 50.0155 2
      vertex -21.625 50.0155 2
    endloop
  endfacet
  facet normal 0 0 1
    outer loop
      vertex -24.25 48.5 2
      vertex -26.2678 44.2678 2
      vertex -24.5 45 2
    endloop
  endfacet
  facet normal 0 0 1
    outer loop
      vertex -26.2678 44.2678 2
      vertex -31 52 2
      vertex -27 42.5 2
    endloop
  endfacet
  facet normal 0 0 1
    outer loop
      vertex -24.25 48.5 2
      vertex -31 52 2
      vertex -26.2678 44.2678 2
    endloop
  endfacet
  facet normal 0 0 1
    outer loop
      vertex -23.375 50.0155 2
      vertex -31 52 2
      vertex -24.25 48.5 2
    endloop
  endfacet
  facet normal 0 0 1
    outer loop
      vertex -14 52 2
      vertex -31 52 2
      vertex -23.375 50.0155 2
    endloop
  endfacet
  facet normal 0 0 1
    outer loop
      vertex -5 53 2
      vertex -31 52 2
      vertex -14 52 2
    endloop
  endfacet
  facet normal -0 0 1
    outer loop
      vertex -40 53 2
      vertex -31 52 2
      vertex -5 53 2
    endloop
  endfacet
  facet normal 0 0 1
    outer loop
      vertex -40 53 2
      vertex -39 39 2
      vertex -39 52 2
    endloop
  endfacet
  facet normal 0 0 1
    outer loop
      vertex -39 39 2
      vertex -40 53 2
      vertex -39 38 2
    endloop
  endfacet
  facet normal 0 0 1
    outer loop
      vertex -39 38 2
      vertex -40 53 2
      vertex -39 30 2
    endloop
  endfacet
  facet normal 0 0 1
    outer loop
      vertex -39 30 2
      vertex -40 53 2
      vertex -39 23.5 2
    endloop
  endfacet
  facet normal 0 0 1
    outer loop
      vertex -39 23.5 2
      vertex -40 53 2
      vertex -39 13.5 2
    endloop
  endfacet
  facet normal 0 0 1
    outer loop
      vertex -39 13.5 2
      vertex -40 53 2
      vertex -39 -13 2
    endloop
  endfacet
  facet normal 0 0 1
    outer loop
      vertex -40 -53 2
      vertex -39 -13 2
      vertex -40 53 2
    endloop
  endfacet
  facet normal 0 0 1
    outer loop
      vertex -39 -13 2
      vertex -40 -53 2
      vertex -39 -23 2
    endloop
  endfacet
  facet normal 0 0 1
    outer loop
      vertex -39 -23 2
      vertex -40 -53 2
      vertex -39 -33 2
    endloop
  endfacet
  facet normal 0 0 1
    outer loop
      vertex -39 -33 2
      vertex -40 -53 2
      vertex -39 -38 2
    endloop
  endfacet
  facet normal 0 0 1
    outer loop
      vertex -39 -38 2
      vertex -40 -53 2
      vertex -39 -39 2
    endloop
  endfacet
  facet normal 0 0 1
    outer loop
      vertex -31 52 2
      vertex -40 53 2
      vertex -39 52 2
    endloop
  endfacet
  facet normal 0 0 1
    outer loop
      vertex -6 38 2
      vertex -5 53 2
      vertex -6 39 2
    endloop
  endfacet
  facet normal 0 0 1
    outer loop
      vertex -6 30 2
      vertex -5 53 2
      vertex -6 38 2
    endloop
  endfacet
  facet normal 0 0 1
    outer loop
      vertex -6 23.5 2
      vertex -5 53 2
      vertex -6 30 2
    endloop
  endfacet
  facet normal 0 0 1
    outer loop
      vertex -6 13.5 2
      vertex -5 53 2
      vertex -6 23.5 2
    endloop
  endfacet
  facet normal 0 0 1
    outer loop
      vertex -5 53 2
      vertex -6 13.5 2
      vertex -5 -53 2
    endloop
  endfacet
  facet normal -0 0 1
    outer loop
      vertex -6 -16 2
      vertex -5 -53 2
      vertex -6 13.5 2
    endloop
  endfacet
  facet normal -0 0 1
    outer loop
      vertex -6 -26 2
      vertex -5 -53 2
      vertex -6 -16 2
    endloop
  endfacet
  facet normal -0 0 1
    outer loop
      vertex -6 -33 2
      vertex -5 -53 2
      vertex -6 -26 2
    endloop
  endfacet
  facet normal -0 0 1
    outer loop
      vertex -6 -38 2
      vertex -5 -53 2
      vertex -6 -33 2
    endloop
  endfacet
  facet normal -0 0 1
    outer loop
      vertex -6 -39 2
      vertex -5 -53 2
      vertex -6 -38 2
    endloop
  endfacet
  facet normal -0 0 1
    outer loop
      vertex -6 -52 2
      vertex -5 -53 2
      vertex -6 -39 2
    endloop
  endfacet
  facet normal -0 0 1
    outer loop
      vertex -14 -52 2
      vertex -5 -53 2
      vertex -6 -52 2
    endloop
  endfacet
  facet normal -0 0 1
    outer loop
      vertex -18.7322 -44.2678 2
      vertex -14 -52 2
      vertex -18 -42.5 2
    endloop
  endfacet
  facet normal 0 0 1
    outer loop
      vertex -20.75 -48.5 2
      vertex -18.7322 -44.2678 2
      vertex -20.5 -45 2
    endloop
  endfacet
  facet normal 0 0 1
    outer loop
      vertex -18.7322 -44.2678 2
      vertex -20.75 -48.5 2
      vertex -14 -52 2
    endloop
  endfacet
  facet normal -0 0 1
    outer loop
      vertex -21.625 -50.0155 2
      vertex -14 -52 2
      vertex -20.75 -48.5 2
    endloop
  endfacet
  facet normal -0 0 1
    outer loop
      vertex -23.375 -50.0155 2
      vertex -14 -52 2
      vertex -21.625 -50.0155 2
    endloop
  endfacet
  facet normal 0 0 1
    outer loop
      vertex -26.2678 -44.2678 2
      vertex -24.25 -48.5 2
      vertex -24.5 -45 2
    endloop
  endfacet
  facet normal 0 0 1
    outer loop
      vertex -31 -52 2
      vertex -27 -42.5 2
      vertex -31 -39 2
    endloop
  endfacet
  facet normal 0 0 1
    outer loop
      vertex -27 -42.5 2
      vertex -31 -52 2
      vertex -26.2678 -44.2678 2
    endloop
  endfacet
  facet normal 0 0 1
    outer loop
      vertex -26.2678 -44.2678 2
      vertex -31 -52 2
      vertex -24.25 -48.5 2
    endloop
  endfacet
  facet normal 0 0 1
    outer loop
      vertex -24.25 -48.5 2
      vertex -31 -52 2
      vertex -23.375 -50.0155 2
    endloop
  endfacet
  facet normal 0 0 1
    outer loop
      vertex -31 -52 2
      vertex -14 -52 2
      vertex -23.375 -50.0155 2
    endloop
  endfacet
  facet normal -0 0 1
    outer loop
      vertex -31 -52 2
      vertex -5 -53 2
      vertex -14 -52 2
    endloop
  endfacet
  facet normal 0 0 1
    outer loop
      vertex -40 -53 2
      vertex -31 -52 2
      vertex -39 -52 2
    endloop
  endfacet
  facet normal 0 0 1
    outer loop
      vertex -31 -52 2
      vertex -40 -53 2
      vertex -5 -53 2
    endloop
  endfacet
  facet normal 0 0 1
    outer loop
      vertex -39 -39 2
      vertex -40 -53 2
      vertex -39 -52 2
    endloop
  endfacet
  facet normal 0 0 1
    outer loop
      vertex -8 23.5 2
      vertex -9 22.5 2
      vertex -8.5 21.5 2
    endloop
  endfacet
  facet normal -0 0 1
    outer loop
      vertex -18 22.5 2
      vertex -8.5 21.5 2
      vertex -9 22.5 2
    endloop
  endfacet
  facet normal 0 0 1
    outer loop
      vertex -18 29 2
      vertex -19 22.5 2
      vertex -18 22.5 2
    endloop
  endfacet
  facet normal -0 0 1
    outer loop
      vertex -19 22.5 2
      vertex -8.5 21.5 2
      vertex -18 22.5 2
    endloop
  endfacet
  facet normal -0 0 1
    outer loop
      vertex -26 22.5 2
      vertex -8.5 21.5 2
      vertex -19 22.5 2
    endloop
  endfacet
  facet normal 0 0 1
    outer loop
      vertex -27 22.5 2
      vertex -26 22.5 2
      vertex -27 29 2
    endloop
  endfacet
  facet normal 0 0 1
    outer loop
      vertex -36.5 21.5 2
      vertex -26 22.5 2
      vertex -27 22.5 2
    endloop
  endfacet
  facet normal 0 0 1
    outer loop
      vertex -36.5 21.5 2
      vertex -27 22.5 2
      vertex -36 22.5 2
    endloop
  endfacet
  facet normal 0 0 1
    outer loop
      vertex -26 22.5 2
      vertex -36.5 21.5 2
      vertex -8.5 21.5 2
    endloop
  endfacet
  facet normal -0 0 1
    outer loop
      vertex -21.625 46.9845 2
      vertex -20.5 45 2
      vertex -20.75 48.5 2
    endloop
  endfacet
  facet normal -0 0 1
    outer loop
      vertex -23.375 46.9845 2
      vertex -20.5 45 2
      vertex -21.625 46.9845 2
    endloop
  endfacet
  facet normal 0 0 1
    outer loop
      vertex -23.375 46.9845 2
      vertex -24.5 45 2
      vertex -20.5 45 2
    endloop
  endfacet
  facet normal 0 0 1
    outer loop
      vertex -24.5 45 2
      vertex -23.375 46.9845 2
      vertex -24.25 48.5 2
    endloop
  endfacet
  facet normal 1 -0 0
    outer loop
      vertex -5 -53 2
      vertex -5 53 0
      vertex -5 53 2
    endloop
  endfacet
  facet normal 1 0 0
    outer loop
      vertex -5 53 0
      vertex -5 -53 2
      vertex -5 -53 0
    endloop
  endfacet
  facet normal 0 0 -1
    outer loop
      vertex -39 -13 0
      vertex -37 13.5 0
      vertex -37 -13 0
    endloop
  endfacet
  facet normal -0 0 -1
    outer loop
      vertex -37 13.5 0
      vertex -39 -13 0
      vertex -39 13.5 0
    endloop
  endfacet
  facet normal 0 0 -1
    outer loop
      vertex -15.5 46.5 0
      vertex -21.625 46.9845 0
      vertex -20.75 48.5 0
    endloop
  endfacet
  facet normal 0 0 -1
    outer loop
      vertex -15.5 46.5 0
      vertex -23.375 46.9845 0
      vertex -21.625 46.9845 0
    endloop
  endfacet
  facet normal -0 0 -1
    outer loop
      vertex -23.375 46.9845 0
      vertex -29.5 46.5 0
      vertex -24.25 48.5 0
    endloop
  endfacet
  facet normal 0 0 -1
    outer loop
      vertex -29.5 46.5 0
      vertex -23.375 46.9845 0
      vertex -15.5 46.5 0
    endloop
  endfacet
  facet normal 0 0 -1
    outer loop
      vertex -20.7322 27.7678 0
      vertex -8 23.5 0
      vertex -20 26 0
    endloop
  endfacet
  facet normal 0 0 -1
    outer loop
      vertex -8.5 21.5 0
      vertex -20.7322 24.2322 0
      vertex -20 26 0
    endloop
  endfacet
  facet normal 0 0 -1
    outer loop
      vertex -8.5 21.5 0
      vertex -22.5 23.5 0
      vertex -20.7322 24.2322 0
    endloop
  endfacet
  facet normal -0 0 -1
    outer loop
      vertex -24.2678 27.7678 0
      vertex -37 23.5 0
      vertex -29.5 38.5 0
    endloop
  endfacet
  facet normal 0 0 -1
    outer loop
      vertex -37 23.5 0
      vertex -25 26 0
      vertex -36.5 21.5 0
    endloop
  endfacet
  facet normal -0 0 -1
    outer loop
      vertex -24.2678 24.2322 0
      vertex -36.5 21.5 0
      vertex -25 26 0
    endloop
  endfacet
  facet normal -0 0 -1
    outer loop
      vertex -22.5 23.5 0
      vertex -36.5 21.5 0
      vertex -24.2678 24.2322 0
    endloop
  endfacet
  facet normal 0 0 -1
    outer loop
      vertex -36.5 21.5 0
      vertex -22.5 23.5 0
      vertex -8.5 21.5 0
    endloop
  endfacet
  facet normal 0 0 -1
    outer loop
      vertex -8 -16 0
      vertex -6 13.5 0
      vertex -6 -16 0
    endloop
  endfacet
  facet normal -0 0 -1
    outer loop
      vertex -6 13.5 0
      vertex -8 -16 0
      vertex -8 13.5 0
    endloop
  endfacet
  facet normal 0 0 -1
    outer loop
      vertex -6 -16 0
      vertex -5 -53 0
      vertex -6 -26 0
    endloop
  endfacet
  facet normal 0 0 -1
    outer loop
      vertex -8.5 -32 0
      vertex -6 -26 0
      vertex -5 -53 0
    endloop
  endfacet
  facet normal 0 0 -1
    outer loop
      vertex -8.5 -32 0
      vertex -8 -16 0
      vertex -8 -26 0
    endloop
  endfacet
  facet normal 0 0 -1
    outer loop
      vertex -8.5 21.5 0
      vertex -8 -16 0
      vertex -8.5 -32 0
    endloop
  endfacet
  facet normal 0 0 -1
    outer loop
      vertex -8 -16 0
      vertex -8.5 21.5 0
      vertex -8 13.5 0
    endloop
  endfacet
  facet normal -0 0 -1
    outer loop
      vertex -6 -26 0
      vertex -8.5 -32 0
      vertex -8 -26 0
    endloop
  endfacet
  facet normal 0 0 -1
    outer loop
      vertex -15.5 -38.5 0
      vertex -5 -53 0
      vertex -15.5 -46.5 0
    endloop
  endfacet
  facet normal 0 0 -1
    outer loop
      vertex -21.625 -50.0155 0
      vertex -15.5 -46.5 0
      vertex -5 -53 0
    endloop
  endfacet
  facet normal 0 0 -1
    outer loop
      vertex -15.5 -46.5 0
      vertex -21.625 -50.0155 0
      vertex -20.75 -48.5 0
    endloop
  endfacet
  facet normal 0 0 -1
    outer loop
      vertex -5 -53 0
      vertex -23.375 -50.0155 0
      vertex -21.625 -50.0155 0
    endloop
  endfacet
  facet normal 0 0 -1
    outer loop
      vertex -23.375 -50.0155 0
      vertex -29.5 -46.5 0
      vertex -24.25 -48.5 0
    endloop
  endfacet
  facet normal 0 0 -1
    outer loop
      vertex -40 -53 0
      vertex -29.5 -38.5 0
      vertex -29.5 -46.5 0
    endloop
  endfacet
  facet normal 0 0 -1
    outer loop
      vertex -37 -13 0
      vertex -36.5 -32 0
      vertex -37 -23 0
    endloop
  endfacet
  facet normal 0 0 -1
    outer loop
      vertex -36.5 -32 0
      vertex -39 -23 0
      vertex -37 -23 0
    endloop
  endfacet
  facet normal 0 0 -1
    outer loop
      vertex -40 -53 0
      vertex -39 -13 0
      vertex -39 -23 0
    endloop
  endfacet
  facet normal -0 0 -1
    outer loop
      vertex -39 -13 0
      vertex -40 -53 0
      vertex -39 13.5 0
    endloop
  endfacet
  facet normal 0 0 -1
    outer loop
      vertex -40 53 0
      vertex -39 13.5 0
      vertex -40 -53 0
    endloop
  endfacet
  facet normal -0 0 -1
    outer loop
      vertex -36.5 -32 0
      vertex -40 -53 0
      vertex -39 -23 0
    endloop
  endfacet
  facet normal -0 0 -1
    outer loop
      vertex -29.5 -38.5 0
      vertex -40 -53 0
      vertex -36.5 -32 0
    endloop
  endfacet
  facet normal -0 0 -1
    outer loop
      vertex -23.375 -50.0155 0
      vertex -40 -53 0
      vertex -29.5 -46.5 0
    endloop
  endfacet
  facet normal 0 0 -1
    outer loop
      vertex -40 -53 0
      vertex -23.375 -50.0155 0
      vertex -5 -53 0
    endloop
  endfacet
  facet normal 0 0 -1
    outer loop
      vertex -5 -53 0
      vertex -6 -16 0
      vertex -5 53 0
    endloop
  endfacet
  facet normal 0 0 -1
    outer loop
      vertex -6 13.5 0
      vertex -5 53 0
      vertex -6 -16 0
    endloop
  endfacet
  facet normal 0 0 -1
    outer loop
      vertex -6 23.5 0
      vertex -5 53 0
      vertex -6 13.5 0
    endloop
  endfacet
  facet normal 0 0 -1
    outer loop
      vertex -15.5 38.5 0
      vertex -6 23.5 0
      vertex -8 23.5 0
    endloop
  endfacet
  facet normal 0 0 -1
    outer loop
      vertex -8 13.5 0
      vertex -8.5 21.5 0
      vertex -8 23.5 0
    endloop
  endfacet
  facet normal 0 0 -1
    outer loop
      vertex -20 26 0
      vertex -8 23.5 0
      vertex -8.5 21.5 0
    endloop
  endfacet
  facet normal 0 0 -1
    outer loop
      vertex -6 23.5 0
      vertex -15.5 38.5 0
      vertex -5 53 0
    endloop
  endfacet
  facet normal 0 0 -1
    outer loop
      vertex -15.5 46.5 0
      vertex -5 53 0
      vertex -15.5 38.5 0
    endloop
  endfacet
  facet normal 0 0 -1
    outer loop
      vertex -21.625 50.0155 0
      vertex -15.5 46.5 0
      vertex -20.75 48.5 0
    endloop
  endfacet
  facet normal 0 0 -1
    outer loop
      vertex -15.5 46.5 0
      vertex -21.625 50.0155 0
      vertex -5 53 0
    endloop
  endfacet
  facet normal 0 0 -1
    outer loop
      vertex -23.375 50.0155 0
      vertex -5 53 0
      vertex -21.625 50.0155 0
    endloop
  endfacet
  facet normal 0 0 -1
    outer loop
      vertex -29.5 46.5 0
      vertex -23.375 50.0155 0
      vertex -24.25 48.5 0
    endloop
  endfacet
  facet normal 0 0 -1
    outer loop
      vertex -36.5 -32 0
      vertex -37 -13 0
      vertex -36.5 21.5 0
    endloop
  endfacet
  facet normal 0 0 -1
    outer loop
      vertex -37 13.5 0
      vertex -36.5 21.5 0
      vertex -37 -13 0
    endloop
  endfacet
  facet normal 0 0 -1
    outer loop
      vertex -37 23.5 0
      vertex -36.5 21.5 0
      vertex -37 13.5 0
    endloop
  endfacet
  facet normal 0 0 -1
    outer loop
      vertex -39 23.5 0
      vertex -29.5 38.5 0
      vertex -37 23.5 0
    endloop
  endfacet
  facet normal 0 0 -1
    outer loop
      vertex -40 53 0
      vertex -29.5 38.5 0
      vertex -39 23.5 0
    endloop
  endfacet
  facet normal 0 0 -1
    outer loop
      vertex -23.375 50.0155 0
      vertex -40 53 0
      vertex -5 53 0
    endloop
  endfacet
  facet normal 0 0 -1
    outer loop
      vertex -29.5 46.5 0
      vertex -40 53 0
      vertex -23.375 50.0155 0
    endloop
  endfacet
  facet normal 0 0 -1
    outer loop
      vertex -29.5 38.5 0
      vertex -40 53 0
      vertex -29.5 46.5 0
    endloop
  endfacet
  facet normal 0 0 -1
    outer loop
      vertex -39 13.5 0
      vertex -40 53 0
      vertex -39 23.5 0
    endloop
  endfacet
  facet normal 0 0 -1
    outer loop
      vertex -5 -53 0
      vertex -15.5 -38.5 0
      vertex -8.5 -32 0
    endloop
  endfacet
  facet normal 0 0 -1
    outer loop
      vertex -29.5 -38.5 0
      vertex -8.5 -32 0
      vertex -15.5 -38.5 0
    endloop
  endfacet
  facet normal -0 0 -1
    outer loop
      vertex -8.5 -32 0
      vertex -29.5 -38.5 0
      vertex -36.5 -32 0
    endloop
  endfacet
  facet normal 0 0 -1
    outer loop
      vertex -8 23.5 0
      vertex -20.7322 27.7678 0
      vertex -15.5 38.5 0
    endloop
  endfacet
  facet normal 0 0 -1
    outer loop
      vertex -22.5 28.5 0
      vertex -15.5 38.5 0
      vertex -20.7322 27.7678 0
    endloop
  endfacet
  facet normal 0 0 -1
    outer loop
      vertex -29.5 38.5 0
      vertex -22.5 28.5 0
      vertex -24.2678 27.7678 0
    endloop
  endfacet
  facet normal 0 0 -1
    outer loop
      vertex -22.5 28.5 0
      vertex -29.5 38.5 0
      vertex -15.5 38.5 0
    endloop
  endfacet
  facet normal 0 0 -1
    outer loop
      vertex -37 23.5 0
      vertex -24.2678 27.7678 0
      vertex -25 26 0
    endloop
  endfacet
  facet normal 0 0 -1
    outer loop
      vertex -21.625 -46.9845 0
      vertex -15.5 -46.5 0
      vertex -20.75 -48.5 0
    endloop
  endfacet
  facet normal 0 0 -1
    outer loop
      vertex -23.375 -46.9845 0
      vertex -15.5 -46.5 0
      vertex -21.625 -46.9845 0
    endloop
  endfacet
  facet normal 0 0 -1
    outer loop
      vertex -23.375 -46.9845 0
      vertex -29.5 -46.5 0
      vertex -15.5 -46.5 0
    endloop
  endfacet
  facet normal 0 0 -1
    outer loop
      vertex -29.5 -46.5 0
      vertex -23.375 -46.9845 0
      vertex -24.25 -48.5 0
    endloop
  endfacet
  facet normal 0 -1 0
    outer loop
      vertex -40 -53 0
      vertex -5 -53 2
      vertex -40 -53 2
    endloop
  endfacet
  facet normal 0 -1 -0
    outer loop
      vertex -5 -53 2
      vertex -40 -53 0
      vertex -5 -53 0
    endloop
  endfacet
  facet normal 0 1 -0
    outer loop
      vertex -5 53 0
      vertex -40 53 2
      vertex -5 53 2
    endloop
  endfacet
  facet normal 0 1 0
    outer loop
      vertex -40 53 2
      vertex -5 53 0
      vertex -40 53 0
    endloop
  endfacet
  facet normal 1 -0 0
    outer loop
      vertex -39 -23 2
      vertex -39 -13 0
      vertex -39 -13 2
    endloop
  endfacet
  facet normal 1 0 0
    outer loop
      vertex -39 -13 0
      vertex -39 -23 2
      vertex -39 -23 0
    endloop
  endfacet
  facet normal -1 0 0
    outer loop
      vertex -37 -23 0
      vertex -37 -13 2
      vertex -37 -13 0
    endloop
  endfacet
  facet normal -1 -0 0
    outer loop
      vertex -37 -13 2
      vertex -37 -23 0
      vertex -37 -23 2
    endloop
  endfacet
  facet normal 0 1 -0
    outer loop
      vertex -37 -23 0
      vertex -39 -23 2
      vertex -37 -23 2
    endloop
  endfacet
  facet normal 0 1 0
    outer loop
      vertex -39 -23 2
      vertex -37 -23 0
      vertex -39 -23 0
    endloop
  endfacet
  facet normal 0 -1 0
    outer loop
      vertex -39 -13 0
      vertex -37 -13 2
      vertex -39 -13 2
    endloop
  endfacet
  facet normal 0 -1 -0
    outer loop
      vertex -37 -13 2
      vertex -39 -13 0
      vertex -37 -13 0
    endloop
  endfacet
  facet normal 1 -0 0
    outer loop
      vertex -39 13.5 2
      vertex -39 23.5 0
      vertex -39 23.5 2
    endloop
  endfacet
  facet normal 1 0 0
    outer loop
      vertex -39 23.5 0
      vertex -39 13.5 2
      vertex -39 13.5 0
    endloop
  endfacet
  facet normal -1 0 0
    outer loop
      vertex -37 13.5 0
      vertex -37 23.5 2
      vertex -37 23.5 0
    endloop
  endfacet
  facet normal -1 -0 0
    outer loop
      vertex -37 23.5 2
      vertex -37 13.5 0
      vertex -37 13.5 2
    endloop
  endfacet
  facet normal 0 1 -0
    outer loop
      vertex -37 13.5 0
      vertex -39 13.5 2
      vertex -37 13.5 2
    endloop
  endfacet
  facet normal 0 1 0
    outer loop
      vertex -39 13.5 2
      vertex -37 13.5 0
      vertex -39 13.5 0
    endloop
  endfacet
  facet normal 0 -1 0
    outer loop
      vertex -39 23.5 0
      vertex -37 23.5 2
      vertex -39 23.5 2
    endloop
  endfacet
  facet normal 0 -1 -0
    outer loop
      vertex -37 23.5 2
      vertex -39 23.5 0
      vertex -37 23.5 0
    endloop
  endfacet
  facet normal 1 -0 0
    outer loop
      vertex -8 -26 2
      vertex -8 -16 0
      vertex -8 -16 2
    endloop
  endfacet
  facet normal 1 0 0
    outer loop
      vertex -8 -16 0
      vertex -8 -26 2
      vertex -8 -26 0
    endloop
  endfacet
  facet normal -1 0 0
    outer loop
      vertex -6 -26 0
      vertex -6 -16 2
      vertex -6 -16 0
    endloop
  endfacet
  facet normal -1 -0 0
    outer loop
      vertex -6 -16 2
      vertex -6 -26 0
      vertex -6 -26 2
    endloop
  endfacet
  facet normal 0 1 -0
    outer loop
      vertex -6 -26 0
      vertex -8 -26 2
      vertex -6 -26 2
    endloop
  endfacet
  facet normal 0 1 0
    outer loop
      vertex -8 -26 2
      vertex -6 -26 0
      vertex -8 -26 0
    endloop
  endfacet
  facet normal 0 -1 0
    outer loop
      vertex -8 -16 0
      vertex -6 -16 2
      vertex -8 -16 2
    endloop
  endfacet
  facet normal 0 -1 -0
    outer loop
      vertex -6 -16 2
      vertex -8 -16 0
      vertex -6 -16 0
    endloop
  endfacet
  facet normal 1 -0 0
    outer loop
      vertex -8 13.5 2
      vertex -8 23.5 0
      vertex -8 23.5 2
    endloop
  endfacet
  facet normal 1 0 0
    outer loop
      vertex -8 23.5 0
      vertex -8 13.5 2
      vertex -8 13.5 0
    endloop
  endfacet
  facet normal -1 0 0
    outer loop
      vertex -6 13.5 0
      vertex -6 23.5 2
      vertex -6 23.5 0
    endloop
  endfacet
  facet normal -1 -0 0
    outer loop
      vertex -6 23.5 2
      vertex -6 13.5 0
      vertex -6 13.5 2
    endloop
  endfacet
  facet normal 0 1 -0
    outer loop
      vertex -6 13.5 0
      vertex -8 13.5 2
      vertex -6 13.5 2
    endloop
  endfacet
  facet normal 0 1 0
    outer loop
      vertex -8 13.5 2
      vertex -6 13.5 0
      vertex -8 13.5 0
    endloop
  endfacet
  facet normal 0 -1 0
    outer loop
      vertex -8 23.5 0
      vertex -6 23.5 2
      vertex -8 23.5 2
    endloop
  endfacet
  facet normal 0 -1 -0
    outer loop
      vertex -6 23.5 2
      vertex -8 23.5 0
      vertex -6 23.5 0
    endloop
  endfacet
  facet normal 1 -0 0
    outer loop
      vertex -36.5 -32 2
      vertex -36.5 21.5 0
      vertex -36.5 21.5 2
    endloop
  endfacet
  facet normal 1 0 0
    outer loop
      vertex -36.5 21.5 0
      vertex -36.5 -32 2
      vertex -36.5 -32 0
    endloop
  endfacet
  facet normal -1 0 0
    outer loop
      vertex -8.5 -32 0
      vertex -8.5 21.5 2
      vertex -8.5 21.5 0
    endloop
  endfacet
  facet normal -1 -0 0
    outer loop
      vertex -8.5 21.5 2
      vertex -8.5 -32 0
      vertex -8.5 -32 2
    endloop
  endfacet
  facet normal 0 -1 0
    outer loop
      vertex -36.5 21.5 0
      vertex -8.5 21.5 2
      vertex -36.5 21.5 2
    endloop
  endfacet
  facet normal 0 -1 -0
    outer loop
      vertex -8.5 21.5 2
      vertex -36.5 21.5 0
      vertex -8.5 21.5 0
    endloop
  endfacet
  facet normal 0 1 -0
    outer loop
      vertex -8.5 -32 0
      vertex -36.5 -32 2
      vertex -8.5 -32 2
    endloop
  endfacet
  facet normal 0 1 0
    outer loop
      vertex -36.5 -32 2
      vertex -8.5 -32 0
      vertex -36.5 -32 0
    endloop
  endfacet
  facet normal 1 -0 0
    outer loop
      vertex -26 22.5 2
      vertex -26 29.5 1
      vertex -26 29.5 2
    endloop
  endfacet
  facet normal 1 0 0
    outer loop
      vertex -26 29.5 1
      vertex -26 22.5 2
      vertex -26 22.5 1
    endloop
  endfacet
  facet normal -1 0 0
    outer loop
      vertex -19 22.5 1
      vertex -19 29.5 2
      vertex -19 29.5 1
    endloop
  endfacet
  facet normal -1 -0 0
    outer loop
      vertex -19 29.5 2
      vertex -19 22.5 1
      vertex -19 22.5 2
    endloop
  endfacet
  facet normal 0 -1 0
    outer loop
      vertex -26 29.5 1
      vertex -19 29.5 2
      vertex -26 29.5 2
    endloop
  endfacet
  facet normal 0 -1 -0
    outer loop
      vertex -19 29.5 2
      vertex -26 29.5 1
      vertex -19 29.5 1
    endloop
  endfacet
  facet normal 0 0 1
    outer loop
      vertex -19 29.5 1
      vertex -20 26 1
      vertex -19 22.5 1
    endloop
  endfacet
  facet normal 0 0 1
    outer loop
      vertex -19 29.5 1
      vertex -20.7322 27.7678 1
      vertex -20 26 1
    endloop
  endfacet
  facet normal 0 0 1
    outer loop
      vertex -19 29.5 1
      vertex -22.5 28.5 1
      vertex -20.7322 27.7678 1
    endloop
  endfacet
  facet normal 0 0 1
    outer loop
      vertex -24.2678 27.7678 1
      vertex -26 29.5 1
      vertex -25 26 1
    endloop
  endfacet
  facet normal 0 0 1
    outer loop
      vertex -22.5 28.5 1
      vertex -26 29.5 1
      vertex -24.2678 27.7678 1
    endloop
  endfacet
  facet normal -0 0 1
    outer loop
      vertex -26 29.5 1
      vertex -22.5 28.5 1
      vertex -19 29.5 1
    endloop
  endfacet
  facet normal -0 0 1
    outer loop
      vertex -20.7322 24.2322 1
      vertex -19 22.5 1
      vertex -20 26 1
    endloop
  endfacet
  facet normal -0 0 1
    outer loop
      vertex -22.5 23.5 1
      vertex -19 22.5 1
      vertex -20.7322 24.2322 1
    endloop
  endfacet
  facet normal 0 0 1
    outer loop
      vertex -22.5 23.5 1
      vertex -26 22.5 1
      vertex -19 22.5 1
    endloop
  endfacet
  facet normal 0 0 1
    outer loop
      vertex -24.2678 24.2322 1
      vertex -26 22.5 1
      vertex -22.5 23.5 1
    endloop
  endfacet
  facet normal 0 0 1
    outer loop
      vertex -25 26 1
      vertex -26 22.5 1
      vertex -24.2678 24.2322 1
    endloop
  endfacet
  facet normal 0 0 1
    outer loop
      vertex -26 22.5 1
      vertex -25 26 1
      vertex -26 29.5 1
    endloop
  endfacet
  facet normal 0 1 -0
    outer loop
      vertex -19 22.5 1
      vertex -26 22.5 2
      vertex -19 22.5 2
    endloop
  endfacet
  facet normal 0 1 0
    outer loop
      vertex -26 22.5 2
      vertex -19 22.5 1
      vertex -26 22.5 1
    endloop
  endfacet
  facet normal -0.92388 -0.382683 0
    outer loop
      vertex -20 26 0
      vertex -20.7322 27.7678 1
      vertex -20.7322 27.7678 0
    endloop
  endfacet
  facet normal -0.92388 -0.382683 0
    outer loop
      vertex -20.7322 27.7678 1
      vertex -20 26 0
      vertex -20 26 1
    endloop
  endfacet
  facet normal 0.382683 -0.92388 0
    outer loop
      vertex -24.2678 27.7678 0
      vertex -22.5 28.5 1
      vertex -24.2678 27.7678 1
    endloop
  endfacet
  facet normal 0.382683 -0.92388 0
    outer loop
      vertex -22.5 28.5 1
      vertex -24.2678 27.7678 0
      vertex -22.5 28.5 0
    endloop
  endfacet
  facet normal -0.382683 -0.92388 0
    outer loop
      vertex -22.5 28.5 0
      vertex -20.7322 27.7678 1
      vertex -22.5 28.5 1
    endloop
  endfacet
  facet normal -0.382683 -0.92388 -0
    outer loop
      vertex -20.7322 27.7678 1
      vertex -22.5 28.5 0
      vertex -20.7322 27.7678 0
    endloop
  endfacet
  facet normal 0.92388 -0.382683 0
    outer loop
      vertex -25 26 1
      vertex -24.2678 27.7678 0
      vertex -24.2678 27.7678 1
    endloop
  endfacet
  facet normal 0.92388 -0.382683 0
    outer loop
      vertex -24.2678 27.7678 0
      vertex -25 26 1
      vertex -25 26 0
    endloop
  endfacet
  facet normal -0.92388 0.382683 0
    outer loop
      vertex -20.7322 24.2322 0
      vertex -20 26 1
      vertex -20 26 0
    endloop
  endfacet
  facet normal -0.92388 0.382683 0
    outer loop
      vertex -20 26 1
      vertex -20.7322 24.2322 0
      vertex -20.7322 24.2322 1
    endloop
  endfacet
  facet normal 0.382682 0.92388 -0
    outer loop
      vertex -22.5 23.5 0
      vertex -24.2678 24.2322 1
      vertex -22.5 23.5 1
    endloop
  endfacet
  facet normal 0.382682 0.92388 0
    outer loop
      vertex -24.2678 24.2322 1
      vertex -22.5 23.5 0
      vertex -24.2678 24.2322 0
    endloop
  endfacet
  facet normal 0.92388 0.382682 0
    outer loop
      vertex -24.2678 24.2322 1
      vertex -25 26 0
      vertex -25 26 1
    endloop
  endfacet
  facet normal 0.92388 0.382682 0
    outer loop
      vertex -25 26 0
      vertex -24.2678 24.2322 1
      vertex -24.2678 24.2322 0
    endloop
  endfacet
  facet normal -0.382683 0.92388 0
    outer loop
      vertex -20.7322 24.2322 0
      vertex -22.5 23.5 1
      vertex -20.7322 24.2322 1
    endloop
  endfacet
  facet normal -0.382683 0.92388 0
    outer loop
      vertex -22.5 23.5 1
      vertex -20.7322 24.2322 0
      vertex -22.5 23.5 0
    endloop
  endfacet
  facet normal 0.382682 -0.92388 0
    outer loop
      vertex -26.2678 -40.7322 1
      vertex -24.5 -40 2
      vertex -26.2678 -40.7322 2
    endloop
  endfacet
  facet normal 0.382682 -0.92388 0
    outer loop
      vertex -24.5 -40 2
      vertex -26.2678 -40.7322 1
      vertex -24.5 -40 1
    endloop
  endfacet
  facet normal 0.92388 -0.382682 0
    outer loop
      vertex -27 -42.5 2
      vertex -26.2678 -40.7322 1
      vertex -26.2678 -40.7322 2
    endloop
  endfacet
  facet normal 0.92388 -0.382682 0
    outer loop
      vertex -26.2678 -40.7322 1
      vertex -27 -42.5 2
      vertex -27 -42.5 1
    endloop
  endfacet
  facet normal 0.382682 0.92388 -0
    outer loop
      vertex -24.5 -45 1
      vertex -26.2678 -44.2678 2
      vertex -24.5 -45 2
    endloop
  endfacet
  facet normal 0.382682 0.92388 0
    outer loop
      vertex -26.2678 -44.2678 2
      vertex -24.5 -45 1
      vertex -26.2678 -44.2678 1
    endloop
  endfacet
  facet normal 0.92388 0.382682 0
    outer loop
      vertex -26.2678 -44.2678 2
      vertex -27 -42.5 1
      vertex -27 -42.5 2
    endloop
  endfacet
  facet normal 0.92388 0.382682 0
    outer loop
      vertex -27 -42.5 1
      vertex -26.2678 -44.2678 2
      vertex -26.2678 -44.2678 1
    endloop
  endfacet
  facet normal -0.92388 -0.382683 0
    outer loop
      vertex -18 -42.5 1
      vertex -18.7322 -40.7322 2
      vertex -18.7322 -40.7322 1
    endloop
  endfacet
  facet normal -0.92388 -0.382683 0
    outer loop
      vertex -18.7322 -40.7322 2
      vertex -18 -42.5 1
      vertex -18 -42.5 2
    endloop
  endfacet
  facet normal -0.382683 -0.92388 0
    outer loop
      vertex -20.5 -40 1
      vertex -18.7322 -40.7322 2
      vertex -20.5 -40 2
    endloop
  endfacet
  facet normal -0.382683 -0.92388 -0
    outer loop
      vertex -18.7322 -40.7322 2
      vertex -20.5 -40 1
      vertex -18.7322 -40.7322 1
    endloop
  endfacet
  facet normal -0.92388 0.382683 0
    outer loop
      vertex -18.7322 -44.2678 1
      vertex -18 -42.5 2
      vertex -18 -42.5 1
    endloop
  endfacet
  facet normal -0.92388 0.382683 0
    outer loop
      vertex -18 -42.5 2
      vertex -18.7322 -44.2678 1
      vertex -18.7322 -44.2678 2
    endloop
  endfacet
  facet normal -0.382683 0.92388 0
    outer loop
      vertex -18.7322 -44.2678 1
      vertex -20.5 -45 2
      vertex -18.7322 -44.2678 2
    endloop
  endfacet
  facet normal -0.382683 0.92388 0
    outer loop
      vertex -20.5 -45 2
      vertex -18.7322 -44.2678 1
      vertex -20.5 -45 1
    endloop
  endfacet
  facet normal 0 1 -0
    outer loop
      vertex -20.5 -45 1
      vertex -24.5 -45 2
      vertex -20.5 -45 2
    endloop
  endfacet
  facet normal 0 1 0
    outer loop
      vertex -24.5 -45 2
      vertex -20.5 -45 1
      vertex -24.5 -45 1
    endloop
  endfacet
  facet normal 0 -1 0
    outer loop
      vertex -24.5 -40 1
      vertex -20.5 -40 2
      vertex -24.5 -40 2
    endloop
  endfacet
  facet normal 0 -1 -0
    outer loop
      vertex -20.5 -40 2
      vertex -24.5 -40 1
      vertex -20.5 -40 1
    endloop
  endfacet
  facet normal 1 -0 0
    outer loop
      vertex -29.5 -46.5 1
      vertex -29.5 -38.5 0
      vertex -29.5 -38.5 1
    endloop
  endfacet
  facet normal 1 0 0
    outer loop
      vertex -29.5 -38.5 0
      vertex -29.5 -46.5 1
      vertex -29.5 -46.5 0
    endloop
  endfacet
  facet normal 0 0 -1
    outer loop
      vertex -15.5 -46.5 1
      vertex -18 -42.5 1
      vertex -15.5 -38.5 1
    endloop
  endfacet
  facet normal 0 0 -1
    outer loop
      vertex -15.5 -46.5 1
      vertex -18.7322 -44.2678 1
      vertex -18 -42.5 1
    endloop
  endfacet
  facet normal 0 0 -1
    outer loop
      vertex -15.5 -46.5 1
      vertex -20.5 -45 1
      vertex -18.7322 -44.2678 1
    endloop
  endfacet
  facet normal 0 0 -1
    outer loop
      vertex -15.5 -46.5 1
      vertex -24.5 -45 1
      vertex -20.5 -45 1
    endloop
  endfacet
  facet normal -0 0 -1
    outer loop
      vertex -26.2678 -44.2678 1
      vertex -29.5 -46.5 1
      vertex -27 -42.5 1
    endloop
  endfacet
  facet normal -0 0 -1
    outer loop
      vertex -24.5 -45 1
      vertex -29.5 -46.5 1
      vertex -26.2678 -44.2678 1
    endloop
  endfacet
  facet normal 0 0 -1
    outer loop
      vertex -29.5 -46.5 1
      vertex -24.5 -45 1
      vertex -15.5 -46.5 1
    endloop
  endfacet
  facet normal 0 0 -1
    outer loop
      vertex -18.7322 -40.7322 1
      vertex -15.5 -38.5 1
      vertex -18 -42.5 1
    endloop
  endfacet
  facet normal 0 0 -1
    outer loop
      vertex -20.5 -40 1
      vertex -15.5 -38.5 1
      vertex -18.7322 -40.7322 1
    endloop
  endfacet
  facet normal 0 0 -1
    outer loop
      vertex -24.5 -40 1
      vertex -15.5 -38.5 1
      vertex -20.5 -40 1
    endloop
  endfacet
  facet normal 0 0 -1
    outer loop
      vertex -29.5 -38.5 1
      vertex -27 -42.5 1
      vertex -29.5 -46.5 1
    endloop
  endfacet
  facet normal 0 0 -1
    outer loop
      vertex -24.5 -40 1
      vertex -29.5 -38.5 1
      vertex -15.5 -38.5 1
    endloop
  endfacet
  facet normal 0 0 -1
    outer loop
      vertex -26.2678 -40.7322 1
      vertex -29.5 -38.5 1
      vertex -24.5 -40 1
    endloop
  endfacet
  facet normal 0 0 -1
    outer loop
      vertex -27 -42.5 1
      vertex -29.5 -38.5 1
      vertex -26.2678 -40.7322 1
    endloop
  endfacet
  facet normal -1 0 0
    outer loop
      vertex -15.5 -46.5 0
      vertex -15.5 -38.5 1
      vertex -15.5 -38.5 0
    endloop
  endfacet
  facet normal -1 -0 0
    outer loop
      vertex -15.5 -38.5 1
      vertex -15.5 -46.5 0
      vertex -15.5 -46.5 1
    endloop
  endfacet
  facet normal 0 -1 0
    outer loop
      vertex -29.5 -38.5 0
      vertex -15.5 -38.5 1
      vertex -29.5 -38.5 1
    endloop
  endfacet
  facet normal 0 -1 -0
    outer loop
      vertex -15.5 -38.5 1
      vertex -29.5 -38.5 0
      vertex -15.5 -38.5 0
    endloop
  endfacet
  facet normal 0 1 -0
    outer loop
      vertex -15.5 -46.5 0
      vertex -29.5 -46.5 1
      vertex -15.5 -46.5 1
    endloop
  endfacet
  facet normal 0 1 0
    outer loop
      vertex -29.5 -46.5 1
      vertex -15.5 -46.5 0
      vertex -29.5 -46.5 0
    endloop
  endfacet
  facet normal 0.382682 -0.92388 0
    outer loop
      vertex -26.2678 44.2678 1
      vertex -24.5 45 2
      vertex -26.2678 44.2678 2
    endloop
  endfacet
  facet normal 0.382682 -0.92388 0
    outer loop
      vertex -24.5 45 2
      vertex -26.2678 44.2678 1
      vertex -24.5 45 1
    endloop
  endfacet
  facet normal 0.92388 -0.382682 0
    outer loop
      vertex -27 42.5 2
      vertex -26.2678 44.2678 1
      vertex -26.2678 44.2678 2
    endloop
  endfacet
  facet normal 0.92388 -0.382682 0
    outer loop
      vertex -26.2678 44.2678 1
      vertex -27 42.5 2
      vertex -27 42.5 1
    endloop
  endfacet
  facet normal 0.382682 0.92388 -0
    outer loop
      vertex -24.5 40 1
      vertex -26.2678 40.7322 2
      vertex -24.5 40 2
    endloop
  endfacet
  facet normal 0.382682 0.92388 0
    outer loop
      vertex -26.2678 40.7322 2
      vertex -24.5 40 1
      vertex -26.2678 40.7322 1
    endloop
  endfacet
  facet normal 0.92388 0.382682 0
    outer loop
      vertex -26.2678 40.7322 2
      vertex -27 42.5 1
      vertex -27 42.5 2
    endloop
  endfacet
  facet normal 0.92388 0.382682 0
    outer loop
      vertex -27 42.5 1
      vertex -26.2678 40.7322 2
      vertex -26.2678 40.7322 1
    endloop
  endfacet
  facet normal -0.92388 -0.382683 0
    outer loop
      vertex -18 42.5 1
      vertex -18.7322 44.2678 2
      vertex -18.7322 44.2678 1
    endloop
  endfacet
  facet normal -0.92388 -0.382683 0
    outer loop
      vertex -18.7322 44.2678 2
      vertex -18 42.5 1
      vertex -18 42.5 2
    endloop
  endfacet
  facet normal -0.382683 -0.92388 0
    outer loop
      vertex -20.5 45 1
      vertex -18.7322 44.2678 2
      vertex -20.5 45 2
    endloop
  endfacet
  facet normal -0.382683 -0.92388 -0
    outer loop
      vertex -18.7322 44.2678 2
      vertex -20.5 45 1
      vertex -18.7322 44.2678 1
    endloop
  endfacet
  facet normal -0.92388 0.382683 0
    outer loop
      vertex -18.7322 40.7322 1
      vertex -18 42.5 2
      vertex -18 42.5 1
    endloop
  endfacet
  facet normal -0.92388 0.382683 0
    outer loop
      vertex -18 42.5 2
      vertex -18.7322 40.7322 1
      vertex -18.7322 40.7322 2
    endloop
  endfacet
  facet normal -0.382683 0.92388 0
    outer loop
      vertex -18.7322 40.7322 1
      vertex -20.5 40 2
      vertex -18.7322 40.7322 2
    endloop
  endfacet
  facet normal -0.382683 0.92388 0
    outer loop
      vertex -20.5 40 2
      vertex -18.7322 40.7322 1
      vertex -20.5 40 1
    endloop
  endfacet
  facet normal 0 -1 0
    outer loop
      vertex -24.5 45 1
      vertex -20.5 45 2
      vertex -24.5 45 2
    endloop
  endfacet
  facet normal 0 -1 -0
    outer loop
      vertex -20.5 45 2
      vertex -24.5 45 1
      vertex -20.5 45 1
    endloop
  endfacet
  facet normal 0 1 -0
    outer loop
      vertex -20.5 40 1
      vertex -24.5 40 2
      vertex -20.5 40 2
    endloop
  endfacet
  facet normal 0 1 0
    outer loop
      vertex -24.5 40 2
      vertex -20.5 40 1
      vertex -24.5 40 1
    endloop
  endfacet
  facet normal 1 -0 0
    outer loop
      vertex -29.5 38.5 1
      vertex -29.5 46.5 0
      vertex -29.5 46.5 1
    endloop
  endfacet
  facet normal 1 0 0
    outer loop
      vertex -29.5 46.5 0
      vertex -29.5 38.5 1
      vertex -29.5 38.5 0
    endloop
  endfacet
  facet normal 0 0 -1
    outer loop
      vertex -15.5 38.5 1
      vertex -18 42.5 1
      vertex -15.5 46.5 1
    endloop
  endfacet
  facet normal 0 0 -1
    outer loop
      vertex -15.5 38.5 1
      vertex -18.7322 40.7322 1
      vertex -18 42.5 1
    endloop
  endfacet
  facet normal 0 0 -1
    outer loop
      vertex -15.5 38.5 1
      vertex -20.5 40 1
      vertex -18.7322 40.7322 1
    endloop
  endfacet
  facet normal 0 0 -1
    outer loop
      vertex -15.5 38.5 1
      vertex -24.5 40 1
      vertex -20.5 40 1
    endloop
  endfacet
  facet normal -0 0 -1
    outer loop
      vertex -26.2678 40.7322 1
      vertex -29.5 38.5 1
      vertex -27 42.5 1
    endloop
  endfacet
  facet normal -0 0 -1
    outer loop
      vertex -24.5 40 1
      vertex -29.5 38.5 1
      vertex -26.2678 40.7322 1
    endloop
  endfacet
  facet normal 0 0 -1
    outer loop
      vertex -29.5 38.5 1
      vertex -24.5 40 1
      vertex -15.5 38.5 1
    endloop
  endfacet
  facet normal 0 0 -1
    outer loop
      vertex -18.7322 44.2678 1
      vertex -15.5 46.5 1
      vertex -18 42.5 1
    endloop
  endfacet
  facet normal 0 0 -1
    outer loop
      vertex -20.5 45 1
      vertex -15.5 46.5 1
      vertex -18.7322 44.2678 1
    endloop
  endfacet
  facet normal 0 0 -1
    outer loop
      vertex -24.5 45 1
      vertex -15.5 46.5 1
      vertex -20.5 45 1
    endloop
  endfacet
  facet normal 0 0 -1
    outer loop
      vertex -29.5 46.5 1
      vertex -27 42.5 1
      vertex -29.5 38.5 1
    endloop
  endfacet
  facet normal 0 0 -1
    outer loop
      vertex -24.5 45 1
      vertex -29.5 46.5 1
      vertex -15.5 46.5 1
    endloop
  endfacet
  facet normal 0 0 -1
    outer loop
      vertex -26.2678 44.2678 1
      vertex -29.5 46.5 1
      vertex -24.5 45 1
    endloop
  endfacet
  facet normal 0 0 -1
    outer loop
      vertex -27 42.5 1
      vertex -29.5 46.5 1
      vertex -26.2678 44.2678 1
    endloop
  endfacet
  facet normal -1 0 0
    outer loop
      vertex -15.5 38.5 0
      vertex -15.5 46.5 1
      vertex -15.5 46.5 0
    endloop
  endfacet
  facet normal -1 -0 0
    outer loop
      vertex -15.5 46.5 1
      vertex -15.5 38.5 0
      vertex -15.5 38.5 1
    endloop
  endfacet
  facet normal 0 -1 0
    outer loop
      vertex -29.5 46.5 0
      vertex -15.5 46.5 1
      vertex -29.5 46.5 1
    endloop
  endfacet
  facet normal 0 -1 -0
    outer loop
      vertex -15.5 46.5 1
      vertex -29.5 46.5 0
      vertex -15.5 46.5 0
    endloop
  endfacet
  facet normal 0 1 -0
    outer loop
      vertex -15.5 38.5 0
      vertex -29.5 38.5 1
      vertex -15.5 38.5 1
    endloop
  endfacet
  facet normal 0 1 0
    outer loop
      vertex -29.5 38.5 1
      vertex -15.5 38.5 0
      vertex -29.5 38.5 0
    endloop
  endfacet
  facet normal -0.866025 -0.5 0
    outer loop
      vertex -20.75 -48.5 0
      vertex -21.625 -46.9845 2
      vertex -21.625 -46.9845 0
    endloop
  endfacet
  facet normal -0.866025 -0.5 0
    outer loop
      vertex -21.625 -46.9845 2
      vertex -20.75 -48.5 0
      vertex -20.75 -48.5 2
    endloop
  endfacet
  facet normal 0 1 -0
    outer loop
      vertex -21.625 -50.0155 0
      vertex -23.375 -50.0155 2
      vertex -21.625 -50.0155 2
    endloop
  endfacet
  facet normal 0 1 0
    outer loop
      vertex -23.375 -50.0155 2
      vertex -21.625 -50.0155 0
      vertex -23.375 -50.0155 0
    endloop
  endfacet
  facet normal 0.866025 -0.5 0
    outer loop
      vertex -24.25 -48.5 2
      vertex -23.375 -46.9845 0
      vertex -23.375 -46.9845 2
    endloop
  endfacet
  facet normal 0.866025 -0.5 0
    outer loop
      vertex -23.375 -46.9845 0
      vertex -24.25 -48.5 2
      vertex -24.25 -48.5 0
    endloop
  endfacet
  facet normal 0 -1 0
    outer loop
      vertex -23.375 -46.9845 0
      vertex -21.625 -46.9845 2
      vertex -23.375 -46.9845 2
    endloop
  endfacet
  facet normal 0 -1 -0
    outer loop
      vertex -21.625 -46.9845 2
      vertex -23.375 -46.9845 0
      vertex -21.625 -46.9845 0
    endloop
  endfacet
  facet normal 0.866025 0.5 0
    outer loop
      vertex -23.375 -50.0155 2
      vertex -24.25 -48.5 0
      vertex -24.25 -48.5 2
    endloop
  endfacet
  facet normal 0.866025 0.5 0
    outer loop
      vertex -24.25 -48.5 0
      vertex -23.375 -50.0155 2
      vertex -23.375 -50.0155 0
    endloop
  endfacet
  facet normal -0.866025 0.5 0
    outer loop
      vertex -21.625 -50.0155 0
      vertex -20.75 -48.5 2
      vertex -20.75 -48.5 0
    endloop
  endfacet
  facet normal -0.866025 0.5 0
    outer loop
      vertex -20.75 -48.5 2
      vertex -21.625 -50.0155 0
      vertex -21.625 -50.0155 2
    endloop
  endfacet
  facet normal -0.866025 -0.5 0
    outer loop
      vertex -20.75 48.5 0
      vertex -21.625 50.0155 2
      vertex -21.625 50.0155 0
    endloop
  endfacet
  facet normal -0.866025 -0.5 0
    outer loop
      vertex -21.625 50.0155 2
      vertex -20.75 48.5 0
      vertex -20.75 48.5 2
    endloop
  endfacet
  facet normal 0 1 -0
    outer loop
      vertex -21.625 46.9845 0
      vertex -23.375 46.9845 2
      vertex -21.625 46.9845 2
    endloop
  endfacet
  facet normal 0 1 0
    outer loop
      vertex -23.375 46.9845 2
      vertex -21.625 46.9845 0
      vertex -23.375 46.9845 0
    endloop
  endfacet
  facet normal 0.866025 -0.5 0
    outer loop
      vertex -24.25 48.5 2
      vertex -23.375 50.0155 0
      vertex -23.375 50.0155 2
    endloop
  endfacet
  facet normal 0.866025 -0.5 0
    outer loop
      vertex -23.375 50.0155 0
      vertex -24.25 48.5 2
      vertex -24.25 48.5 0
    endloop
  endfacet
  facet normal 0 -1 0
    outer loop
      vertex -23.375 50.0155 0
      vertex -21.625 50.0155 2
      vertex -23.375 50.0155 2
    endloop
  endfacet
  facet normal 0 -1 -0
    outer loop
      vertex -21.625 50.0155 2
      vertex -23.375 50.0155 0
      vertex -21.625 50.0155 0
    endloop
  endfacet
  facet normal 0.866025 0.5 0
    outer loop
      vertex -23.375 46.9845 2
      vertex -24.25 48.5 0
      vertex -24.25 48.5 2
    endloop
  endfacet
  facet normal 0.866025 0.5 0
    outer loop
      vertex -24.25 48.5 0
      vertex -23.375 46.9845 2
      vertex -23.375 46.9845 0
    endloop
  endfacet
  facet normal -0.866025 0.5 0
    outer loop
      vertex -21.625 46.9845 0
      vertex -20.75 48.5 2
      vertex -20.75 48.5 0
    endloop
  endfacet
  facet normal -0.866025 0.5 0
    outer loop
      vertex -20.75 48.5 2
      vertex -21.625 46.9845 0
      vertex -21.625 46.9845 2
    endloop
  endfacet
  facet normal 1 -0 0
    outer loop
      vertex -39 39 2
      vertex -39 52 1
      vertex -39 52 2
    endloop
  endfacet
  facet normal 1 0 0
    outer loop
      vertex -39 52 1
      vertex -39 39 2
      vertex -39 39 1
    endloop
  endfacet
  facet normal -1 0 0
    outer loop
      vertex -31 39 1
      vertex -31 52 2
      vertex -31 52 1
    endloop
  endfacet
  facet normal -1 -0 0
    outer loop
      vertex -31 52 2
      vertex -31 39 1
      vertex -31 39 2
    endloop
  endfacet
  facet normal -0 0 1
    outer loop
      vertex -39 52 1
      vertex -31 39 1
      vertex -31 52 1
    endloop
  endfacet
  facet normal 0 0 1
    outer loop
      vertex -31 39 1
      vertex -39 52 1
      vertex -39 39 1
    endloop
  endfacet
  facet normal 0 1 -0
    outer loop
      vertex -31 39 1
      vertex -39 39 2
      vertex -31 39 2
    endloop
  endfacet
  facet normal 0 1 0
    outer loop
      vertex -39 39 2
      vertex -31 39 1
      vertex -39 39 1
    endloop
  endfacet
  facet normal 0 -1 0
    outer loop
      vertex -39 52 1
      vertex -31 52 2
      vertex -39 52 2
    endloop
  endfacet
  facet normal 0 -1 -0
    outer loop
      vertex -31 52 2
      vertex -39 52 1
      vertex -31 52 1
    endloop
  endfacet
  facet normal 1 -0 0
    outer loop
      vertex -14 39 2
      vertex -14 52 1
      vertex -14 52 2
    endloop
  endfacet
  facet normal 1 0 0
    outer loop
      vertex -14 52 1
      vertex -14 39 2
      vertex -14 39 1
    endloop
  endfacet
  facet normal -1 0 0
    outer loop
      vertex -6 39 1
      vertex -6 52 2
      vertex -6 52 1
    endloop
  endfacet
  facet normal -1 -0 0
    outer loop
      vertex -6 52 2
      vertex -6 39 1
      vertex -6 39 2
    endloop
  endfacet
  facet normal -0 0 1
    outer loop
      vertex -14 52 1
      vertex -6 39 1
      vertex -6 52 1
    endloop
  endfacet
  facet normal 0 0 1
    outer loop
      vertex -6 39 1
      vertex -14 52 1
      vertex -14 39 1
    endloop
  endfacet
  facet normal 0 1 -0
    outer loop
      vertex -6 39 1
      vertex -14 39 2
      vertex -6 39 2
    endloop
  endfacet
  facet normal 0 1 0
    outer loop
      vertex -14 39 2
      vertex -6 39 1
      vertex -14 39 1
    endloop
  endfacet
  facet normal 0 -1 0
    outer loop
      vertex -14 52 1
      vertex -6 52 2
      vertex -14 52 2
    endloop
  endfacet
  facet normal 0 -1 -0
    outer loop
      vertex -6 52 2
      vertex -14 52 1
      vertex -6 52 1
    endloop
  endfacet
  facet normal 1 -0 0
    outer loop
      vertex -39 30 2
      vertex -39 38 1
      vertex -39 38 2
    endloop
  endfacet
  facet normal 1 0 0
    outer loop
      vertex -39 38 1
      vertex -39 30 2
      vertex -39 30 1
    endloop
  endfacet
  facet normal -1 0 0
    outer loop
      vertex -6 30 1
      vertex -6 38 2
      vertex -6 38 1
    endloop
  endfacet
  facet normal -1 -0 0
    outer loop
      vertex -6 38 2
      vertex -6 30 1
      vertex -6 30 2
    endloop
  endfacet
  facet normal 0 -1 0
    outer loop
      vertex -39 38 1
      vertex -6 38 2
      vertex -39 38 2
    endloop
  endfacet
  facet normal 0 -1 -0
    outer loop
      vertex -6 38 2
      vertex -39 38 1
      vertex -6 38 1
    endloop
  endfacet
  facet normal -0 0 1
    outer loop
      vertex -39 38 1
      vertex -6 30 1
      vertex -6 38 1
    endloop
  endfacet
  facet normal 0 0 1
    outer loop
      vertex -6 30 1
      vertex -39 38 1
      vertex -39 30 1
    endloop
  endfacet
  facet normal 0 1 -0
    outer loop
      vertex -6 30 1
      vertex -39 30 2
      vertex -6 30 2
    endloop
  endfacet
  facet normal 0 1 0
    outer loop
      vertex -39 30 2
      vertex -6 30 1
      vertex -39 30 1
    endloop
  endfacet
  facet normal 1 -0 0
    outer loop
      vertex -36 22.5 2
      vertex -36 29 1
      vertex -36 29 2
    endloop
  endfacet
  facet normal 1 0 0
    outer loop
      vertex -36 29 1
      vertex -36 22.5 2
      vertex -36 22.5 1
    endloop
  endfacet
  facet normal -1 0 0
    outer loop
      vertex -27 22.5 1
      vertex -27 29 2
      vertex -27 29 1
    endloop
  endfacet
  facet normal -1 -0 0
    outer loop
      vertex -27 29 2
      vertex -27 22.5 1
      vertex -27 22.5 2
    endloop
  endfacet
  facet normal 0 -1 0
    outer loop
      vertex -36 29 1
      vertex -27 29 2
      vertex -36 29 2
    endloop
  endfacet
  facet normal 0 -1 -0
    outer loop
      vertex -27 29 2
      vertex -36 29 1
      vertex -27 29 1
    endloop
  endfacet
  facet normal -0 0 1
    outer loop
      vertex -36 29 1
      vertex -27 22.5 1
      vertex -27 29 1
    endloop
  endfacet
  facet normal 0 0 1
    outer loop
      vertex -27 22.5 1
      vertex -36 29 1
      vertex -36 22.5 1
    endloop
  endfacet
  facet normal 0 1 -0
    outer loop
      vertex -27 22.5 1
      vertex -36 22.5 2
      vertex -27 22.5 2
    endloop
  endfacet
  facet normal 0 1 0
    outer loop
      vertex -36 22.5 2
      vertex -27 22.5 1
      vertex -36 22.5 1
    endloop
  endfacet
  facet normal 1 -0 0
    outer loop
      vertex -18 22.5 2
      vertex -18 29 1
      vertex -18 29 2
    endloop
  endfacet
  facet normal 1 0 0
    outer loop
      vertex -18 29 1
      vertex -18 22.5 2
      vertex -18 22.5 1
    endloop
  endfacet
  facet normal -1 0 0
    outer loop
      vertex -9 22.5 1
      vertex -9 29 2
      vertex -9 29 1
    endloop
  endfacet
  facet normal -1 -0 0
    outer loop
      vertex -9 29 2
      vertex -9 22.5 1
      vertex -9 22.5 2
    endloop
  endfacet
  facet normal -0 0 1
    outer loop
      vertex -18 29 1
      vertex -9 22.5 1
      vertex -9 29 1
    endloop
  endfacet
  facet normal 0 0 1
    outer loop
      vertex -9 22.5 1
      vertex -18 29 1
      vertex -18 22.5 1
    endloop
  endfacet
  facet normal 0 1 -0
    outer loop
      vertex -9 22.5 1
      vertex -18 22.5 2
      vertex -9 22.5 2
    endloop
  endfacet
  facet normal 0 1 0
    outer loop
      vertex -18 22.5 2
      vertex -9 22.5 1
      vertex -18 22.5 1
    endloop
  endfacet
  facet normal 0 -1 0
    outer loop
      vertex -18 29 1
      vertex -9 29 2
      vertex -18 29 2
    endloop
  endfacet
  facet normal 0 -1 -0
    outer loop
      vertex -9 29 2
      vertex -18 29 1
      vertex -9 29 1
    endloop
  endfacet
  facet normal 1 -0 0
    outer loop
      vertex -39 -38 2
      vertex -39 -33 1
      vertex -39 -33 2
    endloop
  endfacet
  facet normal 1 0 0
    outer loop
      vertex -39 -33 1
      vertex -39 -38 2
      vertex -39 -38 1
    endloop
  endfacet
  facet normal -1 0 0
    outer loop
      vertex -6 -38 1
      vertex -6 -33 2
      vertex -6 -33 1
    endloop
  endfacet
  facet normal -1 -0 0
    outer loop
      vertex -6 -33 2
      vertex -6 -38 1
      vertex -6 -38 2
    endloop
  endfacet
  facet normal -0 0 1
    outer loop
      vertex -39 -33 1
      vertex -6 -38 1
      vertex -6 -33 1
    endloop
  endfacet
  facet normal 0 0 1
    outer loop
      vertex -6 -38 1
      vertex -39 -33 1
      vertex -39 -38 1
    endloop
  endfacet
  facet normal 0 1 -0
    outer loop
      vertex -6 -38 1
      vertex -39 -38 2
      vertex -6 -38 2
    endloop
  endfacet
  facet normal 0 1 0
    outer loop
      vertex -39 -38 2
      vertex -6 -38 1
      vertex -39 -38 1
    endloop
  endfacet
  facet normal 0 -1 0
    outer loop
      vertex -39 -33 1
      vertex -6 -33 2
      vertex -39 -33 2
    endloop
  endfacet
  facet normal 0 -1 -0
    outer loop
      vertex -6 -33 2
      vertex -39 -33 1
      vertex -6 -33 1
    endloop
  endfacet
  facet normal 1 -0 0
    outer loop
      vertex -39 -52 2
      vertex -39 -39 1
      vertex -39 -39 2
    endloop
  endfacet
  facet normal 1 0 0
    outer loop
      vertex -39 -39 1
      vertex -39 -52 2
      vertex -39 -52 1
    endloop
  endfacet
  facet normal -1 0 0
    outer loop
      vertex -31 -52 1
      vertex -31 -39 2
      vertex -31 -39 1
    endloop
  endfacet
  facet normal -1 -0 0
    outer loop
      vertex -31 -39 2
      vertex -31 -52 1
      vertex -31 -52 2
    endloop
  endfacet
  facet normal -0 0 1
    outer loop
      vertex -39 -39 1
      vertex -31 -52 1
      vertex -31 -39 1
    endloop
  endfacet
  facet normal 0 0 1
    outer loop
      vertex -31 -52 1
      vertex -39 -39 1
      vertex -39 -52 1
    endloop
  endfacet
  facet normal 0 1 -0
    outer loop
      vertex -31 -52 1
      vertex -39 -52 2
      vertex -31 -52 2
    endloop
  endfacet
  facet normal 0 1 0
    outer loop
      vertex -39 -52 2
      vertex -31 -52 1
      vertex -39 -52 1
    endloop
  endfacet
  facet normal 0 -1 0
    outer loop
      vertex -39 -39 1
      vertex -31 -39 2
      vertex -39 -39 2
    endloop
  endfacet
  facet normal 0 -1 -0
    outer loop
      vertex -31 -39 2
      vertex -39 -39 1
      vertex -31 -39 1
    endloop
  endfacet
  facet normal 1 -0 0
    outer loop
      vertex -14 -52 2
      vertex -14 -39 1
      vertex -14 -39 2
    endloop
  endfacet
  facet normal 1 0 0
    outer loop
      vertex -14 -39 1
      vertex -14 -52 2
      vertex -14 -52 1
    endloop
  endfacet
  facet normal -1 0 0
    outer loop
      vertex -6 -52 1
      vertex -6 -39 2
      vertex -6 -39 1
    endloop
  endfacet
  facet normal -1 -0 0
    outer loop
      vertex -6 -39 2
      vertex -6 -52 1
      vertex -6 -52 2
    endloop
  endfacet
  facet normal 0 -1 0
    outer loop
      vertex -14 -39 1
      vertex -6 -39 2
      vertex -14 -39 2
    endloop
  endfacet
  facet normal 0 -1 -0
    outer loop
      vertex -6 -39 2
      vertex -14 -39 1
      vertex -6 -39 1
    endloop
  endfacet
  facet normal -0 0 1
    outer loop
      vertex -14 -39 1
      vertex -6 -52 1
      vertex -6 -39 1
    endloop
  endfacet
  facet normal 0 0 1
    outer loop
      vertex -6 -52 1
      vertex -14 -39 1
      vertex -14 -52 1
    endloop
  endfacet
  facet normal 0 1 -0
    outer loop
      vertex -6 -52 1
      vertex -14 -52 2
      vertex -6 -52 2
    endloop
  endfacet
  facet normal 0 1 0
    outer loop
      vertex -14 -52 2
      vertex -6 -52 1
      vertex -14 -52 1
    endloop
  endfacet
  facet normal -1 0 0
    outer loop
      vertex 5.19806 -31.8678 0
      vertex 5.19806 -31 4
      vertex 5.19806 -31 0
    endloop
  endfacet
  facet normal -1 -0 0
    outer loop
      vertex 5.19806 -31 4
      vertex 5.19806 -31.8678 0
      vertex 5.19806 -31.8678 4
    endloop
  endfacet
  facet normal 0 0 1
    outer loop
      vertex 5 -31 4
      vertex 5.5 -14 4
      vertex 5 31 4
    endloop
  endfacet
  facet normal 0 0 1
    outer loop
      vertex 5.5 -14 4
      vertex 5 -31 4
      vertex 5.19806 -31 4
    endloop
  endfacet
  facet normal -0 0 1
    outer loop
      vertex 5.5 14 4
      vertex 6.5 -14 4
      vertex 6.5 14 4
    endloop
  endfacet
  facet normal 0 0 1
    outer loop
      vertex 6.5 -14 4
      vertex 5.5 14 4
      vertex 5.5 -14 4
    endloop
  endfacet
  facet normal 0 0 1
    outer loop
      vertex 6.5 14 4
      vertex 7.5 30 4
      vertex 6.5 22 4
    endloop
  endfacet
  facet normal 0 0 1
    outer loop
      vertex 7.5 30 4
      vertex 6.5 14 4
      vertex 7.5 -30 4
    endloop
  endfacet
  facet normal -0 0 1
    outer loop
      vertex 6.5 -14 4
      vertex 7.5 -30 4
      vertex 6.5 14 4
    endloop
  endfacet
  facet normal -0 0 1
    outer loop
      vertex 5.19806 31 4
      vertex 6.5 22 4
      vertex 6.55496 32.9499 4
    endloop
  endfacet
  facet normal -0 0 1
    outer loop
      vertex 5 31 4
      vertex 5.5 22 4
      vertex 5.19806 31 4
    endloop
  endfacet
  facet normal 0 0 1
    outer loop
      vertex 5.5 22 4
      vertex 5 31 4
      vertex 5.5 14 4
    endloop
  endfacet
  facet normal 0 0 1
    outer loop
      vertex 6.5 22 4
      vertex 5.19806 31 4
      vertex 5.5 22 4
    endloop
  endfacet
  facet normal 0 0 1
    outer loop
      vertex 5.19806 31 4
      vertex 6.55496 32.9499 4
      vertex 5.19806 31.8678 4
    endloop
  endfacet
  facet normal -0 0 1
    outer loop
      vertex 6.5 -22 4
      vertex 7.5 -30 4
      vertex 6.5 -14 4
    endloop
  endfacet
  facet normal -0 0 1
    outer loop
      vertex 5.5 -22 4
      vertex 7.5 -30 4
      vertex 6.5 -22 4
    endloop
  endfacet
  facet normal 0 0 1
    outer loop
      vertex 7.5 -30 4
      vertex 5.19806 -31 4
      vertex 7 -32.8483 4
    endloop
  endfacet
  facet normal 0 0 1
    outer loop
      vertex 7.5 -30 4
      vertex 5.5 -22 4
      vertex 5.19806 -31 4
    endloop
  endfacet
  facet normal 0 0 1
    outer loop
      vertex 5.5 14 4
      vertex 5 31 4
      vertex 5.5 -14 4
    endloop
  endfacet
  facet normal 0 0 1
    outer loop
      vertex 5.5 -14 4
      vertex 5.19806 -31 4
      vertex 5.5 -22 4
    endloop
  endfacet
  facet normal -0 0 1
    outer loop
      vertex 5.19806 -31.8678 4
      vertex 7 -32.8483 4
      vertex 5.19806 -31 4
    endloop
  endfacet
  facet normal 0 0 1
    outer loop
      vertex 7 -32.8483 4
      vertex 5.19806 -31.8678 4
      vertex 6.55496 -32.9499 4
    endloop
  endfacet
  facet normal 0 0 1
    outer loop
      vertex 10 19.5 4
      vertex 9 19.5 4
      vertex 10 -26.5 4
    endloop
  endfacet
  facet normal 0 0 1
    outer loop
      vertex 33 -26.5 4
      vertex 34 19.5 4
      vertex 33 19.5 4
    endloop
  endfacet
  facet normal 0 0 1
    outer loop
      vertex 35.5 30 4
      vertex 36 32.8483 4
      vertex 36 33 4
    endloop
  endfacet
  facet normal 0 0 1
    outer loop
      vertex 36 32.8483 4
      vertex 35.5 30 4
      vertex 36 -32.8483 4
    endloop
  endfacet
  facet normal -0 0 1
    outer loop
      vertex 35.5 -30 4
      vertex 36 -32.8483 4
      vertex 35.5 30 4
    endloop
  endfacet
  facet normal 0 0 1
    outer loop
      vertex 36 33 4
      vertex 7.5 30 4
      vertex 35.5 30 4
    endloop
  endfacet
  facet normal -0 0 1
    outer loop
      vertex 7 32.8483 4
      vertex 7.5 30 4
      vertex 7 33 4
    endloop
  endfacet
  facet normal -0 0 1
    outer loop
      vertex 7 33 4
      vertex 7.5 30 4
      vertex 36 33 4
    endloop
  endfacet
  facet normal -0 0 1
    outer loop
      vertex 34 -30 4
      vertex 36 -32.8483 4
      vertex 35.5 -30 4
    endloop
  endfacet
  facet normal 0 0 1
    outer loop
      vertex 36 -32.8483 4
      vertex 34 -30 4
      vertex 36 -33 4
    endloop
  endfacet
  facet normal 0 0 1
    outer loop
      vertex 34 19.5 4
      vertex 33 -26.5 4
      vertex 34 -30 4
    endloop
  endfacet
  facet normal -0 0 1
    outer loop
      vertex 10 -26.5 4
      vertex 34 -30 4
      vertex 33 -26.5 4
    endloop
  endfacet
  facet normal 0 0 1
    outer loop
      vertex 9 -30 4
      vertex 34 -30 4
      vertex 10 -26.5 4
    endloop
  endfacet
  facet normal 0 0 1
    outer loop
      vertex 9 -30 4
      vertex 10 -26.5 4
      vertex 9 19.5 4
    endloop
  endfacet
  facet normal 0 0 1
    outer loop
      vertex 34 -30 4
      vertex 9 -30 4
      vertex 36 -33 4
    endloop
  endfacet
  facet normal 0 0 1
    outer loop
      vertex 7 -32.8483 4
      vertex 9 -30 4
      vertex 7.5 -30 4
    endloop
  endfacet
  facet normal 0 0 1
    outer loop
      vertex 6.55496 32.9499 4
      vertex 7.5 30 4
      vertex 7 32.8483 4
    endloop
  endfacet
  facet normal 0 0 1
    outer loop
      vertex 6.5 22 4
      vertex 7.5 30 4
      vertex 6.55496 32.9499 4
    endloop
  endfacet
  facet normal 0 0 1
    outer loop
      vertex 9 -30 4
      vertex 7 -32.8483 4
      vertex 7 -33 4
    endloop
  endfacet
  facet normal 0 0 1
    outer loop
      vertex 9 -30 4
      vertex 7 -33 4
      vertex 36 -33 4
    endloop
  endfacet
  facet normal -0 0 1
    outer loop
      vertex 36.5 14 4
      vertex 37.5 -17 4
      vertex 37.5 14 4
    endloop
  endfacet
  facet normal 0 0 1
    outer loop
      vertex 37.5 -17 4
      vertex 36.5 14 4
      vertex 36.5 -17 4
    endloop
  endfacet
  facet normal 0 0 1
    outer loop
      vertex 37.5 14 4
      vertex 38 31 4
      vertex 37.5 22 4
    endloop
  endfacet
  facet normal 0 0 1
    outer loop
      vertex 36 32.8483 4
      vertex 38 31 4
      vertex 37.247 32.5637 4
    endloop
  endfacet
  facet normal 0 0 1
    outer loop
      vertex 38 31 4
      vertex 36.5 22 4
      vertex 37.5 22 4
    endloop
  endfacet
  facet normal 0 0 1
    outer loop
      vertex 36 32.8483 4
      vertex 36.5 14 4
      vertex 36.5 22 4
    endloop
  endfacet
  facet normal 0 0 1
    outer loop
      vertex 36.5 14 4
      vertex 36 32.8483 4
      vertex 36.5 -17 4
    endloop
  endfacet
  facet normal 0 0 1
    outer loop
      vertex 36.5 -17 4
      vertex 36 32.8483 4
      vertex 36 -32.8483 4
    endloop
  endfacet
  facet normal 0 0 1
    outer loop
      vertex 38 31 4
      vertex 36 32.8483 4
      vertex 36.5 22 4
    endloop
  endfacet
  facet normal 0 0 1
    outer loop
      vertex 38 31 4
      vertex 37.5 14 4
      vertex 38 -31 4
    endloop
  endfacet
  facet normal -0 0 1
    outer loop
      vertex 37.5 -17 4
      vertex 38 -31 4
      vertex 37.5 14 4
    endloop
  endfacet
  facet normal -0 0 1
    outer loop
      vertex 37.5 -25 4
      vertex 38 -31 4
      vertex 37.5 -17 4
    endloop
  endfacet
  facet normal -0 0 1
    outer loop
      vertex 36.5 -25 4
      vertex 38 -31 4
      vertex 37.5 -25 4
    endloop
  endfacet
  facet normal 0 0 1
    outer loop
      vertex 36 -32.8483 4
      vertex 38 -31 4
      vertex 36.5 -25 4
    endloop
  endfacet
  facet normal 0 0 1
    outer loop
      vertex 38 -31 4
      vertex 36 -32.8483 4
      vertex 37.247 -32.5637 4
    endloop
  endfacet
  facet normal 0 0 1
    outer loop
      vertex 36.5 -17 4
      vertex 36 -32.8483 4
      vertex 36.5 -25 4
    endloop
  endfacet
  facet normal 0 0 -1
    outer loop
      vertex 5 31 0
      vertex 7.5 30 0
      vertex 5 -31 0
    endloop
  endfacet
  facet normal 0 0 -1
    outer loop
      vertex 7.5 30 0
      vertex 5 31 0
      vertex 5.19806 31 0
    endloop
  endfacet
  facet normal 0 0 -1
    outer loop
      vertex 5 -31 0
      vertex 7.5 -30 0
      vertex 5.19806 -31 0
    endloop
  endfacet
  facet normal -0 0 -1
    outer loop
      vertex 7.5 -30 0
      vertex 5 -31 0
      vertex 7.5 30 0
    endloop
  endfacet
  facet normal 0 0 -1
    outer loop
      vertex 5.19806 -31 0
      vertex 6.55496 -32.9499 0
      vertex 5.19806 -31.8678 0
    endloop
  endfacet
  facet normal 0 0 -1
    outer loop
      vertex 7.5 30 0
      vertex 5.19806 31 0
      vertex 7 32.8483 0
    endloop
  endfacet
  facet normal 0 0 -1
    outer loop
      vertex 5.19806 31.8678 0
      vertex 7 32.8483 0
      vertex 5.19806 31 0
    endloop
  endfacet
  facet normal -0 0 -1
    outer loop
      vertex 7 32.8483 0
      vertex 5.19806 31.8678 0
      vertex 6.55496 32.9499 0
    endloop
  endfacet
  facet normal 0 0 -1
    outer loop
      vertex 35.5 -30 0
      vertex 36 -32.8483 0
      vertex 36 -33 0
    endloop
  endfacet
  facet normal 0 0 -1
    outer loop
      vertex 36 -32.8483 0
      vertex 35.5 -30 0
      vertex 36 32.8483 0
    endloop
  endfacet
  facet normal 0 0 -1
    outer loop
      vertex 35.5 30 0
      vertex 36 32.8483 0
      vertex 35.5 -30 0
    endloop
  endfacet
  facet normal 0 0 -1
    outer loop
      vertex 36 -33 0
      vertex 7.5 -30 0
      vertex 35.5 -30 0
    endloop
  endfacet
  facet normal 0 0 -1
    outer loop
      vertex 7 -32.8483 0
      vertex 7.5 -30 0
      vertex 7 -33 0
    endloop
  endfacet
  facet normal 0 0 -1
    outer loop
      vertex 7 -33 0
      vertex 7.5 -30 0
      vertex 36 -33 0
    endloop
  endfacet
  facet normal 0 0 -1
    outer loop
      vertex 36 -32.8483 0
      vertex 38 -31 0
      vertex 37.247 -32.5637 0
    endloop
  endfacet
  facet normal -0 0 -1
    outer loop
      vertex 38 -31 0
      vertex 36 -32.8483 0
      vertex 38 31 0
    endloop
  endfacet
  facet normal 0 0 -1
    outer loop
      vertex 36 32.8483 0
      vertex 38 31 0
      vertex 36 -32.8483 0
    endloop
  endfacet
  facet normal 0 0 -1
    outer loop
      vertex 38 31 0
      vertex 36 32.8483 0
      vertex 37.247 32.5637 0
    endloop
  endfacet
  facet normal -0 0 -1
    outer loop
      vertex 36 32.8483 0
      vertex 35.5 30 0
      vertex 36 33 0
    endloop
  endfacet
  facet normal 0 0 -1
    outer loop
      vertex 7.5 30 0
      vertex 36 33 0
      vertex 35.5 30 0
    endloop
  endfacet
  facet normal 0 0 -1
    outer loop
      vertex 5.19806 -31 0
      vertex 7 -32.8483 0
      vertex 6.55496 -32.9499 0
    endloop
  endfacet
  facet normal 0 0 -1
    outer loop
      vertex 7 -32.8483 0
      vertex 5.19806 -31 0
      vertex 7.5 -30 0
    endloop
  endfacet
  facet normal 0 0 -1
    outer loop
      vertex 7 33 0
      vertex 7.5 30 0
      vertex 7 32.8483 0
    endloop
  endfacet
  facet normal 0 0 -1
    outer loop
      vertex 7.5 30 0
      vertex 7 33 0
      vertex 36 33 0
    endloop
  endfacet
  facet normal 0.222521 -0.974928 0
    outer loop
      vertex 6.55496 -32.9499 0
      vertex 7 -32.8483 4
      vertex 6.55496 -32.9499 4
    endloop
  endfacet
  facet normal 0.222521 -0.974928 0
    outer loop
      vertex 7 -32.8483 4
      vertex 6.55496 -32.9499 0
      vertex 7 -32.8483 0
    endloop
  endfacet
  facet normal -0.62349 -0.781831 0
    outer loop
      vertex 5.19806 -31.8678 0
      vertex 6.55496 -32.9499 4
      vertex 5.19806 -31.8678 4
    endloop
  endfacet
  facet normal -0.62349 -0.781831 -0
    outer loop
      vertex 6.55496 -32.9499 4
      vertex 5.19806 -31.8678 0
      vertex 6.55496 -32.9499 0
    endloop
  endfacet
  facet normal -1 0 0
    outer loop
      vertex 5.19806 31 0
      vertex 5.19806 31.8678 4
      vertex 5.19806 31.8678 0
    endloop
  endfacet
  facet normal -1 -0 0
    outer loop
      vertex 5.19806 31.8678 4
      vertex 5.19806 31 0
      vertex 5.19806 31 4
    endloop
  endfacet
  facet normal 0.222521 0.974928 -0
    outer loop
      vertex 7 32.8483 0
      vertex 6.55496 32.9499 4
      vertex 7 32.8483 4
    endloop
  endfacet
  facet normal 0.222521 0.974928 0
    outer loop
      vertex 6.55496 32.9499 4
      vertex 7 32.8483 0
      vertex 6.55496 32.9499 0
    endloop
  endfacet
  facet normal -0.62349 0.781831 0
    outer loop
      vertex 6.55496 32.9499 0
      vertex 5.19806 31.8678 4
      vertex 6.55496 32.9499 4
    endloop
  endfacet
  facet normal -0.62349 0.781831 0
    outer loop
      vertex 5.19806 31.8678 4
      vertex 6.55496 32.9499 0
      vertex 5.19806 31.8678 0
    endloop
  endfacet
  facet normal 0.900969 -0.433884 0
    outer loop
      vertex 37.247 -32.5637 4
      vertex 38 -31 0
      vertex 38 -31 4
    endloop
  endfacet
  facet normal 0.900969 -0.433884 0
    outer loop
      vertex 38 -31 0
      vertex 37.247 -32.5637 4
      vertex 37.247 -32.5637 0
    endloop
  endfacet
  facet normal 0.222521 -0.974928 0
    outer loop
      vertex 36 -32.8483 0
      vertex 37.247 -32.5637 4
      vertex 36 -32.8483 4
    endloop
  endfacet
  facet normal 0.222521 -0.974928 0
    outer loop
      vertex 37.247 -32.5637 4
      vertex 36 -32.8483 0
      vertex 37.247 -32.5637 0
    endloop
  endfacet
  facet normal 0.900969 0.433884 0
    outer loop
      vertex 38 31 4
      vertex 37.247 32.5637 0
      vertex 37.247 32.5637 4
    endloop
  endfacet
  facet normal 0.900969 0.433884 0
    outer loop
      vertex 37.247 32.5637 0
      vertex 38 31 4
      vertex 38 31 0
    endloop
  endfacet
  facet normal 0.222521 0.974928 -0
    outer loop
      vertex 37.247 32.5637 0
      vertex 36 32.8483 4
      vertex 37.247 32.5637 4
    endloop
  endfacet
  facet normal 0.222521 0.974928 0
    outer loop
      vertex 36 32.8483 4
      vertex 37.247 32.5637 0
      vertex 36 32.8483 0
    endloop
  endfacet
  facet normal -1 0 0
    outer loop
      vertex 7 -33 0
      vertex 7 -32.8483 4
      vertex 7 -32.8483 0
    endloop
  endfacet
  facet normal -1 -0 0
    outer loop
      vertex 7 -32.8483 4
      vertex 7 -33 0
      vertex 7 -33 4
    endloop
  endfacet
  facet normal -1 0 0
    outer loop
      vertex 7 32.8483 0
      vertex 7 33 4
      vertex 7 33 0
    endloop
  endfacet
  facet normal -1 -0 0
    outer loop
      vertex 7 33 4
      vertex 7 32.8483 0
      vertex 7 32.8483 4
    endloop
  endfacet
  facet normal 1 -0 0
    outer loop
      vertex 36 -33 4
      vertex 36 -32.8483 0
      vertex 36 -32.8483 4
    endloop
  endfacet
  facet normal 1 0 0
    outer loop
      vertex 36 -32.8483 0
      vertex 36 -33 4
      vertex 36 -33 0
    endloop
  endfacet
  facet normal 1 -0 0
    outer loop
      vertex 36 32.8483 4
      vertex 36 33 0
      vertex 36 33 4
    endloop
  endfacet
  facet normal 1 0 0
    outer loop
      vertex 36 33 0
      vertex 36 32.8483 4
      vertex 36 32.8483 0
    endloop
  endfacet
  facet normal 0 -1 0
    outer loop
      vertex 7 -33 0
      vertex 36 -33 4
      vertex 7 -33 4
    endloop
  endfacet
  facet normal 0 -1 -0
    outer loop
      vertex 36 -33 4
      vertex 7 -33 0
      vertex 36 -33 0
    endloop
  endfacet
  facet normal 0 1 -0
    outer loop
      vertex 36 33 0
      vertex 7 33 4
      vertex 36 33 4
    endloop
  endfacet
  facet normal 0 1 0
    outer loop
      vertex 7 33 4
      vertex 36 33 0
      vertex 7 33 0
    endloop
  endfacet
  facet normal -1 0 0
    outer loop
      vertex 5 -31 0
      vertex 5 31 4
      vertex 5 31 0
    endloop
  endfacet
  facet normal -1 -0 0
    outer loop
      vertex 5 31 4
      vertex 5 -31 0
      vertex 5 -31 4
    endloop
  endfacet
  facet normal 1 -0 0
    outer loop
      vertex 38 -31 4
      vertex 38 31 0
      vertex 38 31 4
    endloop
  endfacet
  facet normal 1 0 0
    outer loop
      vertex 38 31 0
      vertex 38 -31 4
      vertex 38 -31 0
    endloop
  endfacet
  facet normal 0 -1 0
    outer loop
      vertex 5 -31 0
      vertex 5.19806 -31 4
      vertex 5 -31 4
    endloop
  endfacet
  facet normal 0 -1 -0
    outer loop
      vertex 5.19806 -31 4
      vertex 5 -31 0
      vertex 5.19806 -31 0
    endloop
  endfacet
  facet normal 0 1 -0
    outer loop
      vertex 5.19806 31 0
      vertex 5 31 4
      vertex 5.19806 31 4
    endloop
  endfacet
  facet normal 0 1 0
    outer loop
      vertex 5 31 4
      vertex 5.19806 31 0
      vertex 5 31 0
    endloop
  endfacet
  facet normal 1 -0 0
    outer loop
      vertex 7.5 -30 4
      vertex 7.5 30 0
      vertex 7.5 30 4
    endloop
  endfacet
  facet normal 1 0 0
    outer loop
      vertex 7.5 30 0
      vertex 7.5 -30 4
      vertex 7.5 -30 0
    endloop
  endfacet
  facet normal -1 0 0
    outer loop
      vertex 35.5 -30 0
      vertex 35.5 30 4
      vertex 35.5 30 0
    endloop
  endfacet
  facet normal -1 -0 0
    outer loop
      vertex 35.5 30 4
      vertex 35.5 -30 0
      vertex 35.5 -30 4
    endloop
  endfacet
  facet normal 0 -1 0
    outer loop
      vertex 7.5 30 0
      vertex 35.5 30 4
      vertex 7.5 30 4
    endloop
  endfacet
  facet normal 0 -1 -0
    outer loop
      vertex 35.5 30 4
      vertex 7.5 30 0
      vertex 35.5 30 0
    endloop
  endfacet
  facet normal 0 1 0
    outer loop
      vertex 35.5 -30 4
      vertex 34 -30 3
      vertex 34 -30 4
    endloop
  endfacet
  facet normal 0 1 0
    outer loop
      vertex 34 -30 3
      vertex 35.5 -30 0
      vertex 9 -30 3
    endloop
  endfacet
  facet normal 0 1 -0
    outer loop
      vertex 35.5 -30 0
      vertex 34 -30 3
      vertex 35.5 -30 4
    endloop
  endfacet
  facet normal 0 1 -0
    outer loop
      vertex 9 -30 3
      vertex 7.5 -30 4
      vertex 9 -30 4
    endloop
  endfacet
  facet normal 0 1 0
    outer loop
      vertex 9 -30 3
      vertex 7.5 -30 0
      vertex 7.5 -30 4
    endloop
  endfacet
  facet normal 0 1 0
    outer loop
      vertex 7.5 -30 0
      vertex 9 -30 3
      vertex 35.5 -30 0
    endloop
  endfacet
  facet normal -1 0 0
    outer loop
      vertex 9 28.5 0
      vertex 9 19.5 2
      vertex 9 28.5 2
    endloop
  endfacet
  facet normal -1 0 0
    outer loop
      vertex 9 -28.5 0
      vertex 9 19.5 2
      vertex 9 28.5 0
    endloop
  endfacet
  facet normal -1 0 0
    outer loop
      vertex 9 -28.5 3
      vertex 9 19.5 2
      vertex 9 -28.5 0
    endloop
  endfacet
  facet normal -1 0 0
    outer loop
      vertex 9 19.5 2
      vertex 9 -28.5 3
      vertex 9 19.5 4
    endloop
  endfacet
  facet normal -1 0 0
    outer loop
      vertex 9 -30 4
      vertex 9 -28.5 3
      vertex 9 -30 3
    endloop
  endfacet
  facet normal -1 0 0
    outer loop
      vertex 9 -28.5 3
      vertex 9 -30 4
      vertex 9 19.5 4
    endloop
  endfacet
  facet normal 0 0 1
    outer loop
      vertex 34 28.5 2
      vertex 33 19.5 2
      vertex 34 19.5 2
    endloop
  endfacet
  facet normal 0 0 1
    outer loop
      vertex 33 19.5 2
      vertex 10 19.5 2
      vertex 33 -26.5 2
    endloop
  endfacet
  facet normal 0 0 1
    outer loop
      vertex 34 28.5 2
      vertex 10 19.5 2
      vertex 33 19.5 2
    endloop
  endfacet
  facet normal -0 0 1
    outer loop
      vertex 9 28.5 2
      vertex 10 19.5 2
      vertex 34 28.5 2
    endloop
  endfacet
  facet normal 0 0 1
    outer loop
      vertex 10 19.5 2
      vertex 9 28.5 2
      vertex 9 19.5 2
    endloop
  endfacet
  facet normal 0 0 1
    outer loop
      vertex 33 -26.5 2
      vertex 10 19.5 2
      vertex 10 -26.5 2
    endloop
  endfacet
  facet normal 1 0 0
    outer loop
      vertex 34 19.5 4
      vertex 34 -28.5 3
      vertex 34 19.5 2
    endloop
  endfacet
  facet normal 1 -0 0
    outer loop
      vertex 34 -30 4
      vertex 34 -28.5 3
      vertex 34 19.5 4
    endloop
  endfacet
  facet normal 1 0 0
    outer loop
      vertex 34 -28.5 3
      vertex 34 -30 4
      vertex 34 -30 3
    endloop
  endfacet
  facet normal 1 -0 0
    outer loop
      vertex 34 19.5 2
      vertex 34 28.5 0
      vertex 34 28.5 2
    endloop
  endfacet
  facet normal 1 0 0
    outer loop
      vertex 34 -28.5 0
      vertex 34 19.5 2
      vertex 34 -28.5 3
    endloop
  endfacet
  facet normal 1 0 0
    outer loop
      vertex 34 19.5 2
      vertex 34 -28.5 0
      vertex 34 28.5 0
    endloop
  endfacet
  facet normal 0 0 -1
    outer loop
      vertex 9 -28.5 0
      vertex 34 28.5 0
      vertex 34 -28.5 0
    endloop
  endfacet
  facet normal -0 0 -1
    outer loop
      vertex 34 28.5 0
      vertex 9 -28.5 0
      vertex 9 28.5 0
    endloop
  endfacet
  facet normal 0 -1 0
    outer loop
      vertex 9 -28.5 0
      vertex 34 -28.5 3
      vertex 9 -28.5 3
    endloop
  endfacet
  facet normal 0 -1 -0
    outer loop
      vertex 34 -28.5 3
      vertex 9 -28.5 0
      vertex 34 -28.5 0
    endloop
  endfacet
  facet normal 0 1 -0
    outer loop
      vertex 34 28.5 0
      vertex 9 28.5 2
      vertex 34 28.5 2
    endloop
  endfacet
  facet normal 0 1 0
    outer loop
      vertex 9 28.5 2
      vertex 34 28.5 0
      vertex 9 28.5 0
    endloop
  endfacet
  facet normal 1 -0 0
    outer loop
      vertex 10 -26.5 4
      vertex 10 19.5 2
      vertex 10 19.5 4
    endloop
  endfacet
  facet normal 1 0 0
    outer loop
      vertex 10 19.5 2
      vertex 10 -26.5 4
      vertex 10 -26.5 2
    endloop
  endfacet
  facet normal 0 1 -0
    outer loop
      vertex 10 19.5 2
      vertex 9 19.5 4
      vertex 10 19.5 4
    endloop
  endfacet
  facet normal 0 1 0
    outer loop
      vertex 9 19.5 4
      vertex 10 19.5 2
      vertex 9 19.5 2
    endloop
  endfacet
  facet normal -1 0 0
    outer loop
      vertex 33 -26.5 2
      vertex 33 19.5 4
      vertex 33 19.5 2
    endloop
  endfacet
  facet normal -1 -0 0
    outer loop
      vertex 33 19.5 4
      vertex 33 -26.5 2
      vertex 33 -26.5 4
    endloop
  endfacet
  facet normal 0 1 -0
    outer loop
      vertex 34 19.5 2
      vertex 33 19.5 4
      vertex 34 19.5 4
    endloop
  endfacet
  facet normal 0 1 0
    outer loop
      vertex 33 19.5 4
      vertex 34 19.5 2
      vertex 33 19.5 2
    endloop
  endfacet
  facet normal 0 1 -0
    outer loop
      vertex 33 -26.5 2
      vertex 10 -26.5 4
      vertex 33 -26.5 4
    endloop
  endfacet
  facet normal 0 1 0
    outer loop
      vertex 10 -26.5 4
      vertex 33 -26.5 2
      vertex 10 -26.5 2
    endloop
  endfacet
  facet normal 0 0 -1
    outer loop
      vertex 9 -30 3
      vertex 34 -28.5 3
      vertex 34 -30 3
    endloop
  endfacet
  facet normal -0 0 -1
    outer loop
      vertex 34 -28.5 3
      vertex 9 -30 3
      vertex 9 -28.5 3
    endloop
  endfacet
  facet normal -1 0 0
    outer loop
      vertex 5.5 -22 4
      vertex 5.5 -14 5.5
      vertex 5.5 -14 4
    endloop
  endfacet
  facet normal -1 -0 0
    outer loop
      vertex 5.5 -14 5.5
      vertex 5.5 -22 4
      vertex 5.5 -22 5.5
    endloop
  endfacet
  facet normal -0 0 1
    outer loop
      vertex 5.5 -14 5.5
      vertex 6.5 -22 5.5
      vertex 6.5 -14 5.5
    endloop
  endfacet
  facet normal 0 0 1
    outer loop
      vertex 6.5 -22 5.5
      vertex 5.5 -14 5.5
      vertex 5.5 -22 5.5
    endloop
  endfacet
  facet normal 1 -0 0
    outer loop
      vertex 6.5 -22 5.5
      vertex 6.5 -14 4
      vertex 6.5 -14 5.5
    endloop
  endfacet
  facet normal 1 0 0
    outer loop
      vertex 6.5 -14 4
      vertex 6.5 -22 5.5
      vertex 6.5 -22 4
    endloop
  endfacet
  facet normal 0 -1 0
    outer loop
      vertex 5.5 -22 4
      vertex 6.5 -22 5.5
      vertex 5.5 -22 5.5
    endloop
  endfacet
  facet normal 0 -1 -0
    outer loop
      vertex 6.5 -22 5.5
      vertex 5.5 -22 4
      vertex 6.5 -22 4
    endloop
  endfacet
  facet normal 0 1 -0
    outer loop
      vertex 6.5 -14 4
      vertex 5.5 -14 5.5
      vertex 6.5 -14 5.5
    endloop
  endfacet
  facet normal 0 1 0
    outer loop
      vertex 5.5 -14 5.5
      vertex 6.5 -14 4
      vertex 5.5 -14 4
    endloop
  endfacet
  facet normal -1 0 0
    outer loop
      vertex 5.5 14 4
      vertex 5.5 22 5.5
      vertex 5.5 22 4
    endloop
  endfacet
  facet normal -1 -0 0
    outer loop
      vertex 5.5 22 5.5
      vertex 5.5 14 4
      vertex 5.5 14 5.5
    endloop
  endfacet
  facet normal -0 0 1
    outer loop
      vertex 5.5 22 5.5
      vertex 6.5 14 5.5
      vertex 6.5 22 5.5
    endloop
  endfacet
  facet normal 0 0 1
    outer loop
      vertex 6.5 14 5.5
      vertex 5.5 22 5.5
      vertex 5.5 14 5.5
    endloop
  endfacet
  facet normal 1 -0 0
    outer loop
      vertex 6.5 14 5.5
      vertex 6.5 22 4
      vertex 6.5 22 5.5
    endloop
  endfacet
  facet normal 1 0 0
    outer loop
      vertex 6.5 22 4
      vertex 6.5 14 5.5
      vertex 6.5 14 4
    endloop
  endfacet
  facet normal 0 -1 0
    outer loop
      vertex 5.5 14 4
      vertex 6.5 14 5.5
      vertex 5.5 14 5.5
    endloop
  endfacet
  facet normal 0 -1 -0
    outer loop
      vertex 6.5 14 5.5
      vertex 5.5 14 4
      vertex 6.5 14 4
    endloop
  endfacet
  facet normal 0 1 -0
    outer loop
      vertex 6.5 22 4
      vertex 5.5 22 5.5
      vertex 6.5 22 5.5
    endloop
  endfacet
  facet normal 0 1 0
    outer loop
      vertex 5.5 22 5.5
      vertex 6.5 22 4
      vertex 5.5 22 4
    endloop
  endfacet
  facet normal -1 0 0
    outer loop
      vertex 36.5 -25 4
      vertex 36.5 -17 5.5
      vertex 36.5 -17 4
    endloop
  endfacet
  facet normal -1 -0 0
    outer loop
      vertex 36.5 -17 5.5
      vertex 36.5 -25 4
      vertex 36.5 -25 5.5
    endloop
  endfacet
  facet normal -0 0 1
    outer loop
      vertex 36.5 -17 5.5
      vertex 37.5 -25 5.5
      vertex 37.5 -17 5.5
    endloop
  endfacet
  facet normal 0 0 1
    outer loop
      vertex 37.5 -25 5.5
      vertex 36.5 -17 5.5
      vertex 36.5 -25 5.5
    endloop
  endfacet
  facet normal 1 -0 0
    outer loop
      vertex 37.5 -25 5.5
      vertex 37.5 -17 4
      vertex 37.5 -17 5.5
    endloop
  endfacet
  facet normal 1 0 0
    outer loop
      vertex 37.5 -17 4
      vertex 37.5 -25 5.5
      vertex 37.5 -25 4
    endloop
  endfacet
  facet normal 0 1 -0
    outer loop
      vertex 37.5 -17 4
      vertex 36.5 -17 5.5
      vertex 37.5 -17 5.5
    endloop
  endfacet
  facet normal 0 1 0
    outer loop
      vertex 36.5 -17 5.5
      vertex 37.5 -17 4
      vertex 36.5 -17 4
    endloop
  endfacet
  facet normal 0 -1 0
    outer loop
      vertex 36.5 -25 4
      vertex 37.5 -25 5.5
      vertex 36.5 -25 5.5
    endloop
  endfacet
  facet normal 0 -1 -0
    outer loop
      vertex 37.5 -25 5.5
      vertex 36.5 -25 4
      vertex 37.5 -25 4
    endloop
  endfacet
  facet normal -1 0 0
    outer loop
      vertex 36.5 14 4
      vertex 36.5 22 5.5
      vertex 36.5 22 4
    endloop
  endfacet
  facet normal -1 -0 0
    outer loop
      vertex 36.5 22 5.5
      vertex 36.5 14 4
      vertex 36.5 14 5.5
    endloop
  endfacet
  facet normal -0 0 1
    outer loop
      vertex 36.5 22 5.5
      vertex 37.5 14 5.5
      vertex 37.5 22 5.5
    endloop
  endfacet
  facet normal 0 0 1
    outer loop
      vertex 37.5 14 5.5
      vertex 36.5 22 5.5
      vertex 36.5 14 5.5
    endloop
  endfacet
  facet normal 1 -0 0
    outer loop
      vertex 37.5 14 5.5
      vertex 37.5 22 4
      vertex 37.5 22 5.5
    endloop
  endfacet
  facet normal 1 0 0
    outer loop
      vertex 37.5 22 4
      vertex 37.5 14 5.5
      vertex 37.5 14 4
    endloop
  endfacet
  facet normal 0 1 -0
    outer loop
      vertex 37.5 22 4
      vertex 36.5 22 5.5
      vertex 37.5 22 5.5
    endloop
  endfacet
  facet normal 0 1 0
    outer loop
      vertex 36.5 22 5.5
      vertex 37.5 22 4
      vertex 36.5 22 4
    endloop
  endfacet
  facet normal 0 -1 0
    outer loop
      vertex 36.5 14 4
      vertex 37.5 14 5.5
      vertex 36.5 14 5.5
    endloop
  endfacet
  facet normal 0 -1 -0
    outer loop
      vertex 37.5 14 5.5
      vertex 36.5 14 4
      vertex 37.5 14 4
    endloop
  endfacet
endsolid OpenSCAD_Model
