solid OpenSCAD_Model
  facet normal -1 0 0
    outer loop
      vertex -40 -53 0
      vertex -40 53 2
      vertex -40 53 0
    endloop
  endfacet
  facet normal -1 -0 0
    outer loop
      vertex -40 53 2
      vertex -40 -53 0
      vertex -40 -53 2
    endloop
  endfacet
  facet normal -0 0 1
    outer loop
      vertex -38.5 13 2
      vertex -37 -13 2
      vertex -37 13 2
    endloop
  endfacet
  facet normal 0 0 1
    outer loop
      vertex -37 -13 2
      vertex -38.5 13 2
      vertex -38.5 -13 2
    endloop
  endfacet
  facet normal 0 0 1
    outer loop
      vertex -21.625 -46.9845 2
      vertex -19.7322 -43.2678 2
      vertex -21.5 -44 2
    endloop
  endfacet
  facet normal 0 0 1
    outer loop
      vertex -19.7322 -43.2678 2
      vertex -21.625 -46.9845 2
      vertex -20.75 -48.5 2
    endloop
  endfacet
  facet normal 0 0 1
    outer loop
      vertex -21.5 -44 2
      vertex -23.375 -46.9845 2
      vertex -21.625 -46.9845 2
    endloop
  endfacet
  facet normal -0 0 1
    outer loop
      vertex -23.5 -44 2
      vertex -23.375 -46.9845 2
      vertex -21.5 -44 2
    endloop
  endfacet
  facet normal 0 0 1
    outer loop
      vertex -25.2678 -43.2678 2
      vertex -23.375 -46.9845 2
      vertex -23.5 -44 2
    endloop
  endfacet
  facet normal 0 0 1
    outer loop
      vertex -23.375 -46.9845 2
      vertex -25.2678 -43.2678 2
      vertex -24.25 -48.5 2
    endloop
  endfacet
  facet normal 0 0 1
    outer loop
      vertex -8 23 2
      vertex -20.7322 27.7678 2
      vertex -20 26 2
    endloop
  endfacet
  facet normal -0 0 1
    outer loop
      vertex -21.5 39 2
      vertex -20.7322 27.7678 2
      vertex -19.7322 39.7322 2
    endloop
  endfacet
  facet normal 0 0 1
    outer loop
      vertex -21.5 39 2
      vertex -22.5 28.5 2
      vertex -20.7322 27.7678 2
    endloop
  endfacet
  facet normal -0 0 1
    outer loop
      vertex -23.5 39 2
      vertex -22.5 28.5 2
      vertex -21.5 39 2
    endloop
  endfacet
  facet normal 0 0 1
    outer loop
      vertex -23.5 39 2
      vertex -24.2678 27.7678 2
      vertex -22.5 28.5 2
    endloop
  endfacet
  facet normal 0 0 1
    outer loop
      vertex -25.2678 39.7322 2
      vertex -24.2678 27.7678 2
      vertex -23.5 39 2
    endloop
  endfacet
  facet normal 0 0 1
    outer loop
      vertex -24.2678 27.7678 2
      vertex -25.2678 39.7322 2
      vertex -25 26 2
    endloop
  endfacet
  facet normal 0 0 1
    outer loop
      vertex -8.5 -32 2
      vertex -19.7322 -39.7322 2
      vertex -19 -41.5 2
    endloop
  endfacet
  facet normal 0 0 1
    outer loop
      vertex -8.5 -32 2
      vertex -21.5 -39 2
      vertex -19.7322 -39.7322 2
    endloop
  endfacet
  facet normal 0 0 1
    outer loop
      vertex -8.5 -32 2
      vertex -23.5 -39 2
      vertex -21.5 -39 2
    endloop
  endfacet
  facet normal -0 0 1
    outer loop
      vertex -36.5 -32 2
      vertex -23.5 -39 2
      vertex -8.5 -32 2
    endloop
  endfacet
  facet normal 0 0 1
    outer loop
      vertex -25.2678 -39.7322 2
      vertex -36.5 -32 2
      vertex -26 -41.5 2
    endloop
  endfacet
  facet normal 0 0 1
    outer loop
      vertex -23.5 -39 2
      vertex -36.5 -32 2
      vertex -25.2678 -39.7322 2
    endloop
  endfacet
  facet normal -0 0 1
    outer loop
      vertex -8 13 2
      vertex -6.5 -13 2
      vertex -6.5 13 2
    endloop
  endfacet
  facet normal 0 0 1
    outer loop
      vertex -6.5 -13 2
      vertex -8 13 2
      vertex -8 -13 2
    endloop
  endfacet
  facet normal 0 0 1
    outer loop
      vertex -6.5 13 2
      vertex -5 53 2
      vertex -6.5 23 2
    endloop
  endfacet
  facet normal -0 0 1
    outer loop
      vertex -19 41.5 2
      vertex -6.5 23 2
      vertex -5 53 2
    endloop
  endfacet
  facet normal -0 0 1
    outer loop
      vertex -8.5 18 2
      vertex -8 13 2
      vertex -8 23 2
    endloop
  endfacet
  facet normal 0 0 1
    outer loop
      vertex -8 13 2
      vertex -8.5 18 2
      vertex -8 -13 2
    endloop
  endfacet
  facet normal 0 0 1
    outer loop
      vertex -8.5 -32 2
      vertex -8 -13 2
      vertex -8.5 18 2
    endloop
  endfacet
  facet normal 0 0 1
    outer loop
      vertex -6.5 23 2
      vertex -19 41.5 2
      vertex -8 23 2
    endloop
  endfacet
  facet normal -0 0 1
    outer loop
      vertex -19.7322 39.7322 2
      vertex -8 23 2
      vertex -19 41.5 2
    endloop
  endfacet
  facet normal 0 0 1
    outer loop
      vertex -5 53 2
      vertex -19.7322 43.2678 2
      vertex -19 41.5 2
    endloop
  endfacet
  facet normal 0 0 1
    outer loop
      vertex -5 53 2
      vertex -20.75 48.5 2
      vertex -19.7322 43.2678 2
    endloop
  endfacet
  facet normal 0 0 1
    outer loop
      vertex -5 53 2
      vertex -21.625 50.0155 2
      vertex -20.75 48.5 2
    endloop
  endfacet
  facet normal 0 0 1
    outer loop
      vertex -5 53 2
      vertex -23.375 50.0155 2
      vertex -21.625 50.0155 2
    endloop
  endfacet
  facet normal 0 0 1
    outer loop
      vertex -40 53 2
      vertex -25.2678 43.2678 2
      vertex -24.25 48.5 2
    endloop
  endfacet
  facet normal 0 0 1
    outer loop
      vertex -25.2678 43.2678 2
      vertex -40 53 2
      vertex -26 41.5 2
    endloop
  endfacet
  facet normal 0 0 1
    outer loop
      vertex -37 13 2
      vertex -36.5 18 2
      vertex -37 23 2
    endloop
  endfacet
  facet normal 0 0 1
    outer loop
      vertex -26 41.5 2
      vertex -37 23 2
      vertex -36.5 18 2
    endloop
  endfacet
  facet normal 0 -0 1
    outer loop
      vertex -38.5 23 2
      vertex -26 41.5 2
      vertex -40 53 2
    endloop
  endfacet
  facet normal 0 0 1
    outer loop
      vertex -40 53 2
      vertex -38.5 13 2
      vertex -38.5 23 2
    endloop
  endfacet
  facet normal 0 0 1
    outer loop
      vertex -38.5 13 2
      vertex -40 53 2
      vertex -38.5 -13 2
    endloop
  endfacet
  facet normal 0 0 1
    outer loop
      vertex -40 -53 2
      vertex -38.5 -13 2
      vertex -40 53 2
    endloop
  endfacet
  facet normal 0 0 1
    outer loop
      vertex -26 41.5 2
      vertex -38.5 23 2
      vertex -37 23 2
    endloop
  endfacet
  facet normal 0 0 1
    outer loop
      vertex -23.375 50.0155 2
      vertex -40 53 2
      vertex -24.25 48.5 2
    endloop
  endfacet
  facet normal -0 0 1
    outer loop
      vertex -40 53 2
      vertex -23.375 50.0155 2
      vertex -5 53 2
    endloop
  endfacet
  facet normal 0 0 1
    outer loop
      vertex -5 53 2
      vertex -6.5 13 2
      vertex -5 -53 2
    endloop
  endfacet
  facet normal -0 0 1
    outer loop
      vertex -6.5 -13 2
      vertex -5 -53 2
      vertex -6.5 13 2
    endloop
  endfacet
  facet normal -0 0 1
    outer loop
      vertex -6.5 -23 2
      vertex -5 -53 2
      vertex -6.5 -13 2
    endloop
  endfacet
  facet normal 0 0 1
    outer loop
      vertex -8.5 -32 2
      vertex -6.5 -23 2
      vertex -8 -23 2
    endloop
  endfacet
  facet normal 0 0 1
    outer loop
      vertex -8 -13 2
      vertex -8.5 -32 2
      vertex -8 -23 2
    endloop
  endfacet
  facet normal 0 0 1
    outer loop
      vertex -6.5 -23 2
      vertex -8.5 -32 2
      vertex -5 -53 2
    endloop
  endfacet
  facet normal -0 0 1
    outer loop
      vertex -19 -41.5 2
      vertex -5 -53 2
      vertex -8.5 -32 2
    endloop
  endfacet
  facet normal -0 0 1
    outer loop
      vertex -19.7322 -43.2678 2
      vertex -5 -53 2
      vertex -19 -41.5 2
    endloop
  endfacet
  facet normal -0 0 1
    outer loop
      vertex -20.75 -48.5 2
      vertex -5 -53 2
      vertex -19.7322 -43.2678 2
    endloop
  endfacet
  facet normal -0 0 1
    outer loop
      vertex -21.625 -50.0155 2
      vertex -5 -53 2
      vertex -20.75 -48.5 2
    endloop
  endfacet
  facet normal -0 0 1
    outer loop
      vertex -23.375 -50.0155 2
      vertex -5 -53 2
      vertex -21.625 -50.0155 2
    endloop
  endfacet
  facet normal 0 0 1
    outer loop
      vertex -40 -53 2
      vertex -25.2678 -43.2678 2
      vertex -26 -41.5 2
    endloop
  endfacet
  facet normal 0 0 1
    outer loop
      vertex -40 -53 2
      vertex -26 -41.5 2
      vertex -36.5 -32 2
    endloop
  endfacet
  facet normal 0 0 1
    outer loop
      vertex -25.2678 -43.2678 2
      vertex -40 -53 2
      vertex -24.25 -48.5 2
    endloop
  endfacet
  facet normal 0 0 1
    outer loop
      vertex -37 -13 2
      vertex -36.5 18 2
      vertex -37 13 2
    endloop
  endfacet
  facet normal 0 0 1
    outer loop
      vertex -36.5 18 2
      vertex -37 -13 2
      vertex -36.5 -32 2
    endloop
  endfacet
  facet normal -0 0 1
    outer loop
      vertex -37 -23 2
      vertex -36.5 -32 2
      vertex -37 -13 2
    endloop
  endfacet
  facet normal -0 0 1
    outer loop
      vertex -38.5 -23 2
      vertex -36.5 -32 2
      vertex -37 -23 2
    endloop
  endfacet
  facet normal 0 0 1
    outer loop
      vertex -23.375 -50.0155 2
      vertex -40 -53 2
      vertex -5 -53 2
    endloop
  endfacet
  facet normal 0 0 1
    outer loop
      vertex -24.25 -48.5 2
      vertex -40 -53 2
      vertex -23.375 -50.0155 2
    endloop
  endfacet
  facet normal 0 0 1
    outer loop
      vertex -38.5 -23 2
      vertex -40 -53 2
      vertex -36.5 -32 2
    endloop
  endfacet
  facet normal 0 0 1
    outer loop
      vertex -38.5 -13 2
      vertex -40 -53 2
      vertex -38.5 -23 2
    endloop
  endfacet
  facet normal -0 0 1
    outer loop
      vertex -20.7322 27.7678 2
      vertex -8 23 2
      vertex -19.7322 39.7322 2
    endloop
  endfacet
  facet normal -0 0 1
    outer loop
      vertex -20.7322 24.2322 2
      vertex -8 23 2
      vertex -20 26 2
    endloop
  endfacet
  facet normal 0 0 1
    outer loop
      vertex -8 23 2
      vertex -20.7322 24.2322 2
      vertex -8.5 18 2
    endloop
  endfacet
  facet normal -0 0 1
    outer loop
      vertex -22.5 23.5 2
      vertex -8.5 18 2
      vertex -20.7322 24.2322 2
    endloop
  endfacet
  facet normal 0 0 1
    outer loop
      vertex -36.5 18 2
      vertex -25.2678 39.7322 2
      vertex -26 41.5 2
    endloop
  endfacet
  facet normal 0 0 1
    outer loop
      vertex -22.5 23.5 2
      vertex -36.5 18 2
      vertex -8.5 18 2
    endloop
  endfacet
  facet normal 0 0 1
    outer loop
      vertex -24.2678 24.2322 2
      vertex -36.5 18 2
      vertex -22.5 23.5 2
    endloop
  endfacet
  facet normal 0 0 1
    outer loop
      vertex -25 26 2
      vertex -36.5 18 2
      vertex -24.2678 24.2322 2
    endloop
  endfacet
  facet normal 0 0 1
    outer loop
      vertex -25.2678 39.7322 2
      vertex -36.5 18 2
      vertex -25 26 2
    endloop
  endfacet
  facet normal -0 0 1
    outer loop
      vertex -21.625 46.9845 2
      vertex -19.7322 43.2678 2
      vertex -20.75 48.5 2
    endloop
  endfacet
  facet normal 0 0 1
    outer loop
      vertex -19.7322 43.2678 2
      vertex -21.625 46.9845 2
      vertex -21.5 44 2
    endloop
  endfacet
  facet normal -0 0 1
    outer loop
      vertex -23.375 46.9845 2
      vertex -21.5 44 2
      vertex -21.625 46.9845 2
    endloop
  endfacet
  facet normal 0 0 1
    outer loop
      vertex -23.375 46.9845 2
      vertex -23.5 44 2
      vertex -21.5 44 2
    endloop
  endfacet
  facet normal 0 0 1
    outer loop
      vertex -25.2678 43.2678 2
      vertex -23.375 46.9845 2
      vertex -24.25 48.5 2
    endloop
  endfacet
  facet normal 0 0 1
    outer loop
      vertex -23.375 46.9845 2
      vertex -25.2678 43.2678 2
      vertex -23.5 44 2
    endloop
  endfacet
  facet normal 1 -0 0
    outer loop
      vertex -5 -53 2
      vertex -5 53 0
      vertex -5 53 2
    endloop
  endfacet
  facet normal 1 0 0
    outer loop
      vertex -5 53 0
      vertex -5 -53 2
      vertex -5 -53 0
    endloop
  endfacet
  facet normal 0 0 -1
    outer loop
      vertex -38.5 -13 0
      vertex -37 13 0
      vertex -37 -13 0
    endloop
  endfacet
  facet normal -0 0 -1
    outer loop
      vertex -37 13 0
      vertex -38.5 -13 0
      vertex -38.5 13 0
    endloop
  endfacet
  facet normal 0 0 -1
    outer loop
      vertex -21.625 46.9845 0
      vertex -19.7322 43.2678 0
      vertex -21.5 44 0
    endloop
  endfacet
  facet normal 0 0 -1
    outer loop
      vertex -19.7322 43.2678 0
      vertex -21.625 46.9845 0
      vertex -20.75 48.5 0
    endloop
  endfacet
  facet normal 0 0 -1
    outer loop
      vertex -21.5 44 0
      vertex -23.375 46.9845 0
      vertex -21.625 46.9845 0
    endloop
  endfacet
  facet normal 0 0 -1
    outer loop
      vertex -23.5 44 0
      vertex -23.375 46.9845 0
      vertex -21.5 44 0
    endloop
  endfacet
  facet normal 0 0 -1
    outer loop
      vertex -25.2678 43.2678 0
      vertex -23.375 46.9845 0
      vertex -23.5 44 0
    endloop
  endfacet
  facet normal -0 0 -1
    outer loop
      vertex -23.375 46.9845 0
      vertex -25.2678 43.2678 0
      vertex -24.25 48.5 0
    endloop
  endfacet
  facet normal 0 0 -1
    outer loop
      vertex -8 23 0
      vertex -19.7322 39.7322 0
      vertex -19 41.5 0
    endloop
  endfacet
  facet normal 0 0 -1
    outer loop
      vertex -20.7322 27.7678 0
      vertex -8 23 0
      vertex -20 26 0
    endloop
  endfacet
  facet normal 0 0 -1
    outer loop
      vertex -8 23 0
      vertex -20.7322 24.2322 0
      vertex -20 26 0
    endloop
  endfacet
  facet normal 0 0 -1
    outer loop
      vertex -8.5 18 0
      vertex -22.5 23.5 0
      vertex -20.7322 24.2322 0
    endloop
  endfacet
  facet normal -0 0 -1
    outer loop
      vertex -24.2678 27.7678 0
      vertex -37 23 0
      vertex -25.2678 39.7322 0
    endloop
  endfacet
  facet normal -0 0 -1
    outer loop
      vertex -24.2678 24.2322 0
      vertex -37 23 0
      vertex -25 26 0
    endloop
  endfacet
  facet normal 0 0 -1
    outer loop
      vertex -37 23 0
      vertex -24.2678 24.2322 0
      vertex -36.5 18 0
    endloop
  endfacet
  facet normal -0 0 -1
    outer loop
      vertex -22.5 23.5 0
      vertex -36.5 18 0
      vertex -24.2678 24.2322 0
    endloop
  endfacet
  facet normal 0 0 -1
    outer loop
      vertex -36.5 18 0
      vertex -22.5 23.5 0
      vertex -8.5 18 0
    endloop
  endfacet
  facet normal 0 0 -1
    outer loop
      vertex -8 -13 0
      vertex -6.5 13 0
      vertex -6.5 -13 0
    endloop
  endfacet
  facet normal -0 0 -1
    outer loop
      vertex -6.5 13 0
      vertex -8 -13 0
      vertex -8 13 0
    endloop
  endfacet
  facet normal 0 0 -1
    outer loop
      vertex -6.5 -13 0
      vertex -5 -53 0
      vertex -6.5 -23 0
    endloop
  endfacet
  facet normal 0 0 -1
    outer loop
      vertex -8.5 -32 0
      vertex -6.5 -23 0
      vertex -5 -53 0
    endloop
  endfacet
  facet normal 0 0 -1
    outer loop
      vertex -8.5 -32 0
      vertex -8 -13 0
      vertex -8 -23 0
    endloop
  endfacet
  facet normal 0 0 -1
    outer loop
      vertex -8 -13 0
      vertex -8.5 18 0
      vertex -8 13 0
    endloop
  endfacet
  facet normal -0 0 -1
    outer loop
      vertex -8 -13 0
      vertex -8.5 -32 0
      vertex -8.5 18 0
    endloop
  endfacet
  facet normal -0 0 -1
    outer loop
      vertex -6.5 -23 0
      vertex -8.5 -32 0
      vertex -8 -23 0
    endloop
  endfacet
  facet normal 0 0 -1
    outer loop
      vertex -5 -53 0
      vertex -19 -41.5 0
      vertex -8.5 -32 0
    endloop
  endfacet
  facet normal 0 0 -1
    outer loop
      vertex -5 -53 0
      vertex -19.7322 -43.2678 0
      vertex -19 -41.5 0
    endloop
  endfacet
  facet normal 0 0 -1
    outer loop
      vertex -5 -53 0
      vertex -20.75 -48.5 0
      vertex -19.7322 -43.2678 0
    endloop
  endfacet
  facet normal 0 0 -1
    outer loop
      vertex -5 -53 0
      vertex -21.625 -50.0155 0
      vertex -20.75 -48.5 0
    endloop
  endfacet
  facet normal 0 0 -1
    outer loop
      vertex -5 -53 0
      vertex -23.375 -50.0155 0
      vertex -21.625 -50.0155 0
    endloop
  endfacet
  facet normal 0 0 -1
    outer loop
      vertex -40 -53 0
      vertex -25.2678 -43.2678 0
      vertex -24.25 -48.5 0
    endloop
  endfacet
  facet normal -0 0 -1
    outer loop
      vertex -25.2678 -43.2678 0
      vertex -40 -53 0
      vertex -26 -41.5 0
    endloop
  endfacet
  facet normal 0 0 -1
    outer loop
      vertex -40 -53 0
      vertex -24.25 -48.5 0
      vertex -23.375 -50.0155 0
    endloop
  endfacet
  facet normal 0 0 -1
    outer loop
      vertex -37 -13 0
      vertex -36.5 -32 0
      vertex -37 -23 0
    endloop
  endfacet
  facet normal 0 0 -1
    outer loop
      vertex -36.5 -32 0
      vertex -38.5 -23 0
      vertex -37 -23 0
    endloop
  endfacet
  facet normal 0 0 -1
    outer loop
      vertex -40 -53 0
      vertex -38.5 -13 0
      vertex -38.5 -23 0
    endloop
  endfacet
  facet normal -0 0 -1
    outer loop
      vertex -38.5 -13 0
      vertex -40 -53 0
      vertex -38.5 13 0
    endloop
  endfacet
  facet normal 0 0 -1
    outer loop
      vertex -40 53 0
      vertex -38.5 13 0
      vertex -40 -53 0
    endloop
  endfacet
  facet normal -0 0 -1
    outer loop
      vertex -36.5 -32 0
      vertex -40 -53 0
      vertex -38.5 -23 0
    endloop
  endfacet
  facet normal -0 0 -1
    outer loop
      vertex -26 -41.5 0
      vertex -40 -53 0
      vertex -36.5 -32 0
    endloop
  endfacet
  facet normal 0 0 -1
    outer loop
      vertex -40 -53 0
      vertex -23.375 -50.0155 0
      vertex -5 -53 0
    endloop
  endfacet
  facet normal 0 0 -1
    outer loop
      vertex -5 -53 0
      vertex -6.5 -13 0
      vertex -5 53 0
    endloop
  endfacet
  facet normal 0 0 -1
    outer loop
      vertex -6.5 13 0
      vertex -5 53 0
      vertex -6.5 -13 0
    endloop
  endfacet
  facet normal 0 0 -1
    outer loop
      vertex -6.5 23 0
      vertex -5 53 0
      vertex -6.5 13 0
    endloop
  endfacet
  facet normal 0 0 -1
    outer loop
      vertex -19 41.5 0
      vertex -6.5 23 0
      vertex -8 23 0
    endloop
  endfacet
  facet normal 0 0 -1
    outer loop
      vertex -8 13 0
      vertex -8.5 18 0
      vertex -8 23 0
    endloop
  endfacet
  facet normal 0 0 -1
    outer loop
      vertex -20.7322 24.2322 0
      vertex -8 23 0
      vertex -8.5 18 0
    endloop
  endfacet
  facet normal 0 0 -1
    outer loop
      vertex -6.5 23 0
      vertex -19 41.5 0
      vertex -5 53 0
    endloop
  endfacet
  facet normal 0 0 -1
    outer loop
      vertex -19.7322 43.2678 0
      vertex -5 53 0
      vertex -19 41.5 0
    endloop
  endfacet
  facet normal 0 0 -1
    outer loop
      vertex -20.75 48.5 0
      vertex -5 53 0
      vertex -19.7322 43.2678 0
    endloop
  endfacet
  facet normal 0 0 -1
    outer loop
      vertex -21.625 50.0155 0
      vertex -5 53 0
      vertex -20.75 48.5 0
    endloop
  endfacet
  facet normal 0 0 -1
    outer loop
      vertex -23.375 50.0155 0
      vertex -5 53 0
      vertex -21.625 50.0155 0
    endloop
  endfacet
  facet normal 0 0 -1
    outer loop
      vertex -40 53 0
      vertex -25.2678 43.2678 0
      vertex -26 41.5 0
    endloop
  endfacet
  facet normal -0 0 -1
    outer loop
      vertex -25.2678 39.7322 0
      vertex -37 23 0
      vertex -26 41.5 0
    endloop
  endfacet
  facet normal 0 0 -1
    outer loop
      vertex -36.5 -32 0
      vertex -37 -13 0
      vertex -36.5 18 0
    endloop
  endfacet
  facet normal 0 0 -1
    outer loop
      vertex -37 13 0
      vertex -36.5 18 0
      vertex -37 -13 0
    endloop
  endfacet
  facet normal 0 0 -1
    outer loop
      vertex -37 23 0
      vertex -36.5 18 0
      vertex -37 13 0
    endloop
  endfacet
  facet normal 0 0 -1
    outer loop
      vertex -38.5 23 0
      vertex -26 41.5 0
      vertex -37 23 0
    endloop
  endfacet
  facet normal -0 0 -1
    outer loop
      vertex -26 41.5 0
      vertex -38.5 23 0
      vertex -40 53 0
    endloop
  endfacet
  facet normal 0 0 -1
    outer loop
      vertex -23.375 50.0155 0
      vertex -40 53 0
      vertex -5 53 0
    endloop
  endfacet
  facet normal 0 0 -1
    outer loop
      vertex -24.25 48.5 0
      vertex -40 53 0
      vertex -23.375 50.0155 0
    endloop
  endfacet
  facet normal 0 0 -1
    outer loop
      vertex -25.2678 43.2678 0
      vertex -40 53 0
      vertex -24.25 48.5 0
    endloop
  endfacet
  facet normal 0 0 -1
    outer loop
      vertex -38.5 13 0
      vertex -40 53 0
      vertex -38.5 23 0
    endloop
  endfacet
  facet normal 0 0 -1
    outer loop
      vertex -19.7322 -39.7322 0
      vertex -8.5 -32 0
      vertex -19 -41.5 0
    endloop
  endfacet
  facet normal 0 0 -1
    outer loop
      vertex -21.5 -39 0
      vertex -8.5 -32 0
      vertex -19.7322 -39.7322 0
    endloop
  endfacet
  facet normal 0 0 -1
    outer loop
      vertex -23.5 -39 0
      vertex -8.5 -32 0
      vertex -21.5 -39 0
    endloop
  endfacet
  facet normal 0 0 -1
    outer loop
      vertex -36.5 -32 0
      vertex -23.5 -39 0
      vertex -25.2678 -39.7322 0
    endloop
  endfacet
  facet normal 0 0 -1
    outer loop
      vertex -23.5 -39 0
      vertex -36.5 -32 0
      vertex -8.5 -32 0
    endloop
  endfacet
  facet normal 0 0 -1
    outer loop
      vertex -36.5 -32 0
      vertex -25.2678 -39.7322 0
      vertex -26 -41.5 0
    endloop
  endfacet
  facet normal 0 0 -1
    outer loop
      vertex -8 23 0
      vertex -20.7322 27.7678 0
      vertex -19.7322 39.7322 0
    endloop
  endfacet
  facet normal 0 0 -1
    outer loop
      vertex -20.7322 27.7678 0
      vertex -21.5 39 0
      vertex -19.7322 39.7322 0
    endloop
  endfacet
  facet normal 0 0 -1
    outer loop
      vertex -22.5 28.5 0
      vertex -21.5 39 0
      vertex -20.7322 27.7678 0
    endloop
  endfacet
  facet normal 0 0 -1
    outer loop
      vertex -22.5 28.5 0
      vertex -23.5 39 0
      vertex -21.5 39 0
    endloop
  endfacet
  facet normal 0 0 -1
    outer loop
      vertex -24.2678 27.7678 0
      vertex -23.5 39 0
      vertex -22.5 28.5 0
    endloop
  endfacet
  facet normal 0 0 -1
    outer loop
      vertex -37 23 0
      vertex -24.2678 27.7678 0
      vertex -25 26 0
    endloop
  endfacet
  facet normal 0 0 -1
    outer loop
      vertex -24.2678 27.7678 0
      vertex -25.2678 39.7322 0
      vertex -23.5 39 0
    endloop
  endfacet
  facet normal 0 0 -1
    outer loop
      vertex -21.625 -46.9845 0
      vertex -19.7322 -43.2678 0
      vertex -20.75 -48.5 0
    endloop
  endfacet
  facet normal 0 0 -1
    outer loop
      vertex -19.7322 -43.2678 0
      vertex -21.625 -46.9845 0
      vertex -21.5 -44 0
    endloop
  endfacet
  facet normal 0 0 -1
    outer loop
      vertex -23.375 -46.9845 0
      vertex -21.5 -44 0
      vertex -21.625 -46.9845 0
    endloop
  endfacet
  facet normal 0 0 -1
    outer loop
      vertex -23.375 -46.9845 0
      vertex -23.5 -44 0
      vertex -21.5 -44 0
    endloop
  endfacet
  facet normal 0 0 -1
    outer loop
      vertex -25.2678 -43.2678 0
      vertex -23.375 -46.9845 0
      vertex -24.25 -48.5 0
    endloop
  endfacet
  facet normal 0 0 -1
    outer loop
      vertex -23.375 -46.9845 0
      vertex -25.2678 -43.2678 0
      vertex -23.5 -44 0
    endloop
  endfacet
  facet normal 0 -1 0
    outer loop
      vertex -40 -53 0
      vertex -5 -53 2
      vertex -40 -53 2
    endloop
  endfacet
  facet normal 0 -1 -0
    outer loop
      vertex -5 -53 2
      vertex -40 -53 0
      vertex -5 -53 0
    endloop
  endfacet
  facet normal 0 1 -0
    outer loop
      vertex -5 53 0
      vertex -40 53 2
      vertex -5 53 2
    endloop
  endfacet
  facet normal 0 1 0
    outer loop
      vertex -40 53 2
      vertex -5 53 0
      vertex -40 53 0
    endloop
  endfacet
  facet normal 1 -0 0
    outer loop
      vertex -38.5 -23 2
      vertex -38.5 -13 0
      vertex -38.5 -13 2
    endloop
  endfacet
  facet normal 1 0 0
    outer loop
      vertex -38.5 -13 0
      vertex -38.5 -23 2
      vertex -38.5 -23 0
    endloop
  endfacet
  facet normal -1 0 0
    outer loop
      vertex -37 -23 0
      vertex -37 -13 2
      vertex -37 -13 0
    endloop
  endfacet
  facet normal -1 -0 0
    outer loop
      vertex -37 -13 2
      vertex -37 -23 0
      vertex -37 -23 2
    endloop
  endfacet
  facet normal 0 -1 0
    outer loop
      vertex -38.5 -13 0
      vertex -37 -13 2
      vertex -38.5 -13 2
    endloop
  endfacet
  facet normal 0 -1 -0
    outer loop
      vertex -37 -13 2
      vertex -38.5 -13 0
      vertex -37 -13 0
    endloop
  endfacet
  facet normal 0 1 -0
    outer loop
      vertex -37 -23 0
      vertex -38.5 -23 2
      vertex -37 -23 2
    endloop
  endfacet
  facet normal 0 1 0
    outer loop
      vertex -38.5 -23 2
      vertex -37 -23 0
      vertex -38.5 -23 0
    endloop
  endfacet
  facet normal 1 -0 0
    outer loop
      vertex -38.5 13 2
      vertex -38.5 23 0
      vertex -38.5 23 2
    endloop
  endfacet
  facet normal 1 0 0
    outer loop
      vertex -38.5 23 0
      vertex -38.5 13 2
      vertex -38.5 13 0
    endloop
  endfacet
  facet normal -1 0 0
    outer loop
      vertex -37 13 0
      vertex -37 23 2
      vertex -37 23 0
    endloop
  endfacet
  facet normal -1 -0 0
    outer loop
      vertex -37 23 2
      vertex -37 13 0
      vertex -37 13 2
    endloop
  endfacet
  facet normal 0 -1 0
    outer loop
      vertex -38.5 23 0
      vertex -37 23 2
      vertex -38.5 23 2
    endloop
  endfacet
  facet normal 0 -1 -0
    outer loop
      vertex -37 23 2
      vertex -38.5 23 0
      vertex -37 23 0
    endloop
  endfacet
  facet normal 0 1 -0
    outer loop
      vertex -37 13 0
      vertex -38.5 13 2
      vertex -37 13 2
    endloop
  endfacet
  facet normal 0 1 0
    outer loop
      vertex -38.5 13 2
      vertex -37 13 0
      vertex -38.5 13 0
    endloop
  endfacet
  facet normal 1 -0 0
    outer loop
      vertex -8 -23 2
      vertex -8 -13 0
      vertex -8 -13 2
    endloop
  endfacet
  facet normal 1 0 0
    outer loop
      vertex -8 -13 0
      vertex -8 -23 2
      vertex -8 -23 0
    endloop
  endfacet
  facet normal -1 0 0
    outer loop
      vertex -6.5 -23 0
      vertex -6.5 -13 2
      vertex -6.5 -13 0
    endloop
  endfacet
  facet normal -1 -0 0
    outer loop
      vertex -6.5 -13 2
      vertex -6.5 -23 0
      vertex -6.5 -23 2
    endloop
  endfacet
  facet normal 0 -1 0
    outer loop
      vertex -8 -13 0
      vertex -6.5 -13 2
      vertex -8 -13 2
    endloop
  endfacet
  facet normal 0 -1 -0
    outer loop
      vertex -6.5 -13 2
      vertex -8 -13 0
      vertex -6.5 -13 0
    endloop
  endfacet
  facet normal 0 1 -0
    outer loop
      vertex -6.5 -23 0
      vertex -8 -23 2
      vertex -6.5 -23 2
    endloop
  endfacet
  facet normal 0 1 0
    outer loop
      vertex -8 -23 2
      vertex -6.5 -23 0
      vertex -8 -23 0
    endloop
  endfacet
  facet normal 1 -0 0
    outer loop
      vertex -8 13 2
      vertex -8 23 0
      vertex -8 23 2
    endloop
  endfacet
  facet normal 1 0 0
    outer loop
      vertex -8 23 0
      vertex -8 13 2
      vertex -8 13 0
    endloop
  endfacet
  facet normal -1 0 0
    outer loop
      vertex -6.5 13 0
      vertex -6.5 23 2
      vertex -6.5 23 0
    endloop
  endfacet
  facet normal -1 -0 0
    outer loop
      vertex -6.5 23 2
      vertex -6.5 13 0
      vertex -6.5 13 2
    endloop
  endfacet
  facet normal 0 1 -0
    outer loop
      vertex -6.5 13 0
      vertex -8 13 2
      vertex -6.5 13 2
    endloop
  endfacet
  facet normal 0 1 0
    outer loop
      vertex -8 13 2
      vertex -6.5 13 0
      vertex -8 13 0
    endloop
  endfacet
  facet normal 0 -1 0
    outer loop
      vertex -8 23 0
      vertex -6.5 23 2
      vertex -8 23 2
    endloop
  endfacet
  facet normal 0 -1 -0
    outer loop
      vertex -6.5 23 2
      vertex -8 23 0
      vertex -6.5 23 0
    endloop
  endfacet
  facet normal 1 -0 0
    outer loop
      vertex -36.5 -32 2
      vertex -36.5 18 0
      vertex -36.5 18 2
    endloop
  endfacet
  facet normal 1 0 0
    outer loop
      vertex -36.5 18 0
      vertex -36.5 -32 2
      vertex -36.5 -32 0
    endloop
  endfacet
  facet normal -1 0 0
    outer loop
      vertex -8.5 -32 0
      vertex -8.5 18 2
      vertex -8.5 18 0
    endloop
  endfacet
  facet normal -1 -0 0
    outer loop
      vertex -8.5 18 2
      vertex -8.5 -32 0
      vertex -8.5 -32 2
    endloop
  endfacet
  facet normal 0 -1 0
    outer loop
      vertex -36.5 18 0
      vertex -8.5 18 2
      vertex -36.5 18 2
    endloop
  endfacet
  facet normal 0 -1 -0
    outer loop
      vertex -8.5 18 2
      vertex -36.5 18 0
      vertex -8.5 18 0
    endloop
  endfacet
  facet normal 0 1 -0
    outer loop
      vertex -8.5 -32 0
      vertex -36.5 -32 2
      vertex -8.5 -32 2
    endloop
  endfacet
  facet normal 0 1 0
    outer loop
      vertex -36.5 -32 2
      vertex -8.5 -32 0
      vertex -36.5 -32 0
    endloop
  endfacet
  facet normal -0.92388 -0.382683 0
    outer loop
      vertex -20 26 0
      vertex -20.7322 27.7678 2
      vertex -20.7322 27.7678 0
    endloop
  endfacet
  facet normal -0.92388 -0.382683 0
    outer loop
      vertex -20.7322 27.7678 2
      vertex -20 26 0
      vertex -20 26 2
    endloop
  endfacet
  facet normal 0.382683 -0.92388 0
    outer loop
      vertex -24.2678 27.7678 0
      vertex -22.5 28.5 2
      vertex -24.2678 27.7678 2
    endloop
  endfacet
  facet normal 0.382683 -0.92388 0
    outer loop
      vertex -22.5 28.5 2
      vertex -24.2678 27.7678 0
      vertex -22.5 28.5 0
    endloop
  endfacet
  facet normal -0.382683 -0.92388 0
    outer loop
      vertex -22.5 28.5 0
      vertex -20.7322 27.7678 2
      vertex -22.5 28.5 2
    endloop
  endfacet
  facet normal -0.382683 -0.92388 -0
    outer loop
      vertex -20.7322 27.7678 2
      vertex -22.5 28.5 0
      vertex -20.7322 27.7678 0
    endloop
  endfacet
  facet normal 0.92388 -0.382683 0
    outer loop
      vertex -25 26 2
      vertex -24.2678 27.7678 0
      vertex -24.2678 27.7678 2
    endloop
  endfacet
  facet normal 0.92388 -0.382683 0
    outer loop
      vertex -24.2678 27.7678 0
      vertex -25 26 2
      vertex -25 26 0
    endloop
  endfacet
  facet normal -0.92388 0.382683 0
    outer loop
      vertex -20.7322 24.2322 0
      vertex -20 26 2
      vertex -20 26 0
    endloop
  endfacet
  facet normal -0.92388 0.382683 0
    outer loop
      vertex -20 26 2
      vertex -20.7322 24.2322 0
      vertex -20.7322 24.2322 2
    endloop
  endfacet
  facet normal 0.382682 0.92388 -0
    outer loop
      vertex -22.5 23.5 0
      vertex -24.2678 24.2322 2
      vertex -22.5 23.5 2
    endloop
  endfacet
  facet normal 0.382682 0.92388 0
    outer loop
      vertex -24.2678 24.2322 2
      vertex -22.5 23.5 0
      vertex -24.2678 24.2322 0
    endloop
  endfacet
  facet normal 0.92388 0.382682 0
    outer loop
      vertex -24.2678 24.2322 2
      vertex -25 26 0
      vertex -25 26 2
    endloop
  endfacet
  facet normal 0.92388 0.382682 0
    outer loop
      vertex -25 26 0
      vertex -24.2678 24.2322 2
      vertex -24.2678 24.2322 0
    endloop
  endfacet
  facet normal -0.382683 0.92388 0
    outer loop
      vertex -20.7322 24.2322 0
      vertex -22.5 23.5 2
      vertex -20.7322 24.2322 2
    endloop
  endfacet
  facet normal -0.382683 0.92388 0
    outer loop
      vertex -22.5 23.5 2
      vertex -20.7322 24.2322 0
      vertex -22.5 23.5 0
    endloop
  endfacet
  facet normal 0.382682 -0.92388 0
    outer loop
      vertex -25.2678 -39.7322 0
      vertex -23.5 -39 2
      vertex -25.2678 -39.7322 2
    endloop
  endfacet
  facet normal 0.382682 -0.92388 0
    outer loop
      vertex -23.5 -39 2
      vertex -25.2678 -39.7322 0
      vertex -23.5 -39 0
    endloop
  endfacet
  facet normal 0.92388 -0.382682 0
    outer loop
      vertex -26 -41.5 2
      vertex -25.2678 -39.7322 0
      vertex -25.2678 -39.7322 2
    endloop
  endfacet
  facet normal 0.92388 -0.382682 0
    outer loop
      vertex -25.2678 -39.7322 0
      vertex -26 -41.5 2
      vertex -26 -41.5 0
    endloop
  endfacet
  facet normal 0.382682 0.92388 -0
    outer loop
      vertex -23.5 -44 0
      vertex -25.2678 -43.2678 2
      vertex -23.5 -44 2
    endloop
  endfacet
  facet normal 0.382682 0.92388 0
    outer loop
      vertex -25.2678 -43.2678 2
      vertex -23.5 -44 0
      vertex -25.2678 -43.2678 0
    endloop
  endfacet
  facet normal 0.92388 0.382682 0
    outer loop
      vertex -25.2678 -43.2678 2
      vertex -26 -41.5 0
      vertex -26 -41.5 2
    endloop
  endfacet
  facet normal 0.92388 0.382682 0
    outer loop
      vertex -26 -41.5 0
      vertex -25.2678 -43.2678 2
      vertex -25.2678 -43.2678 0
    endloop
  endfacet
  facet normal -0.92388 -0.382683 0
    outer loop
      vertex -19 -41.5 0
      vertex -19.7322 -39.7322 2
      vertex -19.7322 -39.7322 0
    endloop
  endfacet
  facet normal -0.92388 -0.382683 0
    outer loop
      vertex -19.7322 -39.7322 2
      vertex -19 -41.5 0
      vertex -19 -41.5 2
    endloop
  endfacet
  facet normal -0.382683 -0.92388 0
    outer loop
      vertex -21.5 -39 0
      vertex -19.7322 -39.7322 2
      vertex -21.5 -39 2
    endloop
  endfacet
  facet normal -0.382683 -0.92388 -0
    outer loop
      vertex -19.7322 -39.7322 2
      vertex -21.5 -39 0
      vertex -19.7322 -39.7322 0
    endloop
  endfacet
  facet normal -0.92388 0.382683 0
    outer loop
      vertex -19.7322 -43.2678 0
      vertex -19 -41.5 2
      vertex -19 -41.5 0
    endloop
  endfacet
  facet normal -0.92388 0.382683 0
    outer loop
      vertex -19 -41.5 2
      vertex -19.7322 -43.2678 0
      vertex -19.7322 -43.2678 2
    endloop
  endfacet
  facet normal -0.382683 0.92388 0
    outer loop
      vertex -19.7322 -43.2678 0
      vertex -21.5 -44 2
      vertex -19.7322 -43.2678 2
    endloop
  endfacet
  facet normal -0.382683 0.92388 0
    outer loop
      vertex -21.5 -44 2
      vertex -19.7322 -43.2678 0
      vertex -21.5 -44 0
    endloop
  endfacet
  facet normal 0 -1 0
    outer loop
      vertex -23.5 -39 0
      vertex -21.5 -39 2
      vertex -23.5 -39 2
    endloop
  endfacet
  facet normal 0 -1 -0
    outer loop
      vertex -21.5 -39 2
      vertex -23.5 -39 0
      vertex -21.5 -39 0
    endloop
  endfacet
  facet normal 0 1 -0
    outer loop
      vertex -21.5 -44 0
      vertex -23.5 -44 2
      vertex -21.5 -44 2
    endloop
  endfacet
  facet normal 0 1 0
    outer loop
      vertex -23.5 -44 2
      vertex -21.5 -44 0
      vertex -23.5 -44 0
    endloop
  endfacet
  facet normal 0.382682 -0.92388 0
    outer loop
      vertex -25.2678 43.2678 0
      vertex -23.5 44 2
      vertex -25.2678 43.2678 2
    endloop
  endfacet
  facet normal 0.382682 -0.92388 0
    outer loop
      vertex -23.5 44 2
      vertex -25.2678 43.2678 0
      vertex -23.5 44 0
    endloop
  endfacet
  facet normal 0.92388 -0.382682 0
    outer loop
      vertex -26 41.5 2
      vertex -25.2678 43.2678 0
      vertex -25.2678 43.2678 2
    endloop
  endfacet
  facet normal 0.92388 -0.382682 0
    outer loop
      vertex -25.2678 43.2678 0
      vertex -26 41.5 2
      vertex -26 41.5 0
    endloop
  endfacet
  facet normal 0.382682 0.92388 -0
    outer loop
      vertex -23.5 39 0
      vertex -25.2678 39.7322 2
      vertex -23.5 39 2
    endloop
  endfacet
  facet normal 0.382682 0.92388 0
    outer loop
      vertex -25.2678 39.7322 2
      vertex -23.5 39 0
      vertex -25.2678 39.7322 0
    endloop
  endfacet
  facet normal 0.92388 0.382682 0
    outer loop
      vertex -25.2678 39.7322 2
      vertex -26 41.5 0
      vertex -26 41.5 2
    endloop
  endfacet
  facet normal 0.92388 0.382682 0
    outer loop
      vertex -26 41.5 0
      vertex -25.2678 39.7322 2
      vertex -25.2678 39.7322 0
    endloop
  endfacet
  facet normal -0.92388 -0.382683 0
    outer loop
      vertex -19 41.5 0
      vertex -19.7322 43.2678 2
      vertex -19.7322 43.2678 0
    endloop
  endfacet
  facet normal -0.92388 -0.382683 0
    outer loop
      vertex -19.7322 43.2678 2
      vertex -19 41.5 0
      vertex -19 41.5 2
    endloop
  endfacet
  facet normal -0.382683 -0.92388 0
    outer loop
      vertex -21.5 44 0
      vertex -19.7322 43.2678 2
      vertex -21.5 44 2
    endloop
  endfacet
  facet normal -0.382683 -0.92388 -0
    outer loop
      vertex -19.7322 43.2678 2
      vertex -21.5 44 0
      vertex -19.7322 43.2678 0
    endloop
  endfacet
  facet normal -0.92388 0.382683 0
    outer loop
      vertex -19.7322 39.7322 0
      vertex -19 41.5 2
      vertex -19 41.5 0
    endloop
  endfacet
  facet normal -0.92388 0.382683 0
    outer loop
      vertex -19 41.5 2
      vertex -19.7322 39.7322 0
      vertex -19.7322 39.7322 2
    endloop
  endfacet
  facet normal -0.382683 0.92388 0
    outer loop
      vertex -19.7322 39.7322 0
      vertex -21.5 39 2
      vertex -19.7322 39.7322 2
    endloop
  endfacet
  facet normal -0.382683 0.92388 0
    outer loop
      vertex -21.5 39 2
      vertex -19.7322 39.7322 0
      vertex -21.5 39 0
    endloop
  endfacet
  facet normal 0 1 -0
    outer loop
      vertex -21.5 39 0
      vertex -23.5 39 2
      vertex -21.5 39 2
    endloop
  endfacet
  facet normal 0 1 0
    outer loop
      vertex -23.5 39 2
      vertex -21.5 39 0
      vertex -23.5 39 0
    endloop
  endfacet
  facet normal 0 -1 0
    outer loop
      vertex -23.5 44 0
      vertex -21.5 44 2
      vertex -23.5 44 2
    endloop
  endfacet
  facet normal 0 -1 -0
    outer loop
      vertex -21.5 44 2
      vertex -23.5 44 0
      vertex -21.5 44 0
    endloop
  endfacet
  facet normal -0.866025 -0.5 0
    outer loop
      vertex -20.75 -48.5 0
      vertex -21.625 -46.9845 2
      vertex -21.625 -46.9845 0
    endloop
  endfacet
  facet normal -0.866025 -0.5 0
    outer loop
      vertex -21.625 -46.9845 2
      vertex -20.75 -48.5 0
      vertex -20.75 -48.5 2
    endloop
  endfacet
  facet normal 0 1 -0
    outer loop
      vertex -21.625 -50.0155 0
      vertex -23.375 -50.0155 2
      vertex -21.625 -50.0155 2
    endloop
  endfacet
  facet normal 0 1 0
    outer loop
      vertex -23.375 -50.0155 2
      vertex -21.625 -50.0155 0
      vertex -23.375 -50.0155 0
    endloop
  endfacet
  facet normal 0.866025 -0.5 0
    outer loop
      vertex -24.25 -48.5 2
      vertex -23.375 -46.9845 0
      vertex -23.375 -46.9845 2
    endloop
  endfacet
  facet normal 0.866025 -0.5 0
    outer loop
      vertex -23.375 -46.9845 0
      vertex -24.25 -48.5 2
      vertex -24.25 -48.5 0
    endloop
  endfacet
  facet normal 0 -1 0
    outer loop
      vertex -23.375 -46.9845 0
      vertex -21.625 -46.9845 2
      vertex -23.375 -46.9845 2
    endloop
  endfacet
  facet normal 0 -1 -0
    outer loop
      vertex -21.625 -46.9845 2
      vertex -23.375 -46.9845 0
      vertex -21.625 -46.9845 0
    endloop
  endfacet
  facet normal 0.866025 0.5 0
    outer loop
      vertex -23.375 -50.0155 2
      vertex -24.25 -48.5 0
      vertex -24.25 -48.5 2
    endloop
  endfacet
  facet normal 0.866025 0.5 0
    outer loop
      vertex -24.25 -48.5 0
      vertex -23.375 -50.0155 2
      vertex -23.375 -50.0155 0
    endloop
  endfacet
  facet normal -0.866025 0.5 0
    outer loop
      vertex -21.625 -50.0155 0
      vertex -20.75 -48.5 2
      vertex -20.75 -48.5 0
    endloop
  endfacet
  facet normal -0.866025 0.5 0
    outer loop
      vertex -20.75 -48.5 2
      vertex -21.625 -50.0155 0
      vertex -21.625 -50.0155 2
    endloop
  endfacet
  facet normal -0.866025 -0.5 0
    outer loop
      vertex -20.75 48.5 0
      vertex -21.625 50.0155 2
      vertex -21.625 50.0155 0
    endloop
  endfacet
  facet normal -0.866025 -0.5 0
    outer loop
      vertex -21.625 50.0155 2
      vertex -20.75 48.5 0
      vertex -20.75 48.5 2
    endloop
  endfacet
  facet normal 0 1 -0
    outer loop
      vertex -21.625 46.9845 0
      vertex -23.375 46.9845 2
      vertex -21.625 46.9845 2
    endloop
  endfacet
  facet normal 0 1 0
    outer loop
      vertex -23.375 46.9845 2
      vertex -21.625 46.9845 0
      vertex -23.375 46.9845 0
    endloop
  endfacet
  facet normal 0.866025 -0.5 0
    outer loop
      vertex -24.25 48.5 2
      vertex -23.375 50.0155 0
      vertex -23.375 50.0155 2
    endloop
  endfacet
  facet normal 0.866025 -0.5 0
    outer loop
      vertex -23.375 50.0155 0
      vertex -24.25 48.5 2
      vertex -24.25 48.5 0
    endloop
  endfacet
  facet normal 0 -1 0
    outer loop
      vertex -23.375 50.0155 0
      vertex -21.625 50.0155 2
      vertex -23.375 50.0155 2
    endloop
  endfacet
  facet normal 0 -1 -0
    outer loop
      vertex -21.625 50.0155 2
      vertex -23.375 50.0155 0
      vertex -21.625 50.0155 0
    endloop
  endfacet
  facet normal 0.866025 0.5 0
    outer loop
      vertex -23.375 46.9845 2
      vertex -24.25 48.5 0
      vertex -24.25 48.5 2
    endloop
  endfacet
  facet normal 0.866025 0.5 0
    outer loop
      vertex -24.25 48.5 0
      vertex -23.375 46.9845 2
      vertex -23.375 46.9845 0
    endloop
  endfacet
  facet normal -0.866025 0.5 0
    outer loop
      vertex -21.625 46.9845 0
      vertex -20.75 48.5 2
      vertex -20.75 48.5 0
    endloop
  endfacet
  facet normal -0.866025 0.5 0
    outer loop
      vertex -20.75 48.5 2
      vertex -21.625 46.9845 0
      vertex -21.625 46.9845 2
    endloop
  endfacet
  facet normal -1 0 0
    outer loop
      vertex 5.19806 -31.8678 0
      vertex 5.19806 -31 4
      vertex 5.19806 -31 0
    endloop
  endfacet
  facet normal -1 -0 0
    outer loop
      vertex 5.19806 -31 4
      vertex 5.19806 -31.8678 0
      vertex 5.19806 -31.8678 4
    endloop
  endfacet
  facet normal 0 0 1
    outer loop
      vertex 5 -31 4
      vertex 6 -14 4
      vertex 5 31 4
    endloop
  endfacet
  facet normal 0 0 1
    outer loop
      vertex 6 -14 4
      vertex 5 -31 4
      vertex 5.19806 -31 4
    endloop
  endfacet
  facet normal -0 0 1
    outer loop
      vertex 6 14 4
      vertex 6.5 -14 4
      vertex 6.5 14 4
    endloop
  endfacet
  facet normal 0 0 1
    outer loop
      vertex 6.5 -14 4
      vertex 6 14 4
      vertex 6 -14 4
    endloop
  endfacet
  facet normal 0 0 1
    outer loop
      vertex 6.5 14 4
      vertex 7.5 30 4
      vertex 6.5 22 4
    endloop
  endfacet
  facet normal 0 0 1
    outer loop
      vertex 7.5 30 4
      vertex 6.5 14 4
      vertex 7.5 -30 4
    endloop
  endfacet
  facet normal -0 0 1
    outer loop
      vertex 6.5 -14 4
      vertex 7.5 -30 4
      vertex 6.5 14 4
    endloop
  endfacet
  facet normal -0 0 1
    outer loop
      vertex 5.19806 31 4
      vertex 6.5 22 4
      vertex 6.55496 32.9499 4
    endloop
  endfacet
  facet normal -0 0 1
    outer loop
      vertex 5 31 4
      vertex 6 22 4
      vertex 5.19806 31 4
    endloop
  endfacet
  facet normal 0 0 1
    outer loop
      vertex 6 22 4
      vertex 5 31 4
      vertex 6 14 4
    endloop
  endfacet
  facet normal 0 0 1
    outer loop
      vertex 6.5 22 4
      vertex 5.19806 31 4
      vertex 6 22 4
    endloop
  endfacet
  facet normal 0 0 1
    outer loop
      vertex 5.19806 31 4
      vertex 6.55496 32.9499 4
      vertex 5.19806 31.8678 4
    endloop
  endfacet
  facet normal -0 0 1
    outer loop
      vertex 6.5 -22 4
      vertex 7.5 -30 4
      vertex 6.5 -14 4
    endloop
  endfacet
  facet normal -0 0 1
    outer loop
      vertex 6 -22 4
      vertex 7.5 -30 4
      vertex 6.5 -22 4
    endloop
  endfacet
  facet normal 0 0 1
    outer loop
      vertex 7.5 -30 4
      vertex 5.19806 -31 4
      vertex 7 -32.8483 4
    endloop
  endfacet
  facet normal 0 0 1
    outer loop
      vertex 7.5 -30 4
      vertex 6 -22 4
      vertex 5.19806 -31 4
    endloop
  endfacet
  facet normal 0 0 1
    outer loop
      vertex 6 14 4
      vertex 5 31 4
      vertex 6 -14 4
    endloop
  endfacet
  facet normal 0 0 1
    outer loop
      vertex 6 -14 4
      vertex 5.19806 -31 4
      vertex 6 -22 4
    endloop
  endfacet
  facet normal -0 0 1
    outer loop
      vertex 5.19806 -31.8678 4
      vertex 7 -32.8483 4
      vertex 5.19806 -31 4
    endloop
  endfacet
  facet normal 0 0 1
    outer loop
      vertex 7 -32.8483 4
      vertex 5.19806 -31.8678 4
      vertex 6.55496 -32.9499 4
    endloop
  endfacet
  facet normal 0 0 1
    outer loop
      vertex 10 21.4811 4
      vertex 9 21.4811 4
      vertex 10 -25.5 4
    endloop
  endfacet
  facet normal 0 0 1
    outer loop
      vertex 33 -25.5 4
      vertex 34 21.4811 4
      vertex 33 21.4811 4
    endloop
  endfacet
  facet normal 0 0 1
    outer loop
      vertex 35.5 30 4
      vertex 36 32.8483 4
      vertex 36 33 4
    endloop
  endfacet
  facet normal 0 0 1
    outer loop
      vertex 36 32.8483 4
      vertex 35.5 30 4
      vertex 36 -32.8483 4
    endloop
  endfacet
  facet normal -0 0 1
    outer loop
      vertex 35.5 -30 4
      vertex 36 -32.8483 4
      vertex 35.5 30 4
    endloop
  endfacet
  facet normal 0 0 1
    outer loop
      vertex 36 33 4
      vertex 7.5 30 4
      vertex 35.5 30 4
    endloop
  endfacet
  facet normal -0 0 1
    outer loop
      vertex 7 32.8483 4
      vertex 7.5 30 4
      vertex 7 33 4
    endloop
  endfacet
  facet normal -0 0 1
    outer loop
      vertex 7 33 4
      vertex 7.5 30 4
      vertex 36 33 4
    endloop
  endfacet
  facet normal -0 0 1
    outer loop
      vertex 34 -30 4
      vertex 36 -32.8483 4
      vertex 35.5 -30 4
    endloop
  endfacet
  facet normal 0 0 1
    outer loop
      vertex 36 -32.8483 4
      vertex 34 -30 4
      vertex 36 -33 4
    endloop
  endfacet
  facet normal 0 0 1
    outer loop
      vertex 34 21.4811 4
      vertex 33 -25.5 4
      vertex 34 -30 4
    endloop
  endfacet
  facet normal -0 0 1
    outer loop
      vertex 10 -25.5 4
      vertex 34 -30 4
      vertex 33 -25.5 4
    endloop
  endfacet
  facet normal 0 0 1
    outer loop
      vertex 9 -30 4
      vertex 34 -30 4
      vertex 10 -25.5 4
    endloop
  endfacet
  facet normal 0 0 1
    outer loop
      vertex 9 -30 4
      vertex 10 -25.5 4
      vertex 9 21.4811 4
    endloop
  endfacet
  facet normal 0 0 1
    outer loop
      vertex 34 -30 4
      vertex 9 -30 4
      vertex 36 -33 4
    endloop
  endfacet
  facet normal 0 0 1
    outer loop
      vertex 7 -32.8483 4
      vertex 9 -30 4
      vertex 7.5 -30 4
    endloop
  endfacet
  facet normal 0 0 1
    outer loop
      vertex 6.55496 32.9499 4
      vertex 7.5 30 4
      vertex 7 32.8483 4
    endloop
  endfacet
  facet normal 0 0 1
    outer loop
      vertex 6.5 22 4
      vertex 7.5 30 4
      vertex 6.55496 32.9499 4
    endloop
  endfacet
  facet normal 0 0 1
    outer loop
      vertex 9 -30 4
      vertex 7 -32.8483 4
      vertex 7 -33 4
    endloop
  endfacet
  facet normal 0 0 1
    outer loop
      vertex 9 -30 4
      vertex 7 -33 4
      vertex 36 -33 4
    endloop
  endfacet
  facet normal -0 0 1
    outer loop
      vertex 36.5 14 4
      vertex 37 -14 4
      vertex 37 14 4
    endloop
  endfacet
  facet normal 0 0 1
    outer loop
      vertex 37 -14 4
      vertex 36.5 14 4
      vertex 36.5 -14 4
    endloop
  endfacet
  facet normal 0 0 1
    outer loop
      vertex 36 32.8483 4
      vertex 38 31 4
      vertex 37.247 32.5637 4
    endloop
  endfacet
  facet normal 0 0 1
    outer loop
      vertex 38 31 4
      vertex 37 14 4
      vertex 38 -31 4
    endloop
  endfacet
  facet normal 0 0 1
    outer loop
      vertex 38 31 4
      vertex 37 22 4
      vertex 37 14 4
    endloop
  endfacet
  facet normal 0 0 1
    outer loop
      vertex 38 31 4
      vertex 36.5 22 4
      vertex 37 22 4
    endloop
  endfacet
  facet normal 0 0 1
    outer loop
      vertex 36 32.8483 4
      vertex 36.5 14 4
      vertex 36.5 22 4
    endloop
  endfacet
  facet normal 0 0 1
    outer loop
      vertex 36.5 14 4
      vertex 36 32.8483 4
      vertex 36.5 -14 4
    endloop
  endfacet
  facet normal 0 0 1
    outer loop
      vertex 36 -32.8483 4
      vertex 36.5 -14 4
      vertex 36 32.8483 4
    endloop
  endfacet
  facet normal 0 0 1
    outer loop
      vertex 38 31 4
      vertex 36 32.8483 4
      vertex 36.5 22 4
    endloop
  endfacet
  facet normal -0 0 1
    outer loop
      vertex 37 -14 4
      vertex 38 -31 4
      vertex 37 14 4
    endloop
  endfacet
  facet normal -0 0 1
    outer loop
      vertex 37 -22 4
      vertex 38 -31 4
      vertex 37 -14 4
    endloop
  endfacet
  facet normal -0 0 1
    outer loop
      vertex 36.5 -22 4
      vertex 38 -31 4
      vertex 37 -22 4
    endloop
  endfacet
  facet normal 0 0 1
    outer loop
      vertex 36 -32.8483 4
      vertex 38 -31 4
      vertex 36.5 -22 4
    endloop
  endfacet
  facet normal 0 0 1
    outer loop
      vertex 38 -31 4
      vertex 36 -32.8483 4
      vertex 37.247 -32.5637 4
    endloop
  endfacet
  facet normal 0 0 1
    outer loop
      vertex 36.5 -14 4
      vertex 36 -32.8483 4
      vertex 36.5 -22 4
    endloop
  endfacet
  facet normal 0 0 -1
    outer loop
      vertex 5 31 0
      vertex 7.5 30 0
      vertex 5 -31 0
    endloop
  endfacet
  facet normal 0 0 -1
    outer loop
      vertex 7.5 30 0
      vertex 5 31 0
      vertex 5.19806 31 0
    endloop
  endfacet
  facet normal 0 0 -1
    outer loop
      vertex 5 -31 0
      vertex 7.5 -30 0
      vertex 5.19806 -31 0
    endloop
  endfacet
  facet normal -0 0 -1
    outer loop
      vertex 7.5 -30 0
      vertex 5 -31 0
      vertex 7.5 30 0
    endloop
  endfacet
  facet normal 0 0 -1
    outer loop
      vertex 5.19806 -31 0
      vertex 6.55496 -32.9499 0
      vertex 5.19806 -31.8678 0
    endloop
  endfacet
  facet normal 0 0 -1
    outer loop
      vertex 7.5 30 0
      vertex 5.19806 31 0
      vertex 7 32.8483 0
    endloop
  endfacet
  facet normal 0 0 -1
    outer loop
      vertex 5.19806 31.8678 0
      vertex 7 32.8483 0
      vertex 5.19806 31 0
    endloop
  endfacet
  facet normal -0 0 -1
    outer loop
      vertex 7 32.8483 0
      vertex 5.19806 31.8678 0
      vertex 6.55496 32.9499 0
    endloop
  endfacet
  facet normal 0 0 -1
    outer loop
      vertex 35.5 -30 0
      vertex 36 -32.8483 0
      vertex 36 -33 0
    endloop
  endfacet
  facet normal 0 0 -1
    outer loop
      vertex 36 -32.8483 0
      vertex 35.5 -30 0
      vertex 36 32.8483 0
    endloop
  endfacet
  facet normal 0 0 -1
    outer loop
      vertex 35.5 30 0
      vertex 36 32.8483 0
      vertex 35.5 -30 0
    endloop
  endfacet
  facet normal 0 0 -1
    outer loop
      vertex 36 -33 0
      vertex 7.5 -30 0
      vertex 35.5 -30 0
    endloop
  endfacet
  facet normal 0 0 -1
    outer loop
      vertex 7 -32.8483 0
      vertex 7.5 -30 0
      vertex 7 -33 0
    endloop
  endfacet
  facet normal 0 0 -1
    outer loop
      vertex 7 -33 0
      vertex 7.5 -30 0
      vertex 36 -33 0
    endloop
  endfacet
  facet normal 0 0 -1
    outer loop
      vertex 36 -32.8483 0
      vertex 38 -31 0
      vertex 37.247 -32.5637 0
    endloop
  endfacet
  facet normal -0 0 -1
    outer loop
      vertex 38 -31 0
      vertex 36 -32.8483 0
      vertex 38 31 0
    endloop
  endfacet
  facet normal 0 0 -1
    outer loop
      vertex 36 32.8483 0
      vertex 38 31 0
      vertex 36 -32.8483 0
    endloop
  endfacet
  facet normal 0 0 -1
    outer loop
      vertex 38 31 0
      vertex 36 32.8483 0
      vertex 37.247 32.5637 0
    endloop
  endfacet
  facet normal -0 0 -1
    outer loop
      vertex 36 32.8483 0
      vertex 35.5 30 0
      vertex 36 33 0
    endloop
  endfacet
  facet normal 0 0 -1
    outer loop
      vertex 7.5 30 0
      vertex 36 33 0
      vertex 35.5 30 0
    endloop
  endfacet
  facet normal 0 0 -1
    outer loop
      vertex 5.19806 -31 0
      vertex 7 -32.8483 0
      vertex 6.55496 -32.9499 0
    endloop
  endfacet
  facet normal 0 0 -1
    outer loop
      vertex 7 -32.8483 0
      vertex 5.19806 -31 0
      vertex 7.5 -30 0
    endloop
  endfacet
  facet normal 0 0 -1
    outer loop
      vertex 7 33 0
      vertex 7.5 30 0
      vertex 7 32.8483 0
    endloop
  endfacet
  facet normal 0 0 -1
    outer loop
      vertex 7.5 30 0
      vertex 7 33 0
      vertex 36 33 0
    endloop
  endfacet
  facet normal 0.222521 -0.974928 0
    outer loop
      vertex 6.55496 -32.9499 0
      vertex 7 -32.8483 4
      vertex 6.55496 -32.9499 4
    endloop
  endfacet
  facet normal 0.222521 -0.974928 0
    outer loop
      vertex 7 -32.8483 4
      vertex 6.55496 -32.9499 0
      vertex 7 -32.8483 0
    endloop
  endfacet
  facet normal -0.62349 -0.781831 0
    outer loop
      vertex 5.19806 -31.8678 0
      vertex 6.55496 -32.9499 4
      vertex 5.19806 -31.8678 4
    endloop
  endfacet
  facet normal -0.62349 -0.781831 -0
    outer loop
      vertex 6.55496 -32.9499 4
      vertex 5.19806 -31.8678 0
      vertex 6.55496 -32.9499 0
    endloop
  endfacet
  facet normal -1 0 0
    outer loop
      vertex 5.19806 31 0
      vertex 5.19806 31.8678 4
      vertex 5.19806 31.8678 0
    endloop
  endfacet
  facet normal -1 -0 0
    outer loop
      vertex 5.19806 31.8678 4
      vertex 5.19806 31 0
      vertex 5.19806 31 4
    endloop
  endfacet
  facet normal 0.222521 0.974928 -0
    outer loop
      vertex 7 32.8483 0
      vertex 6.55496 32.9499 4
      vertex 7 32.8483 4
    endloop
  endfacet
  facet normal 0.222521 0.974928 0
    outer loop
      vertex 6.55496 32.9499 4
      vertex 7 32.8483 0
      vertex 6.55496 32.9499 0
    endloop
  endfacet
  facet normal -0.62349 0.781831 0
    outer loop
      vertex 6.55496 32.9499 0
      vertex 5.19806 31.8678 4
      vertex 6.55496 32.9499 4
    endloop
  endfacet
  facet normal -0.62349 0.781831 0
    outer loop
      vertex 5.19806 31.8678 4
      vertex 6.55496 32.9499 0
      vertex 5.19806 31.8678 0
    endloop
  endfacet
  facet normal 0.900969 -0.433884 0
    outer loop
      vertex 37.247 -32.5637 4
      vertex 38 -31 0
      vertex 38 -31 4
    endloop
  endfacet
  facet normal 0.900969 -0.433884 0
    outer loop
      vertex 38 -31 0
      vertex 37.247 -32.5637 4
      vertex 37.247 -32.5637 0
    endloop
  endfacet
  facet normal 0.222521 -0.974928 0
    outer loop
      vertex 36 -32.8483 0
      vertex 37.247 -32.5637 4
      vertex 36 -32.8483 4
    endloop
  endfacet
  facet normal 0.222521 -0.974928 0
    outer loop
      vertex 37.247 -32.5637 4
      vertex 36 -32.8483 0
      vertex 37.247 -32.5637 0
    endloop
  endfacet
  facet normal 0.900969 0.433884 0
    outer loop
      vertex 38 31 4
      vertex 37.247 32.5637 0
      vertex 37.247 32.5637 4
    endloop
  endfacet
  facet normal 0.900969 0.433884 0
    outer loop
      vertex 37.247 32.5637 0
      vertex 38 31 4
      vertex 38 31 0
    endloop
  endfacet
  facet normal 0.222521 0.974928 -0
    outer loop
      vertex 37.247 32.5637 0
      vertex 36 32.8483 4
      vertex 37.247 32.5637 4
    endloop
  endfacet
  facet normal 0.222521 0.974928 0
    outer loop
      vertex 36 32.8483 4
      vertex 37.247 32.5637 0
      vertex 36 32.8483 0
    endloop
  endfacet
  facet normal -1 0 0
    outer loop
      vertex 7 -33 0
      vertex 7 -32.8483 4
      vertex 7 -32.8483 0
    endloop
  endfacet
  facet normal -1 -0 0
    outer loop
      vertex 7 -32.8483 4
      vertex 7 -33 0
      vertex 7 -33 4
    endloop
  endfacet
  facet normal -1 0 0
    outer loop
      vertex 7 32.8483 0
      vertex 7 33 4
      vertex 7 33 0
    endloop
  endfacet
  facet normal -1 -0 0
    outer loop
      vertex 7 33 4
      vertex 7 32.8483 0
      vertex 7 32.8483 4
    endloop
  endfacet
  facet normal 1 -0 0
    outer loop
      vertex 36 -33 4
      vertex 36 -32.8483 0
      vertex 36 -32.8483 4
    endloop
  endfacet
  facet normal 1 0 0
    outer loop
      vertex 36 -32.8483 0
      vertex 36 -33 4
      vertex 36 -33 0
    endloop
  endfacet
  facet normal 1 -0 0
    outer loop
      vertex 36 32.8483 4
      vertex 36 33 0
      vertex 36 33 4
    endloop
  endfacet
  facet normal 1 0 0
    outer loop
      vertex 36 33 0
      vertex 36 32.8483 4
      vertex 36 32.8483 0
    endloop
  endfacet
  facet normal 0 -1 0
    outer loop
      vertex 7 -33 0
      vertex 36 -33 4
      vertex 7 -33 4
    endloop
  endfacet
  facet normal 0 -1 -0
    outer loop
      vertex 36 -33 4
      vertex 7 -33 0
      vertex 36 -33 0
    endloop
  endfacet
  facet normal 0 1 -0
    outer loop
      vertex 36 33 0
      vertex 7 33 4
      vertex 36 33 4
    endloop
  endfacet
  facet normal 0 1 0
    outer loop
      vertex 7 33 4
      vertex 36 33 0
      vertex 7 33 0
    endloop
  endfacet
  facet normal -1 0 0
    outer loop
      vertex 5 -31 0
      vertex 5 31 4
      vertex 5 31 0
    endloop
  endfacet
  facet normal -1 -0 0
    outer loop
      vertex 5 31 4
      vertex 5 -31 0
      vertex 5 -31 4
    endloop
  endfacet
  facet normal 1 -0 0
    outer loop
      vertex 38 -31 4
      vertex 38 31 0
      vertex 38 31 4
    endloop
  endfacet
  facet normal 1 0 0
    outer loop
      vertex 38 31 0
      vertex 38 -31 4
      vertex 38 -31 0
    endloop
  endfacet
  facet normal 0 -1 0
    outer loop
      vertex 5 -31 0
      vertex 5.19806 -31 4
      vertex 5 -31 4
    endloop
  endfacet
  facet normal 0 -1 -0
    outer loop
      vertex 5.19806 -31 4
      vertex 5 -31 0
      vertex 5.19806 -31 0
    endloop
  endfacet
  facet normal 0 1 -0
    outer loop
      vertex 5.19806 31 0
      vertex 5 31 4
      vertex 5.19806 31 4
    endloop
  endfacet
  facet normal 0 1 0
    outer loop
      vertex 5 31 4
      vertex 5.19806 31 0
      vertex 5 31 0
    endloop
  endfacet
  facet normal 1 -0 0
    outer loop
      vertex 7.5 -30 4
      vertex 7.5 30 0
      vertex 7.5 30 4
    endloop
  endfacet
  facet normal 1 0 0
    outer loop
      vertex 7.5 30 0
      vertex 7.5 -30 4
      vertex 7.5 -30 0
    endloop
  endfacet
  facet normal -1 0 0
    outer loop
      vertex 35.5 -30 0
      vertex 35.5 30 4
      vertex 35.5 30 0
    endloop
  endfacet
  facet normal -1 -0 0
    outer loop
      vertex 35.5 30 4
      vertex 35.5 -30 0
      vertex 35.5 -30 4
    endloop
  endfacet
  facet normal 0 -1 0
    outer loop
      vertex 7.5 30 0
      vertex 35.5 30 4
      vertex 7.5 30 4
    endloop
  endfacet
  facet normal 0 -1 -0
    outer loop
      vertex 35.5 30 4
      vertex 7.5 30 0
      vertex 35.5 30 0
    endloop
  endfacet
  facet normal 0 1 0
    outer loop
      vertex 35.5 -30 4
      vertex 34 -30 3.5
      vertex 34 -30 4
    endloop
  endfacet
  facet normal 0 1 0
    outer loop
      vertex 34 -30 3.5
      vertex 35.5 -30 0
      vertex 9 -30 3.5
    endloop
  endfacet
  facet normal 0 1 -0
    outer loop
      vertex 35.5 -30 0
      vertex 34 -30 3.5
      vertex 35.5 -30 4
    endloop
  endfacet
  facet normal 0 1 -0
    outer loop
      vertex 9 -30 3.5
      vertex 7.5 -30 4
      vertex 9 -30 4
    endloop
  endfacet
  facet normal 0 1 0
    outer loop
      vertex 9 -30 3.5
      vertex 7.5 -30 0
      vertex 7.5 -30 4
    endloop
  endfacet
  facet normal 0 1 0
    outer loop
      vertex 7.5 -30 0
      vertex 9 -30 3.5
      vertex 35.5 -30 0
    endloop
  endfacet
  facet normal -1 0 0
    outer loop
      vertex 9 28.5 0
      vertex 9 26.1215 2
      vertex 9 28.5 2
    endloop
  endfacet
  facet normal -1 0 0
    outer loop
      vertex 9 21.4811 4
      vertex 9 26.1215 2
      vertex 9 28.5 0
    endloop
  endfacet
  facet normal -1 0 0
    outer loop
      vertex 9 26.1215 2
      vertex 9 21.4811 4
      vertex 9 21.488 4.02595
    endloop
  endfacet
  facet normal -1 0 0
    outer loop
      vertex 9 -28.5 0
      vertex 9 21.4811 4
      vertex 9 28.5 0
    endloop
  endfacet
  facet normal -1 0 0
    outer loop
      vertex 9 -28.5 3.5
      vertex 9 21.4811 4
      vertex 9 -28.5 0
    endloop
  endfacet
  facet normal -1 0 0
    outer loop
      vertex 9 -30 4
      vertex 9 -28.5 3.5
      vertex 9 -30 3.5
    endloop
  endfacet
  facet normal -1 0 0
    outer loop
      vertex 9 -28.5 3.5
      vertex 9 -30 4
      vertex 9 21.4811 4
    endloop
  endfacet
  facet normal -1 -0 0
    outer loop
      vertex 9 26.3176 2.73185
      vertex 9 26.1215 2
      vertex 9 21.488 4.02595
    endloop
  endfacet
  facet normal 0 0 1
    outer loop
      vertex 34 28.5 2
      vertex 33 26.1215 2
      vertex 34 26.1215 2
    endloop
  endfacet
  facet normal 0 0 1
    outer loop
      vertex 33 26.1215 2
      vertex 10 26.1215 2
      vertex 33 -25.5 2
    endloop
  endfacet
  facet normal 0 0 1
    outer loop
      vertex 34 28.5 2
      vertex 10 26.1215 2
      vertex 33 26.1215 2
    endloop
  endfacet
  facet normal -0 0 1
    outer loop
      vertex 9 28.5 2
      vertex 10 26.1215 2
      vertex 34 28.5 2
    endloop
  endfacet
  facet normal 0 0 1
    outer loop
      vertex 10 26.1215 2
      vertex 9 28.5 2
      vertex 9 26.1215 2
    endloop
  endfacet
  facet normal 0 0 1
    outer loop
      vertex 33 -25.5 2
      vertex 10 26.1215 2
      vertex 10 -25.5 2
    endloop
  endfacet
  facet normal 1 -0 0
    outer loop
      vertex 34 21.4811 4
      vertex 34 26.3176 2.73185
      vertex 34 21.488 4.02595
    endloop
  endfacet
  facet normal 1 -0 0
    outer loop
      vertex 34 26.1215 2
      vertex 34 28.5 0
      vertex 34 28.5 2
    endloop
  endfacet
  facet normal 1 0 0
    outer loop
      vertex 34 26.3176 2.73185
      vertex 34 21.4811 4
      vertex 34 26.1215 2
    endloop
  endfacet
  facet normal 1 0 0
    outer loop
      vertex 34 26.1215 2
      vertex 34 21.4811 4
      vertex 34 28.5 0
    endloop
  endfacet
  facet normal 1 0 0
    outer loop
      vertex 34 -28.5 0
      vertex 34 21.4811 4
      vertex 34 -28.5 3.5
    endloop
  endfacet
  facet normal 1 0 0
    outer loop
      vertex 34 21.4811 4
      vertex 34 -28.5 0
      vertex 34 28.5 0
    endloop
  endfacet
  facet normal 1 -0 0
    outer loop
      vertex 34 -30 4
      vertex 34 -28.5 3.5
      vertex 34 21.4811 4
    endloop
  endfacet
  facet normal 1 0 0
    outer loop
      vertex 34 -28.5 3.5
      vertex 34 -30 4
      vertex 34 -30 3.5
    endloop
  endfacet
  facet normal 0 0 -1
    outer loop
      vertex 9 -28.5 0
      vertex 34 28.5 0
      vertex 34 -28.5 0
    endloop
  endfacet
  facet normal -0 0 -1
    outer loop
      vertex 34 28.5 0
      vertex 9 -28.5 0
      vertex 9 28.5 0
    endloop
  endfacet
  facet normal 0 -1 0
    outer loop
      vertex 9 -28.5 0
      vertex 34 -28.5 3.5
      vertex 9 -28.5 3.5
    endloop
  endfacet
  facet normal 0 -1 -0
    outer loop
      vertex 34 -28.5 3.5
      vertex 9 -28.5 0
      vertex 34 -28.5 0
    endloop
  endfacet
  facet normal 0 1 -0
    outer loop
      vertex 34 28.5 0
      vertex 9 28.5 2
      vertex 34 28.5 2
    endloop
  endfacet
  facet normal 0 1 0
    outer loop
      vertex 9 28.5 2
      vertex 34 28.5 0
      vertex 9 28.5 0
    endloop
  endfacet
  facet normal 1 -0 0
    outer loop
      vertex 10 21.4811 4
      vertex 10 26.3176 2.73185
      vertex 10 21.488 4.02595
    endloop
  endfacet
  facet normal 1 0 0
    outer loop
      vertex 10 26.3176 2.73185
      vertex 10 21.4811 4
      vertex 10 26.1215 2
    endloop
  endfacet
  facet normal 1 0 0
    outer loop
      vertex 10 -25.5 2
      vertex 10 21.4811 4
      vertex 10 -25.5 4
    endloop
  endfacet
  facet normal 1 0 0
    outer loop
      vertex 10 21.4811 4
      vertex 10 -25.5 2
      vertex 10 26.1215 2
    endloop
  endfacet
  facet normal 0 -0.965927 0.258816
    outer loop
      vertex 9 21.4811 4
      vertex 10 21.488 4.02595
      vertex 9 21.488 4.02595
    endloop
  endfacet
  facet normal 0 -0.965927 0.258816
    outer loop
      vertex 10 21.488 4.02595
      vertex 9 21.4811 4
      vertex 10 21.4811 4
    endloop
  endfacet
  facet normal -0 0.258819 0.965926
    outer loop
      vertex 9 26.3176 2.73185
      vertex 10 21.488 4.02595
      vertex 10 26.3176 2.73185
    endloop
  endfacet
  facet normal 0 0.258819 0.965926
    outer loop
      vertex 10 21.488 4.02595
      vertex 9 26.3176 2.73185
      vertex 9 21.488 4.02595
    endloop
  endfacet
  facet normal 0 0.965925 -0.258821
    outer loop
      vertex 10 26.1215 2
      vertex 9 26.3176 2.73185
      vertex 10 26.3176 2.73185
    endloop
  endfacet
  facet normal 0 0.965925 -0.258821
    outer loop
      vertex 9 26.3176 2.73185
      vertex 10 26.1215 2
      vertex 9 26.1215 2
    endloop
  endfacet
  facet normal -1 0 0
    outer loop
      vertex 33 21.4811 4
      vertex 33 26.3176 2.73185
      vertex 33 26.1215 2
    endloop
  endfacet
  facet normal -1 0 0
    outer loop
      vertex 33 26.3176 2.73185
      vertex 33 21.4811 4
      vertex 33 21.488 4.02595
    endloop
  endfacet
  facet normal -1 0 0
    outer loop
      vertex 33 -25.5 2
      vertex 33 21.4811 4
      vertex 33 26.1215 2
    endloop
  endfacet
  facet normal -1 -0 0
    outer loop
      vertex 33 21.4811 4
      vertex 33 -25.5 2
      vertex 33 -25.5 4
    endloop
  endfacet
  facet normal 0 -0.965927 0.258816
    outer loop
      vertex 33 21.4811 4
      vertex 34 21.488 4.02595
      vertex 33 21.488 4.02595
    endloop
  endfacet
  facet normal 0 -0.965927 0.258816
    outer loop
      vertex 34 21.488 4.02595
      vertex 33 21.4811 4
      vertex 34 21.4811 4
    endloop
  endfacet
  facet normal -0 0.258819 0.965926
    outer loop
      vertex 33 26.3176 2.73185
      vertex 34 21.488 4.02595
      vertex 34 26.3176 2.73185
    endloop
  endfacet
  facet normal 0 0.258819 0.965926
    outer loop
      vertex 34 21.488 4.02595
      vertex 33 26.3176 2.73185
      vertex 33 21.488 4.02595
    endloop
  endfacet
  facet normal 0 0.965925 -0.258821
    outer loop
      vertex 34 26.1215 2
      vertex 33 26.3176 2.73185
      vertex 34 26.3176 2.73185
    endloop
  endfacet
  facet normal 0 0.965925 -0.258821
    outer loop
      vertex 33 26.3176 2.73185
      vertex 34 26.1215 2
      vertex 33 26.1215 2
    endloop
  endfacet
  facet normal 0 1 -0
    outer loop
      vertex 33 -25.5 2
      vertex 10 -25.5 4
      vertex 33 -25.5 4
    endloop
  endfacet
  facet normal 0 1 0
    outer loop
      vertex 10 -25.5 4
      vertex 33 -25.5 2
      vertex 10 -25.5 2
    endloop
  endfacet
  facet normal 0 0 -1
    outer loop
      vertex 9 -30 3.5
      vertex 34 -28.5 3.5
      vertex 34 -30 3.5
    endloop
  endfacet
  facet normal -0 0 -1
    outer loop
      vertex 34 -28.5 3.5
      vertex 9 -30 3.5
      vertex 9 -28.5 3.5
    endloop
  endfacet
  facet normal -1 0 0
    outer loop
      vertex 6 -22 4
      vertex 6 -14 5.5
      vertex 6 -14 4
    endloop
  endfacet
  facet normal -1 -0 0
    outer loop
      vertex 6 -14 5.5
      vertex 6 -22 4
      vertex 6 -22 5.5
    endloop
  endfacet
  facet normal -0 0 1
    outer loop
      vertex 6 -14 5.5
      vertex 6.5 -22 5.5
      vertex 6.5 -14 5.5
    endloop
  endfacet
  facet normal 0 0 1
    outer loop
      vertex 6.5 -22 5.5
      vertex 6 -14 5.5
      vertex 6 -22 5.5
    endloop
  endfacet
  facet normal 1 -0 0
    outer loop
      vertex 6.5 -22 5.5
      vertex 6.5 -14 4
      vertex 6.5 -14 5.5
    endloop
  endfacet
  facet normal 1 0 0
    outer loop
      vertex 6.5 -14 4
      vertex 6.5 -22 5.5
      vertex 6.5 -22 4
    endloop
  endfacet
  facet normal 0 -1 0
    outer loop
      vertex 6 -22 4
      vertex 6.5 -22 5.5
      vertex 6 -22 5.5
    endloop
  endfacet
  facet normal 0 -1 -0
    outer loop
      vertex 6.5 -22 5.5
      vertex 6 -22 4
      vertex 6.5 -22 4
    endloop
  endfacet
  facet normal 0 1 -0
    outer loop
      vertex 6.5 -14 4
      vertex 6 -14 5.5
      vertex 6.5 -14 5.5
    endloop
  endfacet
  facet normal 0 1 0
    outer loop
      vertex 6 -14 5.5
      vertex 6.5 -14 4
      vertex 6 -14 4
    endloop
  endfacet
  facet normal -1 0 0
    outer loop
      vertex 6 14 4
      vertex 6 22 5.5
      vertex 6 22 4
    endloop
  endfacet
  facet normal -1 -0 0
    outer loop
      vertex 6 22 5.5
      vertex 6 14 4
      vertex 6 14 5.5
    endloop
  endfacet
  facet normal -0 0 1
    outer loop
      vertex 6 22 5.5
      vertex 6.5 14 5.5
      vertex 6.5 22 5.5
    endloop
  endfacet
  facet normal 0 0 1
    outer loop
      vertex 6.5 14 5.5
      vertex 6 22 5.5
      vertex 6 14 5.5
    endloop
  endfacet
  facet normal 1 -0 0
    outer loop
      vertex 6.5 14 5.5
      vertex 6.5 22 4
      vertex 6.5 22 5.5
    endloop
  endfacet
  facet normal 1 0 0
    outer loop
      vertex 6.5 22 4
      vertex 6.5 14 5.5
      vertex 6.5 14 4
    endloop
  endfacet
  facet normal 0 -1 0
    outer loop
      vertex 6 14 4
      vertex 6.5 14 5.5
      vertex 6 14 5.5
    endloop
  endfacet
  facet normal 0 -1 -0
    outer loop
      vertex 6.5 14 5.5
      vertex 6 14 4
      vertex 6.5 14 4
    endloop
  endfacet
  facet normal 0 1 -0
    outer loop
      vertex 6.5 22 4
      vertex 6 22 5.5
      vertex 6.5 22 5.5
    endloop
  endfacet
  facet normal 0 1 0
    outer loop
      vertex 6 22 5.5
      vertex 6.5 22 4
      vertex 6 22 4
    endloop
  endfacet
  facet normal -1 0 0
    outer loop
      vertex 36.5 -22 4
      vertex 36.5 -14 5.5
      vertex 36.5 -14 4
    endloop
  endfacet
  facet normal -1 -0 0
    outer loop
      vertex 36.5 -14 5.5
      vertex 36.5 -22 4
      vertex 36.5 -22 5.5
    endloop
  endfacet
  facet normal -0 0 1
    outer loop
      vertex 36.5 -14 5.5
      vertex 37 -22 5.5
      vertex 37 -14 5.5
    endloop
  endfacet
  facet normal 0 0 1
    outer loop
      vertex 37 -22 5.5
      vertex 36.5 -14 5.5
      vertex 36.5 -22 5.5
    endloop
  endfacet
  facet normal 1 -0 0
    outer loop
      vertex 37 -22 5.5
      vertex 37 -14 4
      vertex 37 -14 5.5
    endloop
  endfacet
  facet normal 1 0 0
    outer loop
      vertex 37 -14 4
      vertex 37 -22 5.5
      vertex 37 -22 4
    endloop
  endfacet
  facet normal 0 -1 0
    outer loop
      vertex 36.5 -22 4
      vertex 37 -22 5.5
      vertex 36.5 -22 5.5
    endloop
  endfacet
  facet normal 0 -1 -0
    outer loop
      vertex 37 -22 5.5
      vertex 36.5 -22 4
      vertex 37 -22 4
    endloop
  endfacet
  facet normal 0 1 -0
    outer loop
      vertex 37 -14 4
      vertex 36.5 -14 5.5
      vertex 37 -14 5.5
    endloop
  endfacet
  facet normal 0 1 0
    outer loop
      vertex 36.5 -14 5.5
      vertex 37 -14 4
      vertex 36.5 -14 4
    endloop
  endfacet
  facet normal -1 0 0
    outer loop
      vertex 36.5 14 4
      vertex 36.5 22 5.5
      vertex 36.5 22 4
    endloop
  endfacet
  facet normal -1 -0 0
    outer loop
      vertex 36.5 22 5.5
      vertex 36.5 14 4
      vertex 36.5 14 5.5
    endloop
  endfacet
  facet normal -0 0 1
    outer loop
      vertex 36.5 22 5.5
      vertex 37 14 5.5
      vertex 37 22 5.5
    endloop
  endfacet
  facet normal 0 0 1
    outer loop
      vertex 37 14 5.5
      vertex 36.5 22 5.5
      vertex 36.5 14 5.5
    endloop
  endfacet
  facet normal 1 -0 0
    outer loop
      vertex 37 14 5.5
      vertex 37 22 4
      vertex 37 22 5.5
    endloop
  endfacet
  facet normal 1 0 0
    outer loop
      vertex 37 22 4
      vertex 37 14 5.5
      vertex 37 14 4
    endloop
  endfacet
  facet normal 0 1 -0
    outer loop
      vertex 37 22 4
      vertex 36.5 22 5.5
      vertex 37 22 5.5
    endloop
  endfacet
  facet normal 0 1 0
    outer loop
      vertex 36.5 22 5.5
      vertex 37 22 4
      vertex 36.5 22 4
    endloop
  endfacet
  facet normal 0 -1 0
    outer loop
      vertex 36.5 14 4
      vertex 37 14 5.5
      vertex 36.5 14 5.5
    endloop
  endfacet
  facet normal 0 -1 -0
    outer loop
      vertex 37 14 5.5
      vertex 36.5 14 4
      vertex 37 14 4
    endloop
  endfacet
endsolid OpenSCAD_Model
